<?xml version="1.0" encoding="UTF-8"?>
<svg version="1.1" xmlns="http://www.w3.org/2000/svg" width="648" height="182">
<path d="M0 0 C-1.02168915 2.93109453 -1.7385814 3.86172817 -4.52758789 5.33691406 C-5.58196045 5.72588867 -6.63633301 6.11486328 -7.72265625 6.515625 C-8.89376953 6.95825684 -10.06488281 7.40088867 -11.27148438 7.85693359 C-11.89112061 8.08435242 -12.51075684 8.31177124 -13.14916992 8.54608154 C-16.35277172 9.72469388 -19.53673553 10.95425503 -22.72265625 12.1796875 C-23.3520108 12.42067169 -23.98136536 12.66165588 -24.62979126 12.90994263 C-29.82809458 14.90926391 -34.94397992 17.04012774 -40 19.375 C-40.66781494 19.67180664 -41.33562988 19.96861328 -42.02368164 20.27441406 C-47.15340059 22.69619882 -49.89065546 25.67565907 -52.3125 30.75 C-53.51843007 36.45076032 -52.95913068 41.11726201 -50.3125 46.3125 C-47.15335536 49.98393836 -44.62684507 52.66620499 -39.62719727 53.30151367 C-32.35177549 53.44767022 -27.07241883 51.93920914 -20.5 48.9375 C-19.50822754 48.50574463 -18.51645508 48.07398926 -17.49462891 47.62915039 C-14.64612441 46.38795183 -11.80560778 45.12989021 -8.96594238 43.86865234 C-2.90645323 41.1912649 3.18090914 38.57726943 9.26538086 35.95730591 C11.59479287 34.95055524 13.91966623 33.93386173 16.24414062 32.91577148 C17.69649369 32.28601669 19.14896248 31.65652871 20.6015625 31.02734375 C21.26004181 30.73609619 21.91852112 30.44484863 22.59695435 30.14477539 C26.38695955 28.51437607 29.90442521 27.50160349 34 27 C44.89382739 42.98356642 46.86130856 60.37237957 44.60546875 79.3125 C41.80263862 91.17480041 34.68300153 104.49941447 26 113 C23.765625 114.2578125 23.765625 114.2578125 22 115 C22 115.66 22 116.32 22 117 C19.96813059 118.55055702 17.96328171 119.94364193 15.8125 121.3125 C15.18480713 121.71404297 14.55711426 122.11558594 13.91040039 122.52929688 C2.52999327 129.58700208 -8.41236974 132.18528273 -21.6875 132.25 C-23.24500977 132.2809375 -23.24500977 132.2809375 -24.83398438 132.3125 C-31.72823483 132.34707931 -37.52860593 131.38794171 -44 129 C-44 128.01 -44 127.02 -44 126 C-43.37770508 125.74420166 -42.75541016 125.48840332 -42.11425781 125.22485352 C-34.72870977 122.18322735 -27.36142679 119.09949046 -20 116 C-19.00371582 115.58411621 -18.00743164 115.16823242 -16.98095703 114.73974609 C-14.25029664 113.59390658 -11.53036489 112.42581207 -8.8125 111.25 C-7.58611816 110.7406189 -7.58611816 110.7406189 -6.33496094 110.22094727 C-1.14781808 107.94077028 1.77120721 105.68958642 5 101 C6.83598527 95.49204419 7.07060506 89.18581866 4.5 83.9375 C4.005 83.298125 3.51 82.65875 3 82 C3 81.34 3 80.68 3 80 C-4.50325681 76.1190051 -12.26545315 75.56931985 -20.40625 78.02929688 C-23.35969634 79.23675516 -26.26547697 80.50570908 -29.14849854 81.87277222 C-31.04736573 82.77244153 -32.9580099 83.64078403 -34.87451172 84.50219727 C-37.55659979 85.70883396 -40.23430864 86.9244247 -42.90917969 88.14697266 C-48.9671552 90.90358182 -55.0741229 93.54208851 -61.20800781 96.12487793 C-63.0977321 96.92594101 -64.97833683 97.74617401 -66.859375 98.56738281 C-68.00148438 99.04916992 -69.14359375 99.53095703 -70.3203125 100.02734375 C-71.32336426 100.45781006 -72.32641602 100.88827637 -73.35986328 101.33178711 C-76 102 -76 102 -78.23925781 101.33447266 C-81.19111231 99.09725182 -82.25032429 95.76774314 -83.625 92.4375 C-83.9240625 91.75880859 -84.223125 91.08011719 -84.53125 90.38085938 C-90.85763446 75.5306516 -91.45968299 57.32290122 -86.26171875 42.0390625 C-78.5382943 23.43589155 -65.43382395 9.30783734 -46.9375 1.1875 C-32.05826374 -4.58199977 -15.19000068 -5.09365292 0 0 Z " fill="#193559" transform="translate(106,30)"/>
<path d="M0 0 C3.125 2.1875 3.125 2.1875 5.125 5.1875 C4.75 7.375 4.75 7.375 4.125 9.1875 C-2.26756198 9.56353306 -2.26756198 9.56353306 -5.5 7.5625 C-6.28375 7.10875 -7.0675 6.655 -7.875 6.1875 C-10.65723378 6.88235264 -10.65723378 6.88235264 -12.875 8.1875 C-13.9562391 14.24800614 -13.9562391 14.24800614 -12.875 20.1875 C-8.87245544 20.27931134 -8.87245544 20.27931134 -4.875 20.1875 C-4.545 19.8575 -4.215 19.5275 -3.875 19.1875 C-6.185 18.5275 -8.495 17.8675 -10.875 17.1875 C-10.545 14.8775 -10.215 12.5675 -9.875 10.1875 C-4.925 10.1875 0.025 10.1875 5.125 10.1875 C6.71912284 13.37574568 6.22674735 16.81646662 6.1875 20.3125 C6.18298828 21.06660156 6.17847656 21.82070312 6.17382812 22.59765625 C6.16203499 24.46097127 6.14409942 26.32424555 6.125 28.1875 C3.58386142 28.41083047 1.04327416 28.61652091 -1.5 28.8125 C-2.21285156 28.87695312 -2.92570312 28.94140625 -3.66015625 29.0078125 C-9.58481371 29.44264975 -13.87909486 28.8205133 -18.625 24.9375 C-22.28303645 20.46656657 -23.09356897 16.86850008 -22.8125 11.1875 C-22.15293424 6.03512751 -20.70604513 3.6702683 -16.875 0.1875 C-11.52258721 -2.99501571 -5.38353075 -2.92729484 0 0 Z " fill="#394F6B" transform="translate(388.875,77.8125)"/>
<path d="M0 0 C3.68258336 0.58462377 4.5625804 2.15697073 6.7578125 5.10546875 C7.75167969 6.41064453 7.75167969 6.41064453 8.765625 7.7421875 C10.51071796 10.24300063 12.10296373 12.78111761 13.6328125 15.41796875 C13.72369141 13.91943359 13.72369141 13.91943359 13.81640625 12.390625 C13.90019531 11.10027344 13.98398437 9.80992188 14.0703125 8.48046875 C14.15152344 7.19269531 14.23273438 5.90492187 14.31640625 4.578125 C14.6328125 1.41796875 14.6328125 1.41796875 15.6328125 0.41796875 C18.0703125 0.23046875 18.0703125 0.23046875 20.6328125 0.41796875 C22.6328125 2.41796875 22.6328125 2.41796875 22.85986328 5.12353516 C22.84938965 6.24421387 22.83891602 7.36489258 22.828125 8.51953125 C22.82167969 9.73125 22.81523437 10.94296875 22.80859375 12.19140625 C22.79183594 13.46242188 22.77507812 14.7334375 22.7578125 16.04296875 C22.74878906 17.32171875 22.73976563 18.60046875 22.73046875 19.91796875 C22.70683553 23.08482042 22.67388879 26.25130299 22.6328125 29.41796875 C20.29296875 30.48046875 20.29296875 30.48046875 17.6328125 31.41796875 C13.00849375 29.61335655 11.18240843 26.53022025 8.6328125 22.41796875 C7.3128125 20.76796875 5.9928125 19.11796875 4.6328125 17.41796875 C4.3028125 21.70796875 3.9728125 25.99796875 3.6328125 30.41796875 C-0.3671875 31.41796875 -0.3671875 31.41796875 -2.6171875 30.48046875 C-3.4834375 29.95453125 -3.4834375 29.95453125 -4.3671875 29.41796875 C-4.4250179 24.95968949 -4.46072605 20.50150595 -4.4921875 16.04296875 C-4.50894531 14.77195312 -4.52570313 13.5009375 -4.54296875 12.19140625 C-4.54941406 10.9796875 -4.55585938 9.76796875 -4.5625 8.51953125 C-4.57821045 6.83851318 -4.57821045 6.83851318 -4.59423828 5.12353516 C-4.29771599 1.59013724 -3.51092472 0.61991575 0 0 Z " fill="#284060" transform="translate(244.3671875,75.58203125)"/>
<path d="M0 0 C3.8333141 2.52650247 6.27002936 4.53638923 7.25 9.18359375 C7.78377742 13.67399633 7.71827578 17.38609644 6.75 21.8125 C7.41 22.4725 8.07 23.1325 8.75 23.8125 C8.375 26.4375 8.375 26.4375 7.75 28.8125 C4.46303767 29.61203138 3.03976808 29.90908936 -0.25 28.8125 C-1.67294252 28.97244315 -3.09033397 29.18612599 -4.5 29.4375 C-9.19900429 30.01818996 -12.10026736 29.2535192 -16.25 26.8125 C-21.00174257 21.68561986 -21.55511212 18.39529746 -21.45703125 11.57421875 C-21.18268742 7.91457556 -20.47097338 5.7499164 -18.25 2.8125 C-12.21949264 -1.68081921 -7.26856645 -2.65582236 0 0 Z M-12.25 7.8125 C-13.41343227 10.13936453 -13.44895988 11.65971413 -13.5 14.25 C-13.52578125 15.03246094 -13.5515625 15.81492187 -13.578125 16.62109375 C-13.41552671 18.8829493 -13.41552671 18.8829493 -11.921875 20.59765625 C-10.18994981 22.10641724 -10.18994981 22.10641724 -7.25 21.8125 C-6.775625 21.173125 -6.30125 20.53375 -5.8125 19.875 C-4.02509389 17.51562394 -3.11332753 17.20744173 -0.25 16.8125 C-0.02724319 13.54540013 0.07663401 11.41677292 -1.5 8.5 C-5.15035505 4.98001477 -7.90917575 5.58342809 -12.25 7.8125 Z " fill="#21395A" transform="translate(473.25,77.1875)"/>
<path d="M0 0 C7.19230156 0.12514752 11.46527401 0.5382798 16.75 5.6875 C19.23865226 11.46117324 19.78881387 18.43087476 17.51171875 24.41796875 C15.31006954 27.86070207 12.73772067 29.9648852 8.75 30.9375 C-3.18692628 32.23971014 -3.18692628 32.23971014 -8.6875 29.3125 C-8.7453304 24.85422074 -8.78103855 20.3960372 -8.8125 15.9375 C-8.82925781 14.66648437 -8.84601563 13.39546875 -8.86328125 12.0859375 C-8.86972656 10.87421875 -8.87617188 9.6625 -8.8828125 8.4140625 C-8.89852295 6.73304443 -8.89852295 6.73304443 -8.91455078 5.01806641 C-8.43880614 -0.65096814 -4.79396871 0.01528364 0 0 Z M0.3125 8.3125 C-0.60490621 11.43604971 -0.82210306 14.24936438 -0.8125 17.5 C-0.81507813 18.38042969 -0.81765625 19.26085937 -0.8203125 20.16796875 C-0.92615033 22.29453191 -0.92615033 22.29453191 0.3125 23.3125 C5.90863999 23.16148631 5.90863999 23.16148631 10.3125 20.3125 C10.66889561 18.20832032 10.66889561 18.20832032 10.625 15.875 C10.64175781 15.09253906 10.65851563 14.31007813 10.67578125 13.50390625 C10.22473873 10.78310135 9.53906877 9.90871597 7.3125 8.3125 C3.68714024 8.0621423 3.68714024 8.0621423 0.3125 8.3125 Z " fill="#314665" transform="translate(284.6875,75.6875)"/>
<path d="M0 0 C3.39364591 0.36876622 4.1098571 1.29634847 6.22265625 3.9140625 C6.81304687 4.63851562 7.4034375 5.36296875 8.01171875 6.109375 C10.02507226 8.77158177 11.89117243 11.45868839 13.66015625 14.2890625 C13.75103516 13.02449219 13.75103516 13.02449219 13.84375 11.734375 C13.92753906 10.63867188 14.01132812 9.54296875 14.09765625 8.4140625 C14.17886719 7.32351562 14.26007813 6.23296875 14.34375 5.109375 C14.66015625 2.2890625 14.66015625 2.2890625 15.66015625 0.2890625 C17.65970371 0.24651894 19.66057261 0.24825467 21.66015625 0.2890625 C22.66015625 1.2890625 22.66015625 1.2890625 22.77368164 4.06469727 C22.76844482 5.27440186 22.76320801 6.48410645 22.7578125 7.73046875 C22.75458984 9.03564453 22.75136719 10.34082031 22.74804688 11.68554688 C22.73969026 13.0742194 22.7312253 14.46289127 22.72265625 15.8515625 C22.71764291 17.24413906 22.71307972 18.63671731 22.70898438 20.02929688 C22.69715059 23.4492612 22.68066505 26.86914094 22.66015625 30.2890625 C16.15951559 30.63701239 16.15951559 30.63701239 13.94750977 29.09570312 C13.56522217 28.55107422 13.18293457 28.00644531 12.7890625 27.4453125 C12.36044922 26.85878906 11.93183594 26.27226563 11.49023438 25.66796875 C11.07193359 25.04792969 10.65363281 24.42789063 10.22265625 23.7890625 C9.77728516 23.16902344 9.33191406 22.54898438 8.87304688 21.91015625 C7.78148602 20.38431849 6.71794707 18.83850257 5.66015625 17.2890625 C5.33015625 21.2490625 5.00015625 25.2090625 4.66015625 29.2890625 C-0.33984375 31.2890625 -0.33984375 31.2890625 -3.33984375 30.2890625 C-3.36450121 26.1773369 -3.38268334 22.06563972 -3.39477539 17.95385742 C-3.39981455 16.55411022 -3.40664591 15.1543683 -3.4152832 13.75463867 C-3.42736695 11.74660473 -3.43254182 9.73853293 -3.4375 7.73046875 C-3.44273682 6.52076416 -3.44797363 5.31105957 -3.45336914 4.06469727 C-3.30381384 0.40815062 -3.30381384 0.40815062 0 0 Z " fill="#1B3456" transform="translate(334.33984375,75.7109375)"/>
<path d="M0 0 C2.37531394 -0.0543965 4.74935883 -0.09385864 7.125 -0.125 C7.79015625 -0.14175781 8.4553125 -0.15851563 9.140625 -0.17578125 C14.27729024 -0.22614071 18.62620133 0.26356376 22.84765625 3.3515625 C25.08165096 6.54731087 24.61788737 10.28617173 24 14 C22 17.0625 22 17.0625 20 19 C20.433125 19.62648438 20.86625 20.25296875 21.3125 20.8984375 C21.869375 21.71570313 22.42625 22.53296875 23 23.375 C23.556875 24.18710938 24.11375 24.99921875 24.6875 25.8359375 C26 28 26 28 26 30 C22.84304354 30.56825216 20.13240654 30.77412993 17 30 C15.01873238 27.86333884 13.74609959 25.73586409 12.38671875 23.1640625 C10.98100895 20.56400906 10.98100895 20.56400906 7 19 C7 22.63 7 26.26 7 30 C4.66705225 30.04241723 2.33297433 30.04092937 0 30 C-1.79829077 28.20170923 -1.13035658 25.49022841 -1.1328125 23.06640625 C-1.13410156 21.86048828 -1.13539063 20.65457031 -1.13671875 19.41210938 C-1.13285156 18.14173828 -1.12898437 16.87136719 -1.125 15.5625 C-1.12886719 14.29599609 -1.13273438 13.02949219 -1.13671875 11.72460938 C-1.13542969 10.51740234 -1.13414062 9.31019531 -1.1328125 8.06640625 C-1.13168457 6.95209229 -1.13055664 5.83777832 -1.12939453 4.68969727 C-1 2 -1 2 0 0 Z M7 8 C7 9.32 7 10.64 7 12 C9.97 12 12.94 12 16 12 C16 10.68 16 9.36 16 8 C13.03 8 10.06 8 7 8 Z " fill="#425876" transform="translate(560,76)"/>
<path d="M0 0 C2.3125 2.0625 2.3125 2.0625 4 4 C2.99307652 6.84827259 2.34094289 7.82781153 -0.3996582 9.21191406 C-1.41890381 9.55963867 -2.43814941 9.90736328 -3.48828125 10.265625 C-9.02722576 12.25814987 -14.44871229 14.40648098 -19.85546875 16.734375 C-20.6162674 17.06078979 -21.37706604 17.38720459 -22.16091919 17.72351074 C-24.5040157 18.73025597 -26.8457465 19.74013544 -29.1875 20.75 C-30.79743505 21.4416181 -32.40746057 22.13302563 -34.01757812 22.82421875 C-35.54695674 23.4815807 -37.07625666 24.13912575 -38.60546875 24.796875 C-39.31994675 25.10413513 -40.03442474 25.41139526 -40.77055359 25.72796631 C-44.41649873 27.29609338 -44.41649873 27.29609338 -48 29 C-50.3329866 29.04022391 -52.66706666 29.04320247 -55 29 C-57.125 24.375 -57.125 24.375 -56 21 C-54.14013672 19.90014648 -54.14013672 19.90014648 -51.6796875 18.87109375 C-50.30369385 18.28521484 -50.30369385 18.28521484 -48.89990234 17.6875 C-47.90168457 17.275 -46.9034668 16.8625 -45.875 16.4375 C-43.78110445 15.55112501 -41.68735892 14.66439556 -39.59375 13.77734375 C-38.50964844 13.32214355 -37.42554687 12.86694336 -36.30859375 12.39794922 C-30.97706577 10.14526849 -25.67768759 7.8195517 -20.375 5.5 C-18.48742598 4.67605896 -16.59943421 3.85307399 -14.7109375 3.03125 C-13.52443604 2.51401367 -13.52443604 2.51401367 -12.31396484 1.98632812 C-11.55035645 1.66083984 -10.78674805 1.33535156 -10 1 C-9.13068848 0.62552734 -8.26137695 0.25105469 -7.36572266 -0.13476562 C-4.3926071 -1.22214659 -2.96801219 -1.06544027 0 0 Z " fill="#7ABDB7" transform="translate(126,41)"/>
<path d="M0 0 C2 2 2 2 2.125 5.125 C2.08375 6.07375 2.0425 7.0225 2 8 C-4.54952234 11.35696729 -11.15713992 14.45235958 -17.9375 17.3125 C-19.76956006 18.08717144 -21.60159063 18.86191265 -23.43359375 19.63671875 C-24.35382324 20.02520996 -25.27405273 20.41370117 -26.22216797 20.81396484 C-28.96246426 21.98397358 -31.68734986 23.1844503 -34.41015625 24.39453125 C-35.26681885 24.76989014 -36.12348145 25.14524902 -37.00610352 25.53198242 C-38.63217213 26.24465097 -40.25402797 26.96703411 -41.87084961 27.70043945 C-48.68091401 30.65258928 -48.68091401 30.65258928 -53 29 C-55.3125 27.4375 -55.3125 27.4375 -57 26 C-56.79077148 24.15063477 -56.79077148 24.15063477 -56 22 C-54.00415039 20.71069336 -54.00415039 20.71069336 -51.34765625 19.58984375 C-50.35540039 19.16227783 -49.36314453 18.73471191 -48.34082031 18.29418945 C-47.25897461 17.84648193 -46.17712891 17.39877441 -45.0625 16.9375 C-43.95616211 16.46723389 -42.84982422 15.99696777 -41.70996094 15.51245117 C-39.3581688 14.5143453 -37.00374545 13.5224206 -34.64697266 12.53613281 C-30.9951264 10.9979472 -27.36156142 9.42242759 -23.73046875 7.8359375 C-21.40390776 6.82752048 -19.07709252 5.81968983 -16.75 4.8125 C-15.65051025 4.33095459 -14.55102051 3.84940918 -13.41821289 3.35327148 C-12.38817139 2.91313721 -11.35812988 2.47300293 -10.296875 2.01953125 C-8.94094238 1.43328979 -8.94094238 1.43328979 -7.55761719 0.83520508 C-4.83589578 -0.05358921 -2.84217107 -0.31125948 0 0 Z " fill="#F58436" transform="translate(96,120)"/>
<path d="M0 0 C2.24658203 -0.34057617 2.24658203 -0.34057617 5.0078125 -0.29296875 C5.99394531 -0.28330078 6.98007813 -0.27363281 7.99609375 -0.26367188 C9.02863281 -0.23853516 10.06117188 -0.21339844 11.125 -0.1875 C12.68541016 -0.16719727 12.68541016 -0.16719727 14.27734375 -0.14648438 C16.85207627 -0.11105228 19.4257833 -0.06165221 22 0 C22.625 2.875 22.625 2.875 23 6 C21 8 21 8 17.7421875 8.1953125 C16.46601563 8.17210938 15.18984375 8.14890625 13.875 8.125 C11.95300781 8.09792969 11.95300781 8.09792969 9.9921875 8.0703125 C8.51105469 8.03550781 8.51105469 8.03550781 7 8 C7 8.99 7 9.98 7 11 C7.63808594 10.98839844 8.27617187 10.97679688 8.93359375 10.96484375 C9.75988281 10.95582031 10.58617187 10.94679688 11.4375 10.9375 C12.26121094 10.92589844 13.08492187 10.91429688 13.93359375 10.90234375 C16 11 16 11 17 12 C17.04080783 13.99958364 17.04254356 16.00045254 17 18 C13.7 18.66 10.4 19.32 7 20 C7 20.66 7 21.32 7 22 C11.95 22.33 16.9 22.66 22 23 C23 28 23 28 22 30 C14.39801963 31.67243568 6.6830946 30.65026191 -1 30 C-1.69703653 23.31591759 -2.12189904 16.65585819 -2.1875 9.9375 C-2.20167969 8.68839844 -2.21585938 7.43929687 -2.23046875 6.15234375 C-2 3 -2 3 0 0 Z " fill="#2A4261" transform="translate(209,76)"/>
<path d="M0 0 C2.13891602 -0.35644531 2.13891602 -0.35644531 4.75390625 -0.328125 C6.15866211 -0.32039063 6.15866211 -0.32039063 7.59179688 -0.3125 C8.57212891 -0.291875 9.55246094 -0.27125 10.5625 -0.25 C12.03879883 -0.24226563 12.03879883 -0.24226563 13.54492188 -0.234375 C20.84613458 -0.15386542 20.84613458 -0.15386542 22 1 C22 3.31 22 5.62 22 8 C16.72 8 11.44 8 6 8 C6 8.99 6 9.98 6 11 C6.71027344 10.98839844 7.42054688 10.97679688 8.15234375 10.96484375 C9.07144531 10.95582031 9.99054687 10.94679688 10.9375 10.9375 C11.85402344 10.92589844 12.77054688 10.91429688 13.71484375 10.90234375 C16 11 16 11 17 12 C17.04080783 13.99958364 17.04254356 16.00045254 17 18 C13.56484998 18.62457273 10.50935186 19 7 19 C6.67 20.32 6.34 21.64 6 23 C11.28 23 16.56 23 22 23 C22 25.31 22 27.62 22 30 C14.41 30 6.82 30 -1 30 C-2.62557283 25.12328151 -2.18452437 20.10618597 -2.1875 15 C-2.19974609 13.89398438 -2.21199219 12.78796875 -2.22460938 11.6484375 C-2.22654297 10.58882812 -2.22847656 9.52921875 -2.23046875 8.4375 C-2.23457764 7.46683594 -2.23868652 6.49617188 -2.24291992 5.49609375 C-2 3 -2 3 0 0 Z " fill="#233B5C" transform="translate(595,76)"/>
<path d="M0 0 C3.5625 1.75 3.5625 1.75 6 4 C6 5.32 6 6.64 6 8 C3 10 3 10 0.30078125 9.7578125 C-0.68535156 9.54898438 -1.67148437 9.34015625 -2.6875 9.125 C-3.68136719 8.92132813 -4.67523438 8.71765625 -5.69921875 8.5078125 C-6.83810547 8.25644531 -6.83810547 8.25644531 -8 8 C-8 8.66 -8 9.32 -8 10 C-7.41992188 10.09796875 -6.83984375 10.1959375 -6.2421875 10.296875 C-1.08664586 11.28374436 3.08674168 12.28240459 7 16 C8.21955553 19.52799992 8.38775232 22.77211766 7.25 26.375 C5.46520614 28.69523202 3.63957818 29.84890959 0.80078125 30.51953125 C-5.39370688 31.24886659 -9.38974478 30.80512761 -15 28 C-17 25 -17 25 -16.625 22.3125 C-16.41875 21.549375 -16.2125 20.78625 -16 20 C-13.75 19.3125 -13.75 19.3125 -11 19 C-9.66150329 19.99307821 -8.32848691 20.99357052 -7 22 C-3.83267579 22.25086724 -3.83267579 22.25086724 -1 22 C-3.09424232 19.90575768 -4.07124236 19.5418499 -6.8125 18.6875 C-10.85694076 17.21411539 -13.37904482 15.52190853 -16 12 C-16.625 9 -16.625 9 -16 6 C-11.10835266 0.20725973 -7.35460898 -0.8993073 0 0 Z " fill="#2D4563" transform="translate(436,76)"/>
<path d="M0 0 C3 0.125 3 0.125 4 1.125 C4.08685603 2.68672745 4.10702219 4.25229344 4.09765625 5.81640625 C4.09443359 6.76064453 4.09121094 7.70488281 4.08789062 8.67773438 C4.07951172 9.67095703 4.07113281 10.66417969 4.0625 11.6875 C4.05798828 12.68458984 4.05347656 13.68167969 4.04882812 14.70898438 C4.03700007 17.18104849 4.02051849 19.65299518 4 22.125 C6.64 22.125 9.28 22.125 12 22.125 C12.02505615 21.49408447 12.0501123 20.86316895 12.07592773 20.21313477 C12.19154137 17.37103175 12.31442316 14.52928917 12.4375 11.6875 C12.47681641 10.69427734 12.51613281 9.70105469 12.55664062 8.67773438 C12.59853516 7.73349609 12.64042969 6.78925781 12.68359375 5.81640625 C12.72025146 4.94185791 12.75690918 4.06730957 12.79467773 3.16625977 C13 1.125 13 1.125 14 0.125 C17 0 17 0 20 0.125 C22.40723994 2.53223994 21.23364138 8.64417179 21.25 11.875 C21.270625 12.87789062 21.29125 13.88078125 21.3125 14.9140625 C21.36225876 24.29358885 21.36225876 24.29358885 18 28.125 C13.22773783 30.9883573 9.58900986 31.6131346 4.0859375 30.77734375 C0.79553929 29.74832408 -0.92099569 27.78872427 -3 25.125 C-4.24497833 22.63504335 -4.12934372 20.93505089 -4.1328125 18.15234375 C-4.13410156 17.17072266 -4.13539063 16.18910156 -4.13671875 15.17773438 C-4.13285156 14.14970703 -4.12898438 13.12167969 -4.125 12.0625 C-4.12886719 11.03060547 -4.13273437 9.99871094 -4.13671875 8.93554688 C-4.13542969 7.95521484 -4.13414062 6.97488281 -4.1328125 5.96484375 C-4.13112061 4.60927368 -4.13112061 4.60927368 -4.12939453 3.22631836 C-3.92301435 -0.12521788 -3.42512242 0.14271343 0 0 Z " fill="#183256" transform="translate(495,75.875)"/>
<path d="M0 0 C2.33944736 0.28730055 4.6739143 0.61936779 7 1 C7.23187012 1.61520508 7.46374023 2.23041016 7.70263672 2.86425781 C8.7578918 5.66034098 9.81641064 8.45517757 10.875 11.25 C11.23980469 12.21808594 11.60460937 13.18617187 11.98046875 14.18359375 C12.33496094 15.11816406 12.68945312 16.05273438 13.0546875 17.015625 C13.37937012 17.87446289 13.70405273 18.73330078 14.03857422 19.61816406 C14.94182085 21.98666995 14.94182085 21.98666995 16.12158203 24.06152344 C17 26 17 26 17 30 C14.36 30 11.72 30 9 30 C8.34 27.69 7.68 25.38 7 23 C4.03 23 1.06 23 -2 23 C-2.144375 23.969375 -2.28875 24.93875 -2.4375 25.9375 C-3 29 -3 29 -4 30 C-6.33297433 30.04092937 -8.66705225 30.04241723 -11 30 C-12.18274862 26.45175414 -11.76346224 25.68319081 -10.453125 22.2890625 C-10.1025 21.37382813 -9.751875 20.45859375 -9.390625 19.515625 C-9.01421875 18.56171875 -8.6378125 17.6078125 -8.25 16.625 C-7.8890625 15.67882812 -7.528125 14.73265625 -7.15625 13.7578125 C-2.97727924 2.97727924 -2.97727924 2.97727924 0 0 Z M2 12 C2 12.99 2 13.98 2 15 C2.66 14.67 3.32 14.34 4 14 C3.34 13.34 2.68 12.68 2 12 Z " fill="#2B4364" transform="translate(535,76)"/>
<path d="M0 0 C1.2263757 2.45275141 1.11415314 4.0505781 1.09765625 6.7890625 C1.09443359 7.73007813 1.09121094 8.67109375 1.08789062 9.640625 C1.07951172 10.62546875 1.07113281 11.6103125 1.0625 12.625 C1.05798828 13.61757812 1.05347656 14.61015625 1.04882812 15.6328125 C1.03702161 18.08856722 1.01908582 20.54429106 1 23 C6.61 23 12.22 23 18 23 C19 28 19 28 18 30 C9.99914286 32.04466349 1.09127077 30.66201306 -7 30 C-7 20.43 -7 10.86 -7 1 C-4.53721199 -0.231394 -2.7204945 -0.07159196 0 0 Z " fill="#445775" transform="translate(181,76)"/>
<path d="M0 0 C0.99 0.33 1.98 0.66 3 1 C3.33 3.97 3.66 6.94 4 10 C5.64574566 10.02688151 7.29161413 10.04634123 8.9375 10.0625 C10.31228516 10.07990234 10.31228516 10.07990234 11.71484375 10.09765625 C13.96593327 10.25949049 13.96593327 10.25949049 15 9 C15.04063832 7.33382885 15.042721 5.66611905 15 4 C11.46588679 1.87953208 8.05606165 1.46800711 4 1 C4 0.67 4 0.34 4 0 C6.10353495 -0.0810206 8.20795952 -0.13919907 10.3125 -0.1875 C11.48425781 -0.22230469 12.65601563 -0.25710937 13.86328125 -0.29296875 C17 0 17 0 18.86328125 1.19921875 C20.316843 3.50194028 20.60932125 5.29490732 20.875 8 C21.02582031 9.299375 21.02582031 9.299375 21.1796875 10.625 C21 13 21 13 19.5078125 14.8125 C19.01023437 15.204375 18.51265625 15.59625 18 16 C18.433125 16.62648438 18.86625 17.25296875 19.3125 17.8984375 C19.869375 18.71570313 20.42625 19.53296875 21 20.375 C21.556875 21.18710938 22.11375 21.99921875 22.6875 22.8359375 C24 25 24 25 24 27 C21.36 27 18.72 27 16 27 C14.74335022 24.09399739 14 22.20395416 14 19 C13.34 19 12.68 19 12 19 C12 17.35 12 15.7 12 14 C7.65815798 14.18464366 7.65815798 14.18464366 4 16 C3.76712992 17.68183948 3.58735834 19.3712416 3.4375 21.0625 C3.31181641 22.44115234 3.31181641 22.44115234 3.18359375 23.84765625 C3.12300781 24.55792969 3.06242188 25.26820312 3 26 C1.68 26 0.36 26 -1 26 C-1.0269501 23.06243881 -1.04681474 20.12512445 -1.0625 17.1875 C-1.07087891 16.35412109 -1.07925781 15.52074219 -1.08789062 14.66210938 C-1.09111328 13.85966797 -1.09433594 13.05722656 -1.09765625 12.23046875 C-1.10289307 11.49207764 -1.10812988 10.75368652 -1.11352539 9.99291992 C-1 8 -1 8 0 5 C0.03874921 3.33378384 0.0450286 1.66605828 0 0 Z " fill="#173255" transform="translate(562,79)"/>
<path d="M0 0 C1.2375 0.1546875 1.2375 0.1546875 2.5 0.3125 C5.75553973 5.1958096 4.8278336 10.63716512 4.8125 16.375 C4.82861328 17.58478516 4.84472656 18.79457031 4.86132812 20.04101562 C4.86229492 21.77061523 4.86229492 21.77061523 4.86328125 23.53515625 C4.86626221 24.59484619 4.86924316 25.65453613 4.87231445 26.74633789 C4.74945068 27.59317139 4.62658691 28.44000488 4.5 29.3125 C1.5 31.3125 1.5 31.3125 -1.1875 30.9375 C-2.3321875 30.628125 -2.3321875 30.628125 -3.5 30.3125 C-5.06093269 25.04503339 -4.68431508 19.63371691 -4.6875 14.1875 C-4.70586914 12.52267578 -4.70586914 12.52267578 -4.72460938 10.82421875 C-4.72654297 9.76589844 -4.72847656 8.70757812 -4.73046875 7.6171875 C-4.73457764 6.64765137 -4.73868652 5.67811523 -4.74291992 4.67919922 C-4.39162857 1.25666819 -3.37941423 0.42242678 0 0 Z " fill="#1C3658" transform="translate(316.5,75.6875)"/>
<path d="M0 0 C13 0 13 0 19 2 C21.42945561 5.64418341 21.0828781 6.92923364 20.625 11.1875 C20.45871094 12.81751953 20.45871094 12.81751953 20.2890625 14.48046875 C20.14597656 15.72763672 20.14597656 15.72763672 20 17 C19.67 17 19.34 17 19 17 C18.87625 15.4221875 18.87625 15.4221875 18.75 13.8125 C17.91240817 9.55474153 17.34820754 7.76227122 14 5 C10.87843688 4.58020358 8.17326789 4.76667148 5 5 C5 10.61 5 16.22 5 22 C8.3 22.33 11.6 22.66 15 23 C15 22.34 15 21.68 15 21 C15.66 21.33 16.32 21.66 17 22 C17.33 22.99 17.66 23.98 18 25 C13 27 13 27 0 27 C0 18.09 0 9.18 0 0 Z " fill="#183458" transform="translate(279,78)"/>
<path d="M0 0 C0 0.66 0 1.32 0 2 C-3.96 2.66 -7.92 3.32 -12 4 C-11.67 4.66 -11.34 5.32 -11 6 C-9.80375 5.773125 -8.6075 5.54625 -7.375 5.3125 C-3.1290804 4.75342874 -0.66446727 5.70970796 3 8 C3 8.66 3 9.32 3 10 C3.66 10 4.32 10 5 10 C5.33 9.34 5.66 8.68 6 8 C5.67 11.96 5.34 15.92 5 20 C3.68 19.67 2.36 19.34 1 19 C1.66 19 2.32 19 3 19 C2.57344207 15.90586334 2.04422377 12.94966302 1 10 C-1.21599293 8.18007588 -1.21599293 8.18007588 -4 8 C-5.67319 8.29887142 -7.34158915 8.62776038 -9 9 C-9.28328381 12.70787035 -9.46346554 16.30318076 -9 20 C-6.69682467 22.30487721 -6.69682467 22.30487721 -4 23 C-3.71125 22.360625 -3.4225 21.72125 -3.125 21.0625 C-2 19 -2 19 0 18 C-0.33 20.31 -0.66 22.62 -1 25 C-7.47630923 25.36658354 -7.47630923 25.36658354 -9.875 23.6875 C-12.14564011 20.28153983 -12.10912935 17.27599491 -12.0625 13.3125 C-12.05347656 12.31863281 -12.04445313 11.32476562 -12.03515625 10.30078125 C-12.02355469 9.54152344 -12.01195312 8.78226563 -12 8 C-12.66 8 -13.32 8 -14 8 C-14.22384382 9.72722728 -14.42839969 11.45696007 -14.625 13.1875 C-14.74101562 14.15042969 -14.85703125 15.11335938 -14.9765625 16.10546875 C-15.00225562 19.27856938 -14.33187631 21.14940142 -13 24 C-12.67 24.99 -12.34 25.98 -12 27 C-10.02 26.67 -8.04 26.34 -6 26 C-6 26.66 -6 27.32 -6 28 C-4.35 28.33 -2.7 28.66 -1 29 C-1 29.66 -1 30.32 -1 31 C-7.7039198 30.8361264 -11.31931425 29.90901189 -16 25 C-18.9215917 20.30744347 -18.48116004 15.34708501 -18 10 C-16.66088744 5.66757701 -15.45830788 4.3414843 -11.8125 1.625 C-7.81132172 -0.44398535 -4.43452945 -0.31119505 0 0 Z " fill="#354D6A" transform="translate(470,76)"/>
<path d="M0 0 C3.9650783 1.5659745 6.59988253 3.3998238 9 7 C8.625 9.1875 8.625 9.1875 8 11 C1.60743802 11.37603306 1.60743802 11.37603306 -1.625 9.375 C-3.94893241 7.6575204 -3.94893241 7.6575204 -6.625 8.6875 C-9.14965488 10.03979263 -9.14965488 10.03979263 -12 12 C-12.28888898 14.60196614 -12.28888898 14.60196614 -12.0625 17.5 C-11.91015625 20.46875 -11.91015625 20.46875 -12 23 C-12.66 23.66 -13.32 24.32 -14 25 C-16.54030459 22.45969541 -16.39901205 21.15306578 -16.6875 17.625 C-16.77386719 16.66851562 -16.86023438 15.71203125 -16.94921875 14.7265625 C-16.99567334 12.23230819 -16.7447637 10.36308483 -16 8 C-15.34 8 -14.68 8 -14 8 C-13.87625 7.38125 -13.7525 6.7625 -13.625 6.125 C-11.78308432 -0.13751332 -5.64957905 -0.85881879 0 0 Z " fill="#183256" transform="translate(385,76)"/>
<path d="M0 0 C5.62808287 1.12561657 5.62808287 1.12561657 7.67578125 4.08984375 C8.11083984 4.70923828 8.54589844 5.32863281 8.99414062 5.96679688 C9.42919922 6.61712891 9.86425781 7.26746094 10.3125 7.9375 C10.76689453 8.58396484 11.22128906 9.23042969 11.68945312 9.89648438 C15 14.69055451 15 14.69055451 15 17 C15.99 17.33 16.98 17.66 18 18 C17.67 19.98 17.34 21.96 17 24 C16.67 23.34 16.34 22.68 16 22 C15.34 22 14.68 22 14 22 C12.2734375 19.8828125 12.2734375 19.8828125 10.375 17.125 C9.74335938 16.22007813 9.11171875 15.31515625 8.4609375 14.3828125 C7 12 7 12 7 10 C5.68 10 4.36 10 3 10 C3.33 10.99 3.66 11.98 4 13 C4.22718496 15.56634861 4.41608184 18.11678107 4.5625 20.6875 C4.60568359 21.38939453 4.64886719 22.09128906 4.69335938 22.81445312 C4.7991736 24.54275206 4.90006581 26.2713511 5 28 C3.35 27.67 1.7 27.34 0 27 C0 18.09 0 9.18 0 0 Z " fill="#193356" transform="translate(333,78)"/>
<path d="M0 0 C0.625 1.875 0.625 1.875 1 4 C-1 6 -1 6 -4.2578125 6.1953125 C-5.53398437 6.17210938 -6.81015625 6.14890625 -8.125 6.125 C-10.04699219 6.09792969 -10.04699219 6.09792969 -12.0078125 6.0703125 C-13.48894531 6.03550781 -13.48894531 6.03550781 -15 6 C-15 6.99 -15 7.98 -15 9 C-14.36191406 8.98839844 -13.72382813 8.97679688 -13.06640625 8.96484375 C-11.82697266 8.95130859 -11.82697266 8.95130859 -10.5625 8.9375 C-9.73878906 8.92589844 -8.91507813 8.91429688 -8.06640625 8.90234375 C-6 9 -6 9 -5 10 C-4.95919217 11.99958364 -4.95745644 14.00045254 -5 16 C-8.3 16.66 -11.6 17.32 -15 18 C-15 18.66 -15 19.32 -15 20 C-10.05 20.33 -5.1 20.66 0 21 C1 26 1 26 0 28 C-6.46918786 29.31779753 -12.48034669 28.77900269 -19 28 C-19 27.34 -19 26.68 -19 26 C-13.06 25.67 -7.12 25.34 -1 25 C-1 24.34 -1 23.68 -1 23 C-2.05960938 23.02320312 -3.11921875 23.04640625 -4.2109375 23.0703125 C-5.5989513 23.08906944 -6.9869727 23.10726972 -8.375 23.125 C-9.42300781 23.15013672 -9.42300781 23.15013672 -10.4921875 23.17578125 C-12.32897486 23.19344267 -14.16601963 23.10303261 -16 23 C-18 21 -18 21 -18.125 17.875 C-18.08375 16.92625 -18.0425 15.9775 -18 15 C-14.37 15 -10.74 15 -7 15 C-7 13.68 -7 12.36 -7 11 C-10.3 11 -13.6 11 -17 11 C-17.04254356 9.00045254 -17.04080783 6.99958364 -17 5 C-16 4 -16 4 -12.62109375 3.90234375 C-11.22652923 3.90901631 -9.83198257 3.92097468 -8.4375 3.9375 C-7.72658203 3.94201172 -7.01566406 3.94652344 -6.28320312 3.95117188 C-4.52209987 3.96299136 -2.76103964 3.98092737 -1 4 C-0.67 2.68 -0.34 1.36 0 0 Z " fill="#485D7E" transform="translate(231,78)"/>
<path d="M0 0 C1.32 0 2.64 0 4 0 C4 7.26 4 14.52 4 22 C9.94 22.33 15.88 22.66 22 23 C22.33 24.65 22.66 26.3 23 28 C11.615 27.505 11.615 27.505 0 27 C0 18.09 0 9.18 0 0 Z " fill="#163256" transform="translate(176,78)"/>
<path d="M0 0 C3 0.125 3 0.125 4 1.125 C4.08685603 2.68672745 4.10702219 4.25229344 4.09765625 5.81640625 C4.09443359 6.76064453 4.09121094 7.70488281 4.08789062 8.67773438 C4.07951172 9.67095703 4.07113281 10.66417969 4.0625 11.6875 C4.05798828 12.68458984 4.05347656 13.68167969 4.04882812 14.70898438 C4.03700023 17.18101487 4.01906415 19.65301472 4 22.125 C7.3 22.125 10.6 22.125 14 22.125 C13.34 23.115 12.68 24.105 12 25.125 C8.29808399 25.604878 5.98155047 25.75451028 2.7890625 23.70703125 C0.05447435 19.76038765 0.57040947 16.05126115 0.75 11.375 C0.76804687 10.48683594 0.78609375 9.59867188 0.8046875 8.68359375 C0.85172626 6.49629152 0.91742991 4.31120184 1 2.125 C0.01 2.125 -0.98 2.125 -2 2.125 C-1.67 2.785 -1.34 3.445 -1 4.125 C-0.89507054 5.67203223 -0.84479471 7.22298739 -0.82421875 8.7734375 C-0.80037109 9.69640625 -0.77652344 10.619375 -0.75195312 11.5703125 C-0.70916108 13.51540533 -0.67781466 15.46078536 -0.65820312 17.40625 C-0.58887343 23.00793727 -0.58887343 23.00793727 2.04296875 27.7890625 C2.68878906 28.22992188 3.33460938 28.67078125 4 29.125 C1 29.125 1 29.125 -1.125 27.25 C-3.93883498 24.06098703 -4.1276171 22.32016436 -4.1328125 18.15234375 C-4.13410156 17.17072266 -4.13539063 16.18910156 -4.13671875 15.17773438 C-4.13285156 14.14970703 -4.12898438 13.12167969 -4.125 12.0625 C-4.12886719 11.03060547 -4.13273437 9.99871094 -4.13671875 8.93554688 C-4.13542969 7.95521484 -4.13414062 6.97488281 -4.1328125 5.96484375 C-4.13112061 4.60927368 -4.13112061 4.60927368 -4.12939453 3.22631836 C-3.92301435 -0.12521788 -3.42512242 0.14271343 0 0 Z " fill="#233E5E" transform="translate(495,75.875)"/>
<path d="M0 0 C0.66 0 1.32 0 2 0 C2.03738281 0.73605469 2.07476562 1.47210938 2.11328125 2.23046875 C2.35375698 9.75178862 2.35375698 9.75178862 6 16 C9.12635209 16.41746608 9.12635209 16.41746608 12 16 C12.66 14.02 13.32 12.04 14 10 C19.875 10.875 19.875 10.875 21 12 C21.04080783 13.99958364 21.04254356 16.00045254 21 18 C21.66 18 22.32 18 23 18 C23 18.99 23 19.98 23 21 C22.01 21 21.02 21 20 21 C20 20.34 20 19.68 20 19 C19.1028125 19.4640625 19.1028125 19.4640625 18.1875 19.9375 C13.96702386 21.98744555 11.54675339 21.90935068 7 21 C7 20.34 7 19.68 7 19 C6.236875 19.0825 5.47375 19.165 4.6875 19.25 C2 19 2 19 0.25 17.5625 C-2.17321698 12.59490518 -2.45984648 7.74741661 -1.0625 2.4375 C-0.711875 1.633125 -0.36125 0.82875 0 0 Z " fill="#163256" transform="translate(456,84)"/>
<path d="M0 0 C0.66 0 1.32 0 2 0 C2.67595315 1.41225926 3.34040059 2.83002905 4 4.25 C4.37125 5.03890625 4.7425 5.8278125 5.125 6.640625 C6 9 6 9 6 13 C3.36 13 0.72 13 -2 13 C-2.66 10.69 -3.32 8.38 -4 6 C-6.97 6 -9.94 6 -13 6 C-13.144375 6.969375 -13.28875 7.93875 -13.4375 8.9375 C-14 12 -14 12 -15 13 C-17.33297433 13.04092937 -19.66705225 13.04241723 -22 13 C-23.39195915 8.82412255 -21.82323219 6.86525224 -20 3 C-19.34 3 -18.68 3 -18 3 C-17.34 5.31 -16.68 7.62 -16 10 C-15.2884375 8.5459375 -15.2884375 8.5459375 -14.5625 7.0625 C-13 4 -13 4 -12 3 C-9.98035801 2.92755947 -7.95832876 2.91622812 -5.9375 2.9375 C-4.83277344 2.94652344 -3.72804688 2.95554687 -2.58984375 2.96484375 C-1.73519531 2.97644531 -0.88054688 2.98804687 0 3 C0 2.01 0 1.02 0 0 Z " fill="#384C68" transform="translate(546,93)"/>
<path d="M0 0 C0.598125 0.226875 1.19625 0.45375 1.8125 0.6875 C1.173125 0.955625 0.53375 1.22375 -0.125 1.5 C-2.51881686 2.57417752 -2.51881686 2.57417752 -3.1875 5.6875 C-3.8475 5.6875 -4.5075 5.6875 -5.1875 5.6875 C-5.39163361 11.42592251 -5.45891454 16.29289047 -3.1875 21.6875 C-1.90137324 20.62771067 -1.90137324 20.62771067 -2.08984375 18.18359375 C-2.10144531 17.17425781 -2.11304688 16.16492188 -2.125 15.125 C-2.13402344 14.11308594 -2.14304687 13.10117188 -2.15234375 12.05859375 C-2.16394531 11.27613281 -2.17554688 10.49367188 -2.1875 9.6875 C-1.1975 9.3575 -0.2075 9.0275 0.8125 8.6875 C0.791875 9.76 0.77125 10.8325 0.75 11.9375 C0.7982984 14.83540424 0.94405885 16.97362141 1.8125 19.6875 C5.81504456 19.77931134 5.81504456 19.77931134 9.8125 19.6875 C10.1425 19.3575 10.4725 19.0275 10.8125 18.6875 C8.5025 18.0275 6.1925 17.3675 3.8125 16.6875 C4.1425 14.3775 4.4725 12.0675 4.8125 9.6875 C7.1225 9.6875 9.4325 9.6875 11.8125 9.6875 C11.8125 10.3475 11.8125 11.0075 11.8125 11.6875 C9.8325 11.6875 7.8525 11.6875 5.8125 11.6875 C5.8125 13.0075 5.8125 14.3275 5.8125 15.6875 C8.1225 16.0175 10.4325 16.3475 12.8125 16.6875 C11.9375 21.5625 11.9375 21.5625 10.8125 22.6875 C8.96358054 22.92113881 7.10761969 23.10053635 5.25 23.25 C4.23808594 23.33378906 3.22617187 23.41757813 2.18359375 23.50390625 C1.40113281 23.56449219 0.61867188 23.62507813 -0.1875 23.6875 C0.1425 24.0175 0.4725 24.3475 0.8125 24.6875 C1.1425 25.3475 1.4725 26.0075 1.8125 26.6875 C-1.77170374 26.48837757 -2.96589715 25.92756976 -5.4375 23.25 C-7.90469089 18.22750425 -9.03003119 13.13480318 -7.67578125 7.59375 C-4.38426854 -0.62632408 -4.38426854 -0.62632408 0 0 Z " fill="#354B69" transform="translate(374.1875,78.3125)"/>
<path d="M0 0 C0.33 0 0.66 0 1 0 C1.33 1.98 1.66 3.96 2 6 C4.97 6.33 7.94 6.66 11 7 C11 8.32 11 9.64 11 11 C7.7 11 4.4 11 1 11 C1.66 13.31 2.32 15.62 3 18 C7.95 18.33 12.9 18.66 18 19 C17.34 19.33 16.68 19.66 16 20 C16 20.66 16 21.32 16 22 C10.06 22 4.12 22 -2 22 C-2.04125 19.48375 -2.0825 16.9675 -2.125 14.375 C-2.14320801 13.59431152 -2.16141602 12.81362305 -2.18017578 12.00927734 C-2.2147583 7.61506644 -1.65886053 4.14062038 0 0 Z " fill="#153155" transform="translate(598,82)"/>
<path d="M0 0 C0.66 0 1.32 0 2 0 C2.66 1.98 3.32 3.96 4 6 C4.66 6 5.32 6 6 6 C5.67 7.98 5.34 9.96 5 12 C1.0186217 13.3271261 -2.85045227 13.06915913 -7 13 C-8.32 15.31 -9.64 17.62 -11 20 C-13.62428456 15.6261924 -14.50293492 11.1031824 -13.3125 6.125 C-12 4 -12 4 -9.875 3.1875 C-9.25625 3.125625 -8.6375 3.06375 -8 3 C-7.67 5.31 -7.34 7.62 -7 10 C-5.02 10 -3.04 10 -1 10 C-1.20625 9.278125 -1.4125 8.55625 -1.625 7.8125 C-2.05952211 4.55358415 -1.41680669 2.91695496 0 0 Z " fill="#153257" transform="translate(541,84)"/>
<path d="M0 0 C1.99954746 -0.04254356 4.00041636 -0.04080783 6 0 C7 1 7 1 7.11352539 3.77563477 C7.10828857 4.98533936 7.10305176 6.19504395 7.09765625 7.44140625 C7.09443359 8.74658203 7.09121094 10.05175781 7.08789062 11.39648438 C7.07953401 12.7851569 7.07106905 14.17382877 7.0625 15.5625 C7.05748666 16.95507656 7.05292347 18.34765481 7.04882812 19.74023438 C7.03699434 23.1601987 7.0205088 26.58007844 7 30 C0.49935934 30.34794989 0.49935934 30.34794989 -1.71264648 28.80664062 C-2.28607788 27.98969727 -2.28607788 27.98969727 -2.87109375 27.15625 C-3.29970703 26.56972656 -3.72832031 25.98320313 -4.16992188 25.37890625 C-4.58822266 24.75886719 -5.00652344 24.13882813 -5.4375 23.5 C-5.88287109 22.87996094 -6.32824219 22.25992188 -6.78710938 21.62109375 C-7.87867023 20.09525599 -8.94220918 18.54944007 -10 17 C-10.33 20.96 -10.66 24.92 -11 29 C-11.66 29 -12.32 29 -13 29 C-13.33 23.39 -13.66 17.78 -14 12 C-12.68 12 -11.36 12 -10 12 C-8.078125 14.1171875 -8.078125 14.1171875 -6.25 16.875 C-5.63640625 17.77992187 -5.0228125 18.68484375 -4.390625 19.6171875 C-3 22 -3 22 -3 24 C-2.34 24 -1.68 24 -1 24 C-0.7525 24.639375 -0.505 25.27875 -0.25 25.9375 C0.96621634 28.49019039 0.96621634 28.49019039 5 29 C5 20.09 5 11.18 5 2 C2.525 1.505 2.525 1.505 0 1 C0 0.67 0 0.34 0 0 Z " fill="#415673" transform="translate(350,76)"/>
<path d="M0 0 C2.47269805 3.75483777 2.02384519 7.19001253 1.6875 11.5625 C1.0275 11.5625 0.3675 11.5625 -0.3125 11.5625 C-0.8075 6.6125 -0.8075 6.6125 -1.3125 1.5625 C-3.9525 1.5625 -6.5925 1.5625 -9.3125 1.5625 C-8.4875 1.954375 -7.6625 2.34625 -6.8125 2.75 C-4.3125 4.5625 -4.3125 4.5625 -3.875 7.125 C-4.3125 9.5625 -4.3125 9.5625 -6.3125 11.5625 C-8.66015625 11.79296875 -8.66015625 11.79296875 -11.375 11.75 C-12.27347656 11.74355469 -13.17195312 11.73710938 -14.09765625 11.73046875 C-16.3125 11.5625 -16.3125 11.5625 -17.3125 10.5625 C-17.59351946 8.24297431 -17.76032625 5.92364486 -17.93359375 3.59375 C-18.05863281 2.9234375 -18.18367187 2.253125 -18.3125 1.5625 C-18.9725 1.2325 -19.6325 0.9025 -20.3125 0.5625 C-19.9825 2.8725 -19.6525 5.1825 -19.3125 7.5625 C-20.3025 8.0575 -20.3025 8.0575 -21.3125 8.5625 C-21.3125 5.5925 -21.3125 2.6225 -21.3125 -0.4375 C-19.08350213 -0.60640918 -16.85429338 -0.77253687 -14.625 -0.9375 C-12.76294922 -1.07671875 -12.76294922 -1.07671875 -10.86328125 -1.21875 C-2.76334642 -1.71775589 -2.76334642 -1.71775589 0 0 Z M-15.3125 5.5625 C-15.3125 6.8825 -15.3125 8.2025 -15.3125 9.5625 C-12.3425 9.5625 -9.3725 9.5625 -6.3125 9.5625 C-6.3125 8.2425 -6.3125 6.9225 -6.3125 5.5625 C-9.2825 5.5625 -12.2525 5.5625 -15.3125 5.5625 Z " fill="#3A5271" transform="translate(582.3125,78.4375)"/>
<path d="M0 0 C0.66 0 1.32 0 2 0 C2.33 4.62 2.66 9.24 3 14 C3.99 14 4.98 14 6 14 C6.66 16.31 7.32 18.62 8 21 C12.95 21.33 17.9 21.66 23 22 C23 22.66 23 23.32 23 24 C19.81175432 25.59412284 16.37103338 25.10174735 12.875 25.0625 C12.12089844 25.05798828 11.36679688 25.05347656 10.58984375 25.04882812 C8.72652873 25.03703499 6.86325445 25.01909942 5 25 C5 25.66 5 26.32 5 27 C3.68 27 2.36 27 1 27 C0.05757182 17.96278689 -0.11157151 9.07448253 0 0 Z " fill="#30496A" transform="translate(207,79)"/>
<path d="M0 0 C3 0.125 3 0.125 4 1.125 C4.28052624 4.70043444 4.23184747 8.2898749 4.25 11.875 C4.270625 12.87789062 4.29125 13.88078125 4.3125 14.9140625 C4.36248584 24.33639269 4.36248584 24.33639269 1 28.125 C-3.0924622 30.32280377 -6.34031562 31.54860767 -11 31.125 C-11 30.465 -11 29.805 -11 29.125 C-9.741875 28.83625 -8.48375 28.5475 -7.1875 28.25 C-4.1460601 27.55196461 -2.69330122 26.92053415 0 25.125 C0.50904384 22.7092887 0.50904384 22.7092887 0.51171875 19.8984375 C0.54716797 18.8671875 0.58261719 17.8359375 0.61914062 16.7734375 C0.65297852 15.15308594 0.65297852 15.15308594 0.6875 13.5 C0.72166016 12.41203125 0.75582031 11.3240625 0.79101562 10.203125 C0.87368334 7.51051937 0.94277087 4.81824709 1 2.125 C0.01 2.125 -0.98 2.125 -2 2.125 C-2 8.065 -2 14.005 -2 20.125 C-2.33 20.125 -2.66 20.125 -3 20.125 C-3.19594676 16.97963232 -3.3803401 13.83369386 -3.5625 10.6875 C-3.61857422 9.78966797 -3.67464844 8.89183594 -3.73242188 7.96679688 C-3.78076172 7.11279297 -3.82910156 6.25878906 -3.87890625 5.37890625 C-3.94960327 4.19276733 -3.94960327 4.19276733 -4.02172852 2.98266602 C-3.98452839 -0.19773566 -3.19384596 0.13307691 0 0 Z " fill="#3A506F" transform="translate(512,75.875)"/>
<path d="M0 0 C3.39364591 0.36876622 4.1098571 1.29634847 6.22265625 3.9140625 C6.815625 4.63980469 7.40859375 5.36554688 8.01953125 6.11328125 C9.40548759 7.95132335 10.71586892 9.79917597 11.97265625 11.7265625 C13.40774025 14.37161961 13.40774025 14.37161961 15.66015625 15.2890625 C15.66015625 11.3290625 15.66015625 7.3690625 15.66015625 3.2890625 C15.99015625 3.2890625 16.32015625 3.2890625 16.66015625 3.2890625 C16.66015625 8.2390625 16.66015625 13.1890625 16.66015625 18.2890625 C11.00567131 16.87544126 9.37930717 12.935513 6.37109375 8.3046875 C3.52278921 4.00114429 3.52278921 4.00114429 -1.33984375 2.2890625 C-1.33984375 11.1990625 -1.33984375 20.1090625 -1.33984375 29.2890625 C-0.34984375 29.6190625 0.64015625 29.9490625 1.66015625 30.2890625 C1.00015625 30.6190625 0.34015625 30.9490625 -0.33984375 31.2890625 C-1.32984375 30.9590625 -2.31984375 30.6290625 -3.33984375 30.2890625 C-3.36450121 26.1773369 -3.38268334 22.06563972 -3.39477539 17.95385742 C-3.39981455 16.55411022 -3.40664591 15.1543683 -3.4152832 13.75463867 C-3.42736695 11.74660473 -3.43254182 9.73853293 -3.4375 7.73046875 C-3.44273682 6.52076416 -3.44797363 5.31105957 -3.45336914 4.06469727 C-3.30381384 0.40815062 -3.30381384 0.40815062 0 0 Z " fill="#445A77" transform="translate(334.33984375,75.7109375)"/>
<path d="M0 0 C0.99 0.66 1.98 1.32 3 2 C3.1875 5.125 3.1875 5.125 3 8 C3.66 8.33 4.32 8.66 5 9 C4.67 9.66 4.34 10.32 4 11 C2.35 11 0.7 11 -1 11 C-1 16.61 -1 22.22 -1 28 C-1.99 28 -2.98 28 -4 28 C-4 19.09 -4 10.18 -4 1 C-2.68 0.67 -1.36 0.34 0 0 Z " fill="#193456" transform="translate(247,77)"/>
<path d="M0 0 C3.0390625 0.0234375 3.0390625 0.0234375 6.625 0.375 C7.81351562 0.48585938 9.00203125 0.59671875 10.2265625 0.7109375 C11.14179688 0.80632812 12.05703125 0.90171875 13 1 C13 1.33 13 1.66 13 2 C9.04 2 5.08 2 1 2 C1 10.91 1 19.82 1 29 C4.63 29 8.26 29 12 29 C12 29.66 12 30.32 12 31 C10.41705218 31.05437607 8.83355744 31.09296271 7.25 31.125 C6.36828125 31.14820312 5.4865625 31.17140625 4.578125 31.1953125 C1.8598511 30.98938266 0.36903741 30.27258701 -2 29 C-2.0578304 24.54172074 -2.09353855 20.0835372 -2.125 15.625 C-2.14175781 14.35398437 -2.15851563 13.08296875 -2.17578125 11.7734375 C-2.18222656 10.56171875 -2.18867188 9.35 -2.1953125 8.1015625 C-2.21102295 6.42054443 -2.21102295 6.42054443 -2.22705078 4.70556641 C-2 2 -2 2 0 0 Z " fill="#546782" transform="translate(278,76)"/>
<path d="M0 0 C6.44619587 -0.45236462 9.68277455 0.27794218 15 4 C17 7 17 7 16.625 9.1875 C16.315625 10.0846875 16.315625 10.0846875 16 11 C9.58091286 11.37759336 9.58091286 11.37759336 6.5 9.375 C3.89582006 7.58778754 3.89582006 7.58778754 0.1875 8.8125 C-0.864375 9.204375 -1.91625 9.59625 -3 10 C-2 7 -2 7 0.06640625 5.83203125 C0.89011719 5.49558594 1.71382813 5.15914063 2.5625 4.8125 C3.80193359 4.29623047 3.80193359 4.29623047 5.06640625 3.76953125 C5.70449219 3.51558594 6.34257812 3.26164062 7 3 C4.69 2.67 2.38 2.34 0 2 C0 1.34 0 0.68 0 0 Z " fill="#2C4465" transform="translate(377,76)"/>
<path d="M0 0 C0.33 0.66 0.66 1.32 1 2 C-0.32 2.33 -1.64 2.66 -3 3 C2.13770781 6.06175084 7.69080983 5.32874494 13.5 5.3125 C15.18222656 5.33666992 15.18222656 5.33666992 16.8984375 5.36132812 C24.67125566 5.3658159 31.55950757 4.23265458 39 2 C39 2.66 39 3.32 39 4 C30.61356938 7.6690634 22.86907753 8.40966786 13.8125 8.4375 C12.29946289 8.45200195 12.29946289 8.45200195 10.75585938 8.46679688 C4.05221381 8.39226321 -1.69842633 7.27877543 -8 5 C-8 4.01 -8 3.02 -8 2 C-5.36 1.34 -2.72 0.68 0 0 Z " fill="#3E5471" transform="translate(70,154)"/>
<path d="M0 0 C0 4.95 0 9.9 0 15 C-5 13 -5 13 -7 10 C-6.125 7.3125 -6.125 7.3125 -5 5 C-7.31 4.67 -9.62 4.34 -12 4 C-12 2.68 -12 1.36 -12 0 C-7.33328651 -1.00001003 -4.96698865 -0.82783144 0 0 Z " fill="#143154" transform="translate(392,90)"/>
<path d="M0 0 C0.33 0 0.66 0 1 0 C1 1.65 1 3.3 1 5 C-4.28 5 -9.56 5 -15 5 C-15 5.99 -15 6.98 -15 8 C-14.28972656 7.98839844 -13.57945312 7.97679688 -12.84765625 7.96484375 C-11.92855469 7.95582031 -11.00945313 7.94679688 -10.0625 7.9375 C-9.14597656 7.92589844 -8.22945312 7.91429688 -7.28515625 7.90234375 C-5 8 -5 8 -4 9 C-3.95919217 10.99958364 -3.95745644 13.00045254 -4 15 C-7.43515002 15.62457273 -10.49064814 16 -14 16 C-14.33 17.65 -14.66 19.3 -15 21 C-15.66 20.67 -16.32 20.34 -17 20 C-17 18.02 -17 16.04 -17 14 C-13.7 14 -10.4 14 -7 14 C-7 12.68 -7 11.36 -7 10 C-7.63808594 10.01160156 -8.27617188 10.02320312 -8.93359375 10.03515625 C-10.17302734 10.04869141 -10.17302734 10.04869141 -11.4375 10.0625 C-12.67306641 10.07990234 -12.67306641 10.07990234 -13.93359375 10.09765625 C-16 10 -16 10 -17 9 C-17.04063832 7.33382885 -17.042721 5.66611905 -17 4 C-13.93466836 2.46733418 -10.73245728 2.89723529 -7.375 2.9375 C-6.31539062 2.94426758 -6.31539062 2.94426758 -5.234375 2.95117188 C-3.48954725 2.96296125 -1.744763 2.98089676 0 3 C0 2.01 0 1.02 0 0 Z " fill="#465974" transform="translate(616,79)"/>
<path d="M0 0 C2.10353495 -0.0810206 4.20795952 -0.13919907 6.3125 -0.1875 C7.48425781 -0.22230469 8.65601563 -0.25710937 9.86328125 -0.29296875 C13 0 13 0 14.86328125 1.19921875 C16.316843 3.50194028 16.60932125 5.29490732 16.875 8 C17.02582031 9.299375 17.02582031 9.299375 17.1796875 10.625 C17 13 17 13 15.5078125 14.8125 C15.01023437 15.204375 14.51265625 15.59625 14 16 C14.433125 16.62648438 14.86625 17.25296875 15.3125 17.8984375 C15.869375 18.71570313 16.42625 19.53296875 17 20.375 C17.556875 21.18710938 18.11375 21.99921875 18.6875 22.8359375 C20 25 20 25 20 27 C18.02 27 16.04 27 14 27 C14.99 26.67 15.98 26.34 17 26 C16.55527344 25.41992188 16.11054687 24.83984375 15.65234375 24.2421875 C10.95840234 17.76262373 10.95840234 17.76262373 11.1875 13.5625 C11.455625 12.716875 11.72375 11.87125 12 11 C11.67 10.34 11.34 9.68 11 9 C10.9603287 7.33380554 10.95615553 5.66608987 11 4 C7.46588679 1.87953208 4.05606165 1.46800711 0 1 C0 0.67 0 0.34 0 0 Z " fill="#173158" transform="translate(566,79)"/>
<path d="M0 0 C3.92554966 0.0563476 4.59129357 0.30794373 7.8125 2.9375 C10.43266344 6.68828191 10.13277004 9.99736756 9.75 14.4375 C9.09 14.4375 8.43 14.4375 7.75 14.4375 C7.75 15.4275 7.75 16.4175 7.75 17.4375 C7.09 17.4375 6.43 17.4375 5.75 17.4375 C5.75 18.0975 5.75 18.7575 5.75 19.4375 C4.10425434 19.46438151 2.45838587 19.48384123 0.8125 19.5 C-0.10402344 19.51160156 -1.02054687 19.52320312 -1.96484375 19.53515625 C-4.25 19.4375 -4.25 19.4375 -5.25 18.4375 C-5.34986975 15.59414952 -5.38877881 12.78052837 -5.375 9.9375 C-5.37886719 9.13957031 -5.38273437 8.34164062 -5.38671875 7.51953125 C-5.37445068 0.29363721 -5.37445068 0.29363721 0 0 Z M-3.25 2.4375 C-4.16740621 5.56104971 -4.38460306 8.37436438 -4.375 11.625 C-4.37757813 12.50542969 -4.38015625 13.38585937 -4.3828125 14.29296875 C-4.48865033 16.41953191 -4.48865033 16.41953191 -3.25 17.4375 C2.34613999 17.28648631 2.34613999 17.28648631 6.75 14.4375 C7.10639561 12.33332032 7.10639561 12.33332032 7.0625 10 C7.07925781 9.21753906 7.09601563 8.43507813 7.11328125 7.62890625 C6.66223873 4.90810135 5.97656877 4.03371597 3.75 2.4375 C0.12464024 2.1871423 0.12464024 2.1871423 -3.25 2.4375 Z " fill="#2F4765" transform="translate(288.25,81.5625)"/>
<path d="M0 0 C1.2375 0.1546875 1.2375 0.1546875 2.5 0.3125 C5.75553973 5.1958096 4.8278336 10.63716512 4.8125 16.375 C4.82861328 17.58478516 4.84472656 18.79457031 4.86132812 20.04101562 C4.86229492 21.77061523 4.86229492 21.77061523 4.86328125 23.53515625 C4.86626221 24.59484619 4.86924316 25.65453613 4.87231445 26.74633789 C4.74945068 27.59317139 4.62658691 28.44000488 4.5 29.3125 C1.5 31.3125 1.5 31.3125 -1.1875 30.9375 C-2.3321875 30.628125 -2.3321875 30.628125 -3.5 30.3125 C-3.83 28.9925 -4.16 27.6725 -4.5 26.3125 C-3.51 26.3125 -2.52 26.3125 -1.5 26.3125 C-1.5 27.3025 -1.5 28.2925 -1.5 29.3125 C-0.18 29.3125 1.14 29.3125 2.5 29.3125 C2.5 20.7325 2.5 12.1525 2.5 3.3125 C1.18 3.6425 -0.14 3.9725 -1.5 4.3125 C-2.8045656 7.30865946 -2.8045656 7.30865946 -3.5 10.3125 C-3.83 10.3125 -4.16 10.3125 -4.5 10.3125 C-4.6953125 4.2578125 -4.6953125 4.2578125 -4.5 2.3125 C-2.5 0.3125 -2.5 0.3125 0 0 Z " fill="#6F8099" transform="translate(316.5,75.6875)"/>
<path d="M0 0 C6.01579226 6.01579226 6.23745547 17.6935569 6.32568359 25.72363281 C6.26870315 38.53367963 6.26870315 38.53367963 5 43 C4.34 43 3.68 43 3 43 C3.01160156 41.68386719 3.02320313 40.36773437 3.03515625 39.01171875 C3.41997201 22.25407047 3.41997201 22.25407047 0 6 C-0.125 2.625 -0.125 2.625 0 0 Z " fill="#253F5D" transform="translate(145,67)"/>
<path d="M0 0 C5.94 0 11.88 0 18 0 C18 0.66 18 1.32 18 2 C13.05 2.33 8.1 2.66 3 3 C2.67 4.98 2.34 6.96 2 9 C5.3 9 8.6 9 12 9 C12 10.32 12 11.64 12 13 C7.71 13 3.42 13 -1 13 C-1.33 13.66 -1.66 14.32 -2 15 C-2 13.02 -2 11.04 -2 9 C-1.01 8.67 -0.02 8.34 1 8 C0.67 5.36 0.34 2.72 0 0 Z " fill="#1D395D" transform="translate(212,80)"/>
<path d="M0 0 C0 0.66 0 1.32 0 2 C-1.32 2 -2.64 2 -4 2 C-4 2.66 -4 3.32 -4 4 C-5.32 4 -6.64 4 -8 4 C-8 4.66 -8 5.32 -8 6 C-7.34 6 -6.68 6 -6 6 C-6.33 6.99 -6.66 7.98 -7 9 C-6.01 9.33 -5.02 9.66 -4 10 C-4 9.34 -4 8.68 -4 8 C-2.68 8 -1.36 8 0 8 C0 7.34 0 6.68 0 6 C2.64 5.34 5.28 4.68 8 4 C7 7 7 7 5.14233398 8.07495117 C4.35157471 8.39439697 3.56081543 8.71384277 2.74609375 9.04296875 C1.89208984 9.39423828 1.03808594 9.74550781 0.15820312 10.10742188 C-0.73962891 10.46384766 -1.63746094 10.82027344 -2.5625 11.1875 C-3.46419922 11.55552734 -4.36589844 11.92355469 -5.29492188 12.30273438 C-7.52614285 13.21175033 -9.76102508 14.11029292 -12 15 C-12.66 14.34 -13.32 13.68 -14 13 C-12.68 12.67 -11.36 12.34 -10 12 C-10 11.34 -10 10.68 -10 10 C-11.32 10 -12.64 10 -14 10 C-14 9.34 -14 8.68 -14 8 C-12.68 8 -11.36 8 -10 8 C-10 7.34 -10 6.68 -10 6 C-10.66 5.67 -11.32 5.34 -12 5 C-10.66272409 2.32544817 -9.26711677 2.01118615 -6.5625 0.8125 C-5.75941406 0.44769531 -4.95632812 0.08289063 -4.12890625 -0.29296875 C-2 -1 -2 -1 0 0 Z " fill="#F08D49" transform="translate(76,128)"/>
<path d="M0 0 C2.0625 0.6875 2.0625 0.6875 5.0625 2.6875 C5.0625 3.3475 5.0625 4.0075 5.0625 4.6875 C7.0425 4.6875 9.0225 4.6875 11.0625 4.6875 C10.423125 5.161875 9.78375 5.63625 9.125 6.125 C7.17956694 7.52488726 7.17956694 7.52488726 6.0625 8.6875 C7.3825 9.0175 8.7025 9.3475 10.0625 9.6875 C10.0625 10.3475 10.0625 11.0075 10.0625 11.6875 C8.64499437 11.57240339 7.22848831 11.44496342 5.8125 11.3125 C4.62914062 11.20808594 4.62914062 11.20808594 3.421875 11.1015625 C0.91527404 10.66166233 -0.78572646 10.03925517 -2.9375 8.6875 C-4.9375 5.6875 -4.9375 5.6875 -4.6875 3.0625 C-4.44 2.27875 -4.1925 1.495 -3.9375 0.6875 C-1.9375 -0.3125 -1.9375 -0.3125 0 0 Z " fill="#3F5573" transform="translate(423.9375,95.3125)"/>
<path d="M0 0 C2 2 2 2 2.3125 5 C2.209375 5.99 2.10625 6.98 2 8 C-1.22791555 10.1519437 -2.28400809 10.20086443 -6 10 C-5.360625 9.5875 -4.72125 9.175 -4.0625 8.75 C-1.79009069 6.82189513 -1.39803561 5.88575819 -1 3 C-1.99 3.495 -1.99 3.495 -3 4 C-5.3329866 4.04022391 -7.66706666 4.04320247 -10 4 C-10 5.65 -10 7.3 -10 9 C-11.32 9.33 -12.64 9.66 -14 10 C-14 9.34 -14 8.68 -14 8 C-15.32 7.67 -16.64 7.34 -18 7 C-16.5036589 4.0073178 -14.29309593 3.64419367 -11.25 2.375 C-10.20328125 1.92898437 -9.1565625 1.48296875 -8.078125 1.0234375 C-5.11029367 0.03667125 -3.09001008 -0.37814809 0 0 Z " fill="#EA8B4C" transform="translate(96,120)"/>
<path d="M0 0 C-0.375 2.125 -0.375 2.125 -1 4 C-1.84304688 3.75443359 -1.84304688 3.75443359 -2.703125 3.50390625 C-5.13059056 2.97135003 -7.26889681 2.90101319 -9.75 2.9375 C-10.94882812 2.95103516 -10.94882812 2.95103516 -12.171875 2.96484375 C-13.07679688 2.98224609 -13.07679688 2.98224609 -14 3 C-13.67 4.32 -13.34 5.64 -13 7 C-14.65 7.33 -16.3 7.66 -18 8 C-18.3125 5.25 -18.3125 5.25 -18 2 C-14.57543118 -2.08738859 -11.03404487 -2.57007668 -5.98828125 -3.01953125 C-3.01967589 -2.9903701 -2.09811007 -2.09811007 0 0 Z " fill="#173358" transform="translate(440,80)"/>
<path d="M0 0 C2.15478516 -0.34057617 2.15478516 -0.34057617 4.7890625 -0.29296875 C5.73007812 -0.28330078 6.67109375 -0.27363281 7.640625 -0.26367188 C9.11789062 -0.2259668 9.11789062 -0.2259668 10.625 -0.1875 C12.11386719 -0.16719727 12.11386719 -0.16719727 13.6328125 -0.14648438 C16.08908072 -0.11105743 18.54427285 -0.06166196 21 0 C21 0.66 21 1.32 21 2 C10.605 2.495 10.605 2.495 0 3 C0 11.58 0 20.16 0 29 C-0.66 29 -1.32 29 -2 29 C-2.05794812 24.72922344 -2.09357874 20.45854764 -2.125 16.1875 C-2.14175781 14.97255859 -2.15851562 13.75761719 -2.17578125 12.50585938 C-2.18222656 11.34248047 -2.18867187 10.17910156 -2.1953125 8.98046875 C-2.20578613 7.90692139 -2.21625977 6.83337402 -2.22705078 5.72729492 C-2 3 -2 3 0 0 Z " fill="#66778F" transform="translate(595,76)"/>
<path d="M0 0 C2.75 2.75 2.75 2.75 5 6 C4.875 8.5625 4.875 8.5625 4 11 C3.814375 11.928125 3.62875 12.85625 3.4375 13.8125 C3.293125 14.534375 3.14875 15.25625 3 16 C2.67 16 2.34 16 2 16 C2 13.36 2 10.72 2 8 C1.34 8 0.68 8 0 8 C-0.45375 7.525625 -0.9075 7.05125 -1.375 6.5625 C-3.37244938 4.64187559 -4.24302129 4.29805175 -7 4 C-9.69419711 4.22236176 -12.3230031 4.59845046 -15 5 C-15 4.01 -15 3.02 -15 2 C-13.06524329 1.46906676 -11.12706845 0.95057683 -9.1875 0.4375 C-8.10855469 0.14746094 -7.02960938 -0.14257812 -5.91796875 -0.44140625 C-3 -1 -3 -1 0 0 Z " fill="#193457" transform="translate(473,78)"/>
<path d="M0 0 C0.66 0 1.32 0 2 0 C2.66 2.31 3.32 4.62 4 7 C4.474375 6.030625 4.94875 5.06125 5.4375 4.0625 C7 1 7 1 8 0 C10.67058851 -0.14115161 13.32432238 -0.04247107 16 0 C16.33 0.99 16.66 1.98 17 3 C13.7 3 10.4 3 7 3 C6.855625 3.969375 6.71125 4.93875 6.5625 5.9375 C6 9 6 9 5 10 C2.66702567 10.04092937 0.33294775 10.04241723 -2 10 C-3.39195915 5.82412255 -1.82323219 3.86525224 0 0 Z " fill="#344965" transform="translate(526,96)"/>
<path d="M0 0 C0.33 0.66 0.66 1.32 1 2 C1.66 2 2.32 2 3 2 C4.342 9.442 4.342 9.442 2.8125 11.9375 C-1.0572156 14.20595397 -3.68001974 14.07999507 -8 13 C-7.67 12.34 -7.34 11.68 -7 11 C-7.99 10.34 -8.98 9.68 -10 9 C-7.4345406 6.4345406 -5.52313332 6.45953913 -2 6 C-1.34 4.02 -0.68 2.04 0 0 Z " fill="#1E395D" transform="translate(437,92)"/>
<path d="M0 0 C0.99 0.33 1.98 0.66 3 1 C2.28385417 2.59505208 1.56770833 4.19010417 0.8515625 5.78515625 C-1.88904533 12.91325092 -2.39838976 19.33189387 -2.625 26.9375 C-2.66367187 28.00291016 -2.70234375 29.06832031 -2.7421875 30.16601562 C-2.83586146 32.77717734 -2.92158335 35.38834304 -3 38 C-3.66 38 -4.32 38 -5 38 C-5.92362345 11.84724689 -5.92362345 11.84724689 0 0 Z " fill="#374F6F" transform="translate(22,67)"/>
<path d="M0 0 C0.625 1.875 0.625 1.875 1 4 C-1 6 -1 6 -4.2578125 6.1953125 C-5.53398437 6.17210938 -6.81015625 6.14890625 -8.125 6.125 C-10.04699219 6.09792969 -10.04699219 6.09792969 -12.0078125 6.0703125 C-13.48894531 6.03550781 -13.48894531 6.03550781 -15 6 C-15 6.99 -15 7.98 -15 9 C-14.36191406 8.98839844 -13.72382813 8.97679688 -13.06640625 8.96484375 C-11.82697266 8.95130859 -11.82697266 8.95130859 -10.5625 8.9375 C-9.73878906 8.92589844 -8.91507813 8.91429688 -8.06640625 8.90234375 C-6 9 -6 9 -5 10 C-4.95919217 11.99958364 -4.95745644 14.00045254 -5 16 C-6.32 15.67 -7.64 15.34 -9 15 C-8.34 15 -7.68 15 -7 15 C-7 13.68 -7 12.36 -7 11 C-10.3 11 -13.6 11 -17 11 C-17.04254356 9.00045254 -17.04080783 6.99958364 -17 5 C-16 4 -16 4 -12.62109375 3.90234375 C-11.22652923 3.90901631 -9.83198257 3.92097468 -8.4375 3.9375 C-7.72658203 3.94201172 -7.01566406 3.94652344 -6.28320312 3.95117188 C-4.52209987 3.96299136 -2.76103964 3.98092737 -1 4 C-0.67 2.68 -0.34 1.36 0 0 Z " fill="#566880" transform="translate(231,78)"/>
<path d="M0 0 C0.66 0.33 1.32 0.66 2 1 C2.33 1.99 2.66 2.98 3 4 C1.68 4 0.36 4 -1 4 C-1 4.66 -1 5.32 -1 6 C0.32 6 1.64 6 3 6 C3 6.66 3 7.32 3 8 C1 10 1 10 -2 11 C-4.6875 10.5625 -4.6875 10.5625 -7 10 C-7 9.34 -7 8.68 -7 8 C-7.66 8 -8.32 8 -9 8 C-9 7.34 -9 6.68 -9 6 C-8.34 5.67 -7.68 5.34 -7 5 C-7 4.34 -7 3.68 -7 3 C-4.69631264 1.93347808 -2.35981813 0.93578995 0 0 Z " fill="#F68232" transform="translate(63,132)"/>
<path d="M0 0 C1.66611905 -0.042721 3.33382885 -0.04063832 5 0 C6 1 6 1 6.11352539 3.59204102 C6.10828857 4.71795654 6.10305176 5.84387207 6.09765625 7.00390625 C6.09443359 8.21884766 6.09121094 9.43378906 6.08789062 10.68554688 C6.07951172 11.96494141 6.07113281 13.24433594 6.0625 14.5625 C6.05798828 15.84576172 6.05347656 17.12902344 6.04882812 18.45117188 C6.03699545 21.63416022 6.02051068 24.81705762 6 28 C4.35 28.66 2.7 29.32 1 30 C0.67 29.34 0.34 28.68 0 28 C0.99 28 1.98 28 3 28 C3.0867562 23.70845978 3.1403089 19.41714332 3.1875 15.125 C3.21263672 13.90167969 3.23777344 12.67835937 3.26367188 11.41796875 C3.27817383 9.66806641 3.27817383 9.66806641 3.29296875 7.8828125 C3.31653442 6.26463623 3.31653442 6.26463623 3.34057617 4.61376953 C3.22818604 3.75122559 3.1157959 2.88868164 3 2 C2.01 1.34 1.02 0.68 0 0 Z " fill="#647B93" transform="translate(261,77)"/>
<path d="M0 0 C0.66 0.33 1.32 0.66 2 1 C1.67 1.99 1.34 2.98 1 4 C1.99 4.33 2.98 4.66 4 5 C3.67 5.99 3.34 6.98 3 8 C1.68 8 0.36 8 -1 8 C-1 8.66 -1 9.32 -1 10 C-1.66 10 -2.32 10 -3 10 C-3 9.34 -3 8.68 -3 8 C-4.32 8 -5.64 8 -7 8 C-7.66 6.68 -8.32 5.36 -9 4 C-7.54618103 3.30300448 -6.08677047 2.61766134 -4.625 1.9375 C-3.40683594 1.36322266 -3.40683594 1.36322266 -2.1640625 0.77734375 C-1.44992188 0.52082031 -0.73578125 0.26429688 0 0 Z " fill="#F67F2D" transform="translate(49,138)"/>
<path d="M0 0 C1.99954746 -0.04254356 4.00041636 -0.04080783 6 0 C7 1 7 1 7.11352539 3.77563477 C7.10828857 4.98533936 7.10305176 6.19504395 7.09765625 7.44140625 C7.09443359 8.74658203 7.09121094 10.05175781 7.08789062 11.39648438 C7.07953401 12.7851569 7.07106905 14.17382877 7.0625 15.5625 C7.05748666 16.95507656 7.05292347 18.34765481 7.04882812 19.74023438 C7.03699434 23.1601987 7.0205088 26.58007844 7 30 C6.34 29.67 5.68 29.34 5 29 C5 20.09 5 11.18 5 2 C3.35 1.67 1.7 1.34 0 1 C0 0.67 0 0.34 0 0 Z " fill="#465D79" transform="translate(350,76)"/>
<path d="M0 0 C1.875 0.25 1.875 0.25 4 1 C5.25 3.0625 5.25 3.0625 6 5 C4.359375 6.55078125 4.359375 6.55078125 2 8 C-0.796875 7.85546875 -0.796875 7.85546875 -3.75 7.1875 C-4.73484375 6.97480469 -5.7196875 6.76210937 -6.734375 6.54296875 C-7.48203125 6.36378906 -8.2296875 6.18460937 -9 6 C-9 6.66 -9 7.32 -9 8 C-4.545 8.99 -4.545 8.99 0 10 C0 10.66 0 11.32 0 12 C-1.46015291 11.71758359 -2.91809793 11.42373386 -4.375 11.125 C-5.18710937 10.96257812 -5.99921875 10.80015625 -6.8359375 10.6328125 C-9 10 -9 10 -11 8 C-11 7.01 -11 6.02 -11 5 C-7.03230578 3.01615289 -2.14470514 3.67369435 2 5 C2.33 4.01 2.66 3.02 3 2 C2.01 1.67 1.02 1.34 0 1 C0 0.67 0 0.34 0 0 Z " fill="#52657C" transform="translate(437,78)"/>
<path d="M0 0 C0.99 0.33 1.98 0.66 3 1 C1.97194154 3.98970514 1.23356354 4.87739332 -1.61376953 6.37207031 C-2.69255371 6.77006836 -3.77133789 7.16806641 -4.8828125 7.578125 C-6.63271484 8.23554687 -6.63271484 8.23554687 -8.41796875 8.90625 C-9.64128906 9.3496875 -10.86460938 9.793125 -12.125 10.25 C-13.35605469 10.70890625 -14.58710937 11.1678125 -15.85546875 11.640625 C-18.89918436 12.77317034 -21.94717387 13.89229821 -25 15 C-25 14.01 -25 13.02 -25 12 C-13.76953125 7.5078125 -13.76953125 7.5078125 -11.80322266 6.72753906 C-10.27869886 6.11244552 -8.76836133 5.462366 -7.26171875 4.8046875 C-5 4 -5 4 -1 4 C-0.67 2.68 -0.34 1.36 0 0 Z " fill="#374C67" transform="translate(103,29)"/>
<path d="M0 0 C1.485 0.99 1.485 0.99 3 2 C3.34057617 3.87939453 3.34057617 3.87939453 3.29296875 6.1328125 C3.28330078 6.93847656 3.27363281 7.74414062 3.26367188 8.57421875 C3.23853516 9.41597656 3.21339844 10.25773437 3.1875 11.125 C3.17396484 11.97449219 3.16042969 12.82398437 3.14648438 13.69921875 C3.11108219 15.79974837 3.05727401 17.89995293 3 20 C6.3 20 9.6 20 13 20 C12.34 20.99 11.68 21.98 11 23 C7.29808399 23.479878 4.98155047 23.62951028 1.7890625 21.58203125 C-0.94552565 17.63538765 -0.42959053 13.92626115 -0.25 9.25 C-0.23195313 8.36183594 -0.21390625 7.47367187 -0.1953125 6.55859375 C-0.14827374 4.37129152 -0.08257009 2.18620184 0 0 Z " fill="#2A415F" transform="translate(496,78)"/>
<path d="M0 0 C2.47269805 3.75483777 2.02384519 7.19001253 1.6875 11.5625 C1.0275 11.5625 0.3675 11.5625 -0.3125 11.5625 C-0.8075 6.6125 -0.8075 6.6125 -1.3125 1.5625 C-2.43269531 1.57410156 -3.55289063 1.58570312 -4.70703125 1.59765625 C-6.17968583 1.60703622 -7.65234222 1.6161362 -9.125 1.625 C-9.86298828 1.63337891 -10.60097656 1.64175781 -11.36132812 1.65039062 C-14.61172068 1.66509828 -17.20654895 1.59781702 -20.3125 0.5625 C-19.9825 2.8725 -19.6525 5.1825 -19.3125 7.5625 C-20.3025 8.0575 -20.3025 8.0575 -21.3125 8.5625 C-21.3125 5.5925 -21.3125 2.6225 -21.3125 -0.4375 C-19.08350213 -0.60640918 -16.85429338 -0.77253687 -14.625 -0.9375 C-12.76294922 -1.07671875 -12.76294922 -1.07671875 -10.86328125 -1.21875 C-2.76334642 -1.71775589 -2.76334642 -1.71775589 0 0 Z " fill="#1D375B" transform="translate(582.3125,78.4375)"/>
<path d="M0 0 C0.78375 0.04125 1.5675 0.0825 2.375 0.125 C2.375 0.785 2.375 1.445 2.375 2.125 C1.055 2.125 -0.265 2.125 -1.625 2.125 C-1.61339844 3.3315625 -1.60179687 4.538125 -1.58984375 5.78125 C-1.58045665 7.39583177 -1.57135744 9.01041524 -1.5625 10.625 C-1.55412109 11.41648437 -1.54574219 12.20796875 -1.53710938 13.0234375 C-1.51608815 18.15261717 -1.88562713 23.04836106 -2.625 28.125 C-2.955 28.125 -3.285 28.125 -3.625 28.125 C-3.85009088 23.83403831 -4.05223952 19.54230127 -4.25 15.25 C-4.31445312 14.02667969 -4.37890625 12.80335937 -4.4453125 11.54296875 C-4.496875 10.37636719 -4.5484375 9.20976563 -4.6015625 8.0078125 C-4.65393066 6.92902832 -4.70629883 5.85024414 -4.76025391 4.73876953 C-4.57010904 1.06423721 -3.67461491 0.17498166 0 0 Z " fill="#405873" transform="translate(244.625,75.875)"/>
<path d="M0 0 C2.31 0 4.62 0 7 0 C7 0.66 7 1.32 7 2 C5.02 2 3.04 2 1 2 C1 3.32 1 4.64 1 6 C3.31 6.33 5.62 6.66 8 7 C7.125 11.875 7.125 11.875 6 13 C3.66702567 13.04092937 1.33294775 13.04241723 -1 13 C1.31856917 11.45428722 3.50638429 10.20381448 6 9 C3.69 8.34 1.38 7.68 -1 7 C-0.67 4.69 -0.34 2.38 0 0 Z " fill="#485971" transform="translate(379,88)"/>
<path d="M0 0 C4.29 0 8.58 0 13 0 C13 0.66 13 1.32 13 2 C8.33328651 3.00001003 5.96698865 2.82783144 1 2 C1 10.25 1 18.5 1 27 C0.67 27 0.34 27 0 27 C0 18.09 0 9.18 0 0 Z " fill="#122C50" transform="translate(279,78)"/>
<path d="M0 0 C1.4540625 0.0309375 1.4540625 0.0309375 2.9375 0.0625 C3.91306564 2.98919691 3.9981341 4.50311321 3.81640625 7.51171875 C3.76806641 8.35927734 3.71972656 9.20683594 3.66992188 10.08007812 C3.61384766 10.96115234 3.55777344 11.84222656 3.5 12.75 C3.44779297 13.64267578 3.39558594 14.53535156 3.34179688 15.45507812 C3.2122182 17.6579156 3.07725754 19.86028873 2.9375 22.0625 C2.6075 22.0625 2.2775 22.0625 1.9375 22.0625 C1.9375 15.4625 1.9375 8.8625 1.9375 2.0625 C0.6175 2.0625 -0.7025 2.0625 -2.0625 2.0625 C-2.0625 8.0025 -2.0625 13.9425 -2.0625 20.0625 C-2.3925 20.0625 -2.7225 20.0625 -3.0625 20.0625 C-3.25844676 16.91713232 -3.4428401 13.77119386 -3.625 10.625 C-3.68107422 9.72716797 -3.73714844 8.82933594 -3.79492188 7.90429688 C-3.84326172 7.05029297 -3.89160156 6.19628906 -3.94140625 5.31640625 C-3.9885376 4.52564697 -4.03566895 3.7348877 -4.08422852 2.92016602 C-4.04658221 -0.29838198 -3.23489019 0.06601817 0 0 Z " fill="#47596F" transform="translate(512.0625,75.9375)"/>
<path d="M0 0 C0 0.66 0 1.32 0 2 C0.66 2 1.32 2 2 2 C2.33 1.34 2.66 0.68 3 0 C2.67 3.96 2.34 7.92 2 12 C0.68 11.67 -0.64 11.34 -2 11 C-1.34 11 -0.68 11 0 11 C-0.42656115 7.90584 -0.95094229 4.94812117 -2 2 C-4.7478158 0.11991551 -6.05182767 -0.15375767 -9.3125 0.375 C-9.869375 0.58125 -10.42625 0.7875 -11 1 C-11 0.01 -11 -0.98 -11 -2 C-6.74891557 -3.87047715 -3.9091836 -1.87941519 0 0 Z " fill="#364D6C" transform="translate(473,84)"/>
<path d="M0 0 C0.33 0 0.66 0 1 0 C1.02715383 1.74991334 1.04646551 3.49994945 1.0625 5.25 C1.07410156 6.22453125 1.08570313 7.1990625 1.09765625 8.203125 C1.01018852 10.70820089 0.90255596 12.66882688 0 15 C-3.4352048 17.29013653 -4.985331 17.17842973 -9 17 C-6.94766315 14.7522025 -5.99332739 13.9977758 -3 13 C-3.33 12.34 -3.66 11.68 -4 11 C-3.6875 8.9375 -3.6875 8.9375 -3 7 C-2.34 6.67 -1.68 6.34 -1 6 C-0.34227572 2.97065509 -0.34227572 2.97065509 0 0 Z " fill="#243E60" transform="translate(299,89)"/>
<path d="M0 0 C-2.20616172 2.20616172 -4.03871568 2.98755891 -6.875 4.25 C-11.37621983 6.45189542 -13.74314848 8.38817298 -16 13 C-16.76939681 15.22602615 -16.76939681 15.22602615 -17 17 C-17.66 17 -18.32 17 -19 17 C-18.49287967 13.28111761 -17.88391785 10.26545761 -16 7 C-15.34 7 -14.68 7 -14 7 C-14 6.34 -14 5.68 -14 5 C-12.35 4.34 -10.7 3.68 -9 3 C-9 2.34 -9 1.68 -9 1 C-3.375 -1.125 -3.375 -1.125 0 0 Z " fill="#2D4360" transform="translate(70,47)"/>
<path d="M0 0 C0 0.66 0 1.32 0 2 C-6.53162622 3.10914408 -12.43507888 2.78441153 -19 2 C-19 1.34 -19 0.68 -19 0 C-16.39619004 -0.19476139 -13.79224467 -0.38108614 -11.1875 -0.5625 C-10.44951172 -0.61857422 -9.71152344 -0.67464844 -8.95117188 -0.73242188 C-5.63211484 -0.95769724 -3.18767436 -1.06255812 0 0 Z " fill="#3F5470" transform="translate(231,104)"/>
<path d="M0 0 C0.66 0.33 1.32 0.66 2 1 C2.3367697 5.93928888 2.16130459 6.78492722 -1 11 C-2.98 8.03 -4.96 5.06 -7 2 C-5.68 2.33 -4.36 2.66 -3 3 C-2.01 2.67 -1.02 2.34 0 2 C0 1.34 0 0.68 0 0 Z " fill="#274165" transform="translate(260,95)"/>
<path d="M0 0 C1.22589844 0.01353516 1.22589844 0.01353516 2.4765625 0.02734375 C3.41628906 0.04474609 3.41628906 0.04474609 4.375 0.0625 C4.375 0.7225 4.375 1.3825 4.375 2.0625 C3.77171875 2.09988281 3.1684375 2.13726562 2.546875 2.17578125 C-0.96771878 2.46488493 -3.91848395 2.72690488 -7.125 4.25 C-9.17438973 6.72634592 -9.3449658 8.91211526 -9.625 12.0625 C-10.285 12.0625 -10.945 12.0625 -11.625 12.0625 C-11.9375 9.375 -11.9375 9.375 -11.625 6.0625 C-7.89701429 1.64778008 -5.69227712 -0.08131824 0 0 Z " fill="#3D546F" transform="translate(431.625,75.9375)"/>
<path d="M0 0 C0.99 0.33 1.98 0.66 3 1 C2.01 1.33 1.02 1.66 0 2 C0 2.66 0 3.32 0 4 C-2.24237733 5.61439319 -4.47249014 7.1031638 -6.8125 8.5625 C-7.77639648 9.1802832 -7.77639648 9.1802832 -8.75976562 9.81054688 C-11.47791719 11.53157341 -13.93683409 12.9789447 -17 14 C-17.33 13.34 -17.66 12.68 -18 12 C-17.20335938 11.55269531 -16.40671875 11.10539063 -15.5859375 10.64453125 C-8.68402172 6.79360357 -8.68402172 6.79360357 -2.4375 2 C-1.633125 1.34 -0.82875 0.68 0 0 Z " fill="#4A5D79" transform="translate(128,143)"/>
<path d="M0 0 C1.093125 0.226875 2.18625 0.45375 3.3125 0.6875 C4.9625 4.9775 6.6125 9.2675 8.3125 13.6875 C7.3225 13.6875 6.3325 13.6875 5.3125 13.6875 C5.08175781 12.90503906 4.85101562 12.12257813 4.61328125 11.31640625 C4.28714844 10.30449219 3.96101562 9.29257813 3.625 8.25 C3.31175781 7.24066406 2.99851562 6.23132813 2.67578125 5.19140625 C1.54366451 2.4260387 1.54366451 2.4260387 -1.33203125 1.83984375 C-2.10933594 1.78957031 -2.88664063 1.73929687 -3.6875 1.6875 C-3.6875 2.3475 -3.6875 3.0075 -3.6875 3.6875 C-4.6775 3.3575 -5.6675 3.0275 -6.6875 2.6875 C-4.58035839 -0.41123767 -3.86755884 -0.32775922 0 0 Z " fill="#455A73" transform="translate(538.6875,76.3125)"/>
<path d="M0 0 C0 0.33 0 0.66 0 1 C-1.65 1 -3.3 1 -5 1 C-5 2.65 -5 4.3 -5 6 C-6.32 6.33 -7.64 6.66 -9 7 C-9 6.34 -9 5.68 -9 5 C-10.32 4.67 -11.64 4.34 -13 4 C-10.60208312 -0.79583375 -4.69308584 -1.56436195 0 0 Z " fill="#EE8941" transform="translate(91,123)"/>
<path d="M0 0 C2.82056466 2.82056466 3.30516643 6.11562699 4.25 9.875 C4.44851562 10.59558594 4.64703125 11.31617187 4.8515625 12.05859375 C6.21073093 17.40662606 6.21073093 17.40662606 5.109375 20.5078125 C4.74328125 21.00023438 4.3771875 21.49265625 4 22 C3.32438628 19.4604163 2.65934172 16.91881165 2 14.375 C1.80921875 13.66214844 1.6184375 12.94929688 1.421875 12.21484375 C0.34982713 8.04151456 -0.21946814 4.34821249 0 0 Z " fill="#324863" transform="translate(145,67)"/>
<path d="M0 0 C0.66 0.33 1.32 0.66 2 1 C2 2.98 2 4.96 2 7 C-1.43515002 7.62457273 -4.49064814 8 -8 8 C-8.33 9.65 -8.66 11.3 -9 13 C-9.66 12.67 -10.32 12.34 -11 12 C-11 10.02 -11 8.04 -11 6 C-7.37 6 -3.74 6 0 6 C0 4.02 0 2.04 0 0 Z " fill="#647691" transform="translate(610,87)"/>
<path d="M0 0 C3.63 0.66 7.26 1.32 11 2 C10.67 2.66 10.34 3.32 10 4 C10 4.33 10 4.66 10 5 C10 7.33333333 10 9.66666667 10 12 C8.68 11.34 7.36 10.68 6 10 C6 7.37886292 6.31292445 5.49064888 7 3 C4.69 2.67 2.38 2.34 0 2 C0 1.34 0 0.68 0 0 Z " fill="#1C385B" transform="translate(380,92)"/>
<path d="M0 0 C2.84349418 0.30466009 4.02161366 1.01914353 6.1875 2.9375 C9.17512209 7.98555112 9.36664572 13.38110198 8.5625 19.125 C8.376875 19.74375 8.19125 20.3625 8 21 C7.34 20.67 6.68 20.34 6 20 C6.05220703 18.78763672 6.05220703 18.78763672 6.10546875 17.55078125 C6.14607422 15.94783203 6.14607422 15.94783203 6.1875 14.3125 C6.23970703 12.72888672 6.23970703 12.72888672 6.29296875 11.11328125 C5.83844753 6.28323579 3.53250356 3.19607465 0 0 Z " fill="#495F79" transform="translate(472,78)"/>
<path d="M0 0 C-0.66 1.32 -1.32 2.64 -2 4 C-1.566875 4.62648438 -1.13375 5.25296875 -0.6875 5.8984375 C0.1478125 7.12433594 0.1478125 7.12433594 1 8.375 C1.8353125 9.59316406 1.8353125 9.59316406 2.6875 10.8359375 C4 13 4 13 4 15 C2.02 15 0.04 15 -2 15 C-1.01 14.67 -0.02 14.34 1 14 C0.566875 13.38511719 0.13375 12.77023438 -0.3125 12.13671875 C-0.869375 11.32847656 -1.42625 10.52023438 -2 9.6875 C-2.556875 8.88699219 -3.11375 8.08648437 -3.6875 7.26171875 C-5 5 -5 5 -5 2 C-2 0 -2 0 0 0 Z " fill="#415573" transform="translate(582,91)"/>
<path d="M0 0 C3.3 0 6.6 0 10 0 C10 1.32 10 2.64 10 4 C6.7 4 3.4 4 0 4 C0 2.68 0 1.36 0 0 Z " fill="#193355" transform="translate(214,89)"/>
<path d="M0 0 C2.62527189 -0.05382106 5.24944713 -0.09358313 7.875 -0.125 C8.62136719 -0.14175781 9.36773438 -0.15851563 10.13671875 -0.17578125 C12.09194461 -0.1933959 14.04742021 -0.10320189 16 0 C16.66 0.66 17.32 1.32 18 2 C9.585 2.495 9.585 2.495 1 3 C0.67 2.01 0.34 1.02 0 0 Z " fill="#1D375D" transform="translate(598,80)"/>
<path d="M0 0 C3.69848112 1.49700426 4.35485223 3.81461825 5.92578125 7.34765625 C6.15652344 7.91355469 6.38726562 8.47945312 6.625 9.0625 C5.965 9.7225 5.305 10.3825 4.625 11.0625 C4.625 10.0725 4.625 9.0825 4.625 8.0625 C3.965 8.0625 3.305 8.0625 2.625 8.0625 C2.295 6.4125 1.965 4.7625 1.625 3.0625 C-0.025 3.0625 -1.675 3.0625 -3.375 3.0625 C-3.705 2.4025 -4.035 1.7425 -4.375 1.0625 C-2.375 0.0625 -2.375 0.0625 0 0 Z " fill="#314A6A" transform="translate(138.375,56.9375)"/>
<path d="M0 0 C0.66 0.66 1.32 1.32 2 2 C1.34 3.32 0.68 4.64 0 6 C-0.99 6 -1.98 6 -3 6 C-3.33 6.99 -3.66 7.98 -4 9 C-5.65 9 -7.3 9 -9 9 C-7.66073876 4.98221628 -5.50865531 4.21976152 -2 2 C-1.34 1.34 -0.68 0.68 0 0 Z " fill="#354865" transform="translate(110,133)"/>
<path d="M0 0 C0.66 0.33 1.32 0.66 2 1 C1.67 1.99 1.34 2.98 1 4 C1.99 4.33 2.98 4.66 4 5 C3.67 5.99 3.34 6.98 3 8 C1.68 8 0.36 8 -1 8 C-1 6.68 -1 5.36 -1 4 C-2.32 3.67 -3.64 3.34 -5 3 C-3 1 -3 1 0 0 Z " fill="#F8863B" transform="translate(49,138)"/>
<path d="M0 0 C0.66 0 1.32 0 2 0 C2 4.95 2 9.9 2 15 C1.01 15 0.02 15 -1 15 C-1.02685412 12.68756208 -1.04632841 10.3750373 -1.0625 8.0625 C-1.07410156 6.77472656 -1.08570312 5.48695312 -1.09765625 4.16015625 C-1 1 -1 1 0 0 Z " fill="#324A6D" transform="translate(113,115)"/>
<path d="M0 0 C0.78375 0.04125 1.5675 0.0825 2.375 0.125 C2.705 1.115 3.035 2.105 3.375 3.125 C1.725 3.455 0.075 3.785 -1.625 4.125 C-2.285 6.105 -2.945 8.085 -3.625 10.125 C-3.955 10.125 -4.285 10.125 -4.625 10.125 C-4.8203125 4.0703125 -4.8203125 4.0703125 -4.625 2.125 C-2.625 0.125 -2.625 0.125 0 0 Z " fill="#5F6E8B" transform="translate(316.625,75.875)"/>
<path d="M0 0 C1.1577506 3.47325181 1.06866652 6.36067448 1 10 C-0.32 10 -1.64 10 -3 10 C-3.33 8.02 -3.66 6.04 -4 4 C-2.68 3.34 -1.36 2.68 0 2 C0 1.34 0 0.68 0 0 Z " fill="#1A3356" transform="translate(548,95)"/>
<path d="M0 0 C0.80308594 -0.02578125 1.60617187 -0.0515625 2.43359375 -0.078125 C3.48740234 0.08429688 3.48740234 0.08429688 4.5625 0.25 C5.2225 1.24 5.8825 2.23 6.5625 3.25 C3.15150832 3.25 -0.06838314 2.75854594 -3.4375 2.25 C-3.7675 3.9 -4.0975 5.55 -4.4375 7.25 C-4.7675 7.25 -5.0975 7.25 -5.4375 7.25 C-5.48004356 5.25045254 -5.47830783 3.24958364 -5.4375 1.25 C-3.84882134 -0.33867866 -2.19060484 0.04205961 0 0 Z " fill="#5C6E87" transform="translate(288.4375,81.75)"/>
<path d="M0 0 C1.98 0 3.96 0 6 0 C7.19799449 4.14659373 6.8896192 7.99369047 6.5625 12.25 C6.48418945 13.36761719 6.48418945 13.36761719 6.40429688 14.5078125 C6.2751783 16.33894861 6.13834886 18.16953813 6 20 C5.67 20 5.34 20 5 20 C5 14.06 5 8.12 5 2 C3.35 2 1.7 2 0 2 C0 1.34 0 0.68 0 0 Z " fill="#495E7B" transform="translate(492,76)"/>
<path d="M0 0 C1.2065625 0.0309375 1.2065625 0.0309375 2.4375 0.0625 C1.4475 0.5575 1.4475 0.5575 0.4375 1.0625 C0.4375 2.7125 0.4375 4.3625 0.4375 6.0625 C1.0975 6.0625 1.7575 6.0625 2.4375 6.0625 C3.4275 8.3725 4.4175 10.6825 5.4375 13.0625 C4.4475 13.5575 4.4475 13.5575 3.4375 14.0625 C2.59901196 12.60712432 1.76686066 11.14809627 0.9375 9.6875 C0.4734375 8.87539062 0.009375 8.06328125 -0.46875 7.2265625 C-1.5625 5.0625 -1.5625 5.0625 -1.5625 3.0625 C-2.2225 2.4025 -2.8825 1.7425 -3.5625 1.0625 C-2.5625 0.0625 -2.5625 0.0625 0 0 Z " fill="#2F4665" transform="translate(573.5625,91.9375)"/>
<path d="M0 0 C2.3125 2.0625 2.3125 2.0625 4 4 C1.61435923 3.42415568 -0.66682784 2.77772405 -3 2 C-5.35188447 2.59793673 -7.68925595 3.25881795 -10 4 C-9 1 -9 1 -7.25 -0.25 C-4.3415587 -1.21948043 -2.88810312 -1.01083609 0 0 Z " fill="#51647C" transform="translate(384,82)"/>
<path d="M0 0 C0.33 0 0.66 0 1 0 C1.33 2.97 1.66 5.94 2 9 C2.94875 8.95875 3.8975 8.9175 4.875 8.875 C8 9 8 9 10 11 C9 12 9 12 7.1875 12.1328125 C6.465625 12.13023438 5.74375 12.12765625 5 12.125 C4.278125 12.12757812 3.55625 12.13015625 2.8125 12.1328125 C1 12 1 12 0 11 C-0.07226502 9.14712498 -0.0838122 7.29166122 -0.0625 5.4375 C-0.05347656 4.42558594 -0.04445313 3.41367188 -0.03515625 2.37109375 C-0.02355469 1.58863281 -0.01195312 0.80617188 0 0 Z " fill="#415A77" transform="translate(283,89)"/>
<path d="M0 0 C3.62351253 1.20783751 4.15215236 2.29653142 6.1875 5.4375 C6.71730469 6.24058594 7.24710937 7.04367188 7.79296875 7.87109375 C9 10 9 10 9 12 C9.66 12.33 10.32 12.66 11 13 C10.01 13 9.02 13 8 13 C6.61328125 11.5390625 6.61328125 11.5390625 5.3125 9.625 C4.87550781 8.99851562 4.43851563 8.37203125 3.98828125 7.7265625 C3 6 3 6 3 4 C2.34 4 1.68 4 1 4 C0.67 2.68 0.34 1.36 0 0 Z " fill="#3C576F" transform="translate(249,81)"/>
<path d="M0 0 C1.65 0 3.3 0 5 0 C6 3 6 3 5 6 C3.68 6 2.36 6 1 6 C0.67 4.02 0.34 2.04 0 0 Z " fill="#163258" transform="translate(535,78)"/>
<path d="M0 0 C2.97 0 5.94 0 9 0 C9.33 0.66 9.66 1.32 10 2 C7.24921116 2.91692961 5.64051087 3.10886083 2.8125 3.0625 C0.9253125 3.0315625 0.9253125 3.0315625 -1 3 C-0.67 2.01 -0.34 1.02 0 0 Z " fill="#52637A" transform="translate(91,103)"/>
<path d="M0 0 C-3.81389558 1.79477439 -6.78645663 2.37453719 -11 2 C-11.66 1.34 -12.32 0.68 -13 0 C-11.39950296 -0.39036513 -9.79437629 -0.76178619 -8.1875 -1.125 C-7.29417969 -1.33382812 -6.40085937 -1.54265625 -5.48046875 -1.7578125 C-3 -2 -3 -2 0 0 Z " fill="#253C5B" transform="translate(78,85)"/>
<path d="M0 0 C0.33 0.66 0.66 1.32 1 2 C-0.32 2.33 -1.64 2.66 -3 3 C-2.01 3.66 -1.02 4.32 0 5 C-5.75 6.125 -5.75 6.125 -8 5 C-8 4.01 -8 3.02 -8 2 C-5.36 1.34 -2.72 0.68 0 0 Z " fill="#3D4B63" transform="translate(70,154)"/>
<path d="M0 0 C0.99 0 1.98 0 3 0 C3 0.99 3 1.98 3 3 C4.32 3 5.64 3 7 3 C7 3.66 7 4.32 7 5 C8.32 5.33 9.64 5.66 11 6 C8.875 6.75 8.875 6.75 6 7 C2.6875 5.25 2.6875 5.25 0 3 C0 2.01 0 1.02 0 0 Z " fill="#E58847" transform="translate(39,143)"/>
<path d="M0 0 C2.33936818 2.12669835 3.80653848 4.06224856 5 7 C5 7.99 5 8.98 5 10 C5.66 10 6.32 10 7 10 C7 10.66 7 11.32 7 12 C4.33869601 10.98244259 3.19483944 10.33315139 1.734375 7.8359375 C1.24710938 6.61777344 1.24710938 6.61777344 0.75 5.375 C0.41484375 4.55773437 0.0796875 3.74046875 -0.265625 2.8984375 C-0.50796875 2.27195312 -0.7503125 1.64546875 -1 1 C-0.67 0.67 -0.34 0.34 0 0 Z " fill="#334868" transform="translate(23,120)"/>
<path d="M0 0 C2.5 1.4375 2.5 1.4375 5 4 C5.4451258 7.04256578 5.29359745 9.9465865 5 13 C4.34 13 3.68 13 3 13 C2.67 9.7 2.34 6.4 2 3 C1.34 3 0.68 3 0 3 C0 2.01 0 1.02 0 0 Z " fill="#4C6078" transform="translate(579,77)"/>
<path d="M0 0 C0 0.66 0 1.32 0 2 C-1.4096347 2.70180531 -2.82807641 3.38593958 -4.25 4.0625 C-5.03890625 4.44535156 -5.8278125 4.82820312 -6.640625 5.22265625 C-9.25993522 6.08564091 -10.44855176 5.93045933 -13 5 C-12.37351562 4.72285156 -11.74703125 4.44570312 -11.1015625 4.16015625 C-10.28429688 3.79792969 -9.46703125 3.43570313 -8.625 3.0625 C-7.81289063 2.70285156 -7.00078125 2.34320313 -6.1640625 1.97265625 C-1.7751004 0 -1.7751004 0 0 0 Z " fill="#3E5370" transform="translate(44,124)"/>
<path d="M0 0 C2.05078125 0.03255208 4.1015625 0.06510417 6.15234375 0.09765625 C6.48234375 1.08765625 6.81234375 2.07765625 7.15234375 3.09765625 C1.09765625 3.29296875 1.09765625 3.29296875 -0.84765625 3.09765625 C-1.50765625 2.43765625 -2.16765625 1.77765625 -2.84765625 1.09765625 C-1.84765625 0.09765625 -1.84765625 0.09765625 0 0 Z " fill="#3F5674" transform="translate(535.84765625,95.90234375)"/>
<path d="M0 0 C0.66 0 1.32 0 2 0 C2 0.99 2 1.98 2 3 C6.455 3.99 6.455 3.99 11 5 C11 5.66 11 6.32 11 7 C9.53984709 6.71758359 8.08190207 6.42373386 6.625 6.125 C5.81289063 5.96257812 5.00078125 5.80015625 4.1640625 5.6328125 C2 5 2 5 0 3 C0 2.01 0 1.02 0 0 Z " fill="#435975" transform="translate(426,83)"/>
<path d="M0 0 C0.33 0 0.66 0 1 0 C1.1875 2.875 1.1875 2.875 1 6 C-2.22791555 8.1519437 -3.28400809 8.20086443 -7 8 C-6.1028125 7.4121875 -6.1028125 7.4121875 -5.1875 6.8125 C-2.7481726 4.79134301 -1.55191429 2.73432518 0 0 Z " fill="#DE864C" transform="translate(97,122)"/>
<path d="M0 0 C0.66 0 1.32 0 2 0 C1.979375 1.051875 1.95875 2.10375 1.9375 3.1875 C1.98896802 6.32704904 2.26517187 8.96883396 3 12 C0 10 0 10 -0.546875 7.87109375 C-0.61390625 7.06800781 -0.6809375 6.26492187 -0.75 5.4375 C-0.86601562 4.22900391 -0.86601562 4.22900391 -0.984375 2.99609375 C-0.98953125 2.33738281 -0.9946875 1.67867188 -1 1 C-0.67 0.67 -0.34 0.34 0 0 Z " fill="#53677F" transform="translate(373,87)"/>
<path d="M0 0 C0.86625 0.37125 0.86625 0.37125 1.75 0.75 C1.110625 1.018125 0.47125 1.28625 -0.1875 1.5625 C-2.58131686 2.63667752 -2.58131686 2.63667752 -3.25 5.75 C-3.91 5.75 -4.57 5.75 -5.25 5.75 C-5.25 7.07 -5.25 8.39 -5.25 9.75 C-5.91 9.75 -6.57 9.75 -7.25 9.75 C-6.9314443 6.24588735 -6.55932553 4.1659895 -4.4375 1.3125 C-2.25 -0.25 -2.25 -0.25 0 0 Z " fill="#344B68" transform="translate(374.25,78.25)"/>
<path d="M0 0 C3.65316671 1.24976756 4.78065836 1.67098753 7 5 C6.625 7.1875 6.625 7.1875 6 9 C5.01 9 4.02 9 3 9 C3 8.34 3 7.68 3 7 C3.66 7 4.32 7 5 7 C4.175 6.21625 3.35 5.4325 2.5 4.625 C0 2 0 2 0 0 Z " fill="#455A76" transform="translate(387,78)"/>
<path d="M0 0 C0.66 0 1.32 0 2 0 C2 3.3 2 6.6 2 10 C1.34 9.34 0.68 8.68 0 8 C-0.66 8.99 -1.32 9.98 -2 11 C-1 3.57142857 -1 3.57142857 0 0 Z " fill="#19355E" transform="translate(456,84)"/>
<path d="M0 0 C0.66 0.33 1.32 0.66 2 1 C2.33 1.99 2.66 2.98 3 4 C0.69 3.67 -1.62 3.34 -4 3 C-4.33 3.66 -4.66 4.32 -5 5 C-7.475 4.01 -7.475 4.01 -10 3 C-10 2.67 -10 2.34 -10 2 C-6.7 2 -3.4 2 0 2 C0 1.34 0 0.68 0 0 Z " fill="#142F4F" transform="translate(294,99)"/>
<path d="M0 0 C0 0.99 0 1.98 0 3 C0.66 3.33 1.32 3.66 2 4 C-0.31 4.33 -2.62 4.66 -5 5 C-5.33 3.68 -5.66 2.36 -6 1 C-3 0 -3 0 0 0 Z " fill="#153353" transform="translate(432,89)"/>
<path d="M0 0 C-2.09782787 2.09782787 -3.3799207 2.6509396 -6.125 3.625 C-6.84945312 3.88539062 -7.57390625 4.14578125 -8.3203125 4.4140625 C-9.15175781 4.70410156 -9.15175781 4.70410156 -10 5 C-10.33 4.34 -10.66 3.68 -11 3 C-10.34 3 -9.68 3 -9 3 C-9 2.34 -9 1.68 -9 1 C-3.375 -1.125 -3.375 -1.125 0 0 Z " fill="#576980" transform="translate(70,47)"/>
<path d="M0 0 C-2.50248865 1.66832577 -4.41149187 2.62381674 -7.1875 3.625 C-8.26064453 4.01558594 -8.26064453 4.01558594 -9.35546875 4.4140625 C-9.89816406 4.60742188 -10.44085938 4.80078125 -11 5 C-11 4.01 -11 3.02 -11 2 C-9.73392393 1.46770674 -8.46189588 0.94955456 -7.1875 0.4375 C-6.47980469 0.14746094 -5.77210937 -0.14257812 -5.04296875 -0.44140625 C-3 -1 -3 -1 0 0 Z " fill="#3D526E" transform="translate(89,39)"/>
<path d="M0 0 C0 0.66 0 1.32 0 2 C-6.96428571 5.34821429 -6.96428571 5.34821429 -11 4 C-9.73308493 3.32591692 -8.46129251 2.66099503 -7.1875 2 C-6.47980469 1.62875 -5.77210937 1.2575 -5.04296875 0.875 C-3 0 -3 0 0 0 Z " fill="#364B67" transform="translate(89,105)"/>
<path d="M0 0 C2.97 0 5.94 0 9 0 C8.01 0.495 8.01 0.495 7 1 C7.33 1.99 7.66 2.98 8 4 C6.02 4 4.04 4 2 4 C2.33 3.34 2.66 2.68 3 2 C2.01 1.34 1.02 0.68 0 0 Z " fill="#142E50" transform="translate(427,101)"/>
<path d="M0 0 C0.99 0 1.98 0 3 0 C3 1.98 3 3.96 3 6 C1.68 6.33 0.36 6.66 -1 7 C-0.67 4.69 -0.34 2.38 0 0 Z " fill="#213B5A" transform="translate(529,88)"/>
<path d="M0 0 C3.3 0 6.6 0 10 0 C10 0.99 10 1.98 10 3 C6.7 2.67 3.4 2.34 0 2 C0 1.34 0 0.68 0 0 Z " fill="#3A4E67" transform="translate(567,82)"/>
<path d="M0 0 C1.32 0 2.64 0 4 0 C4 0.66 4 1.32 4 2 C5.65 2 7.3 2 9 2 C8.67 2.66 8.34 3.32 8 4 C5.36 3.67 2.72 3.34 0 3 C0 2.01 0 1.02 0 0 Z " fill="#3D546F" transform="translate(472,103)"/>
<path d="M0 0 C3.63 0 7.26 0 11 0 C10.01 1.485 10.01 1.485 9 3 C5.5 3.375 5.5 3.375 2 3 C1.34 2.01 0.68 1.02 0 0 Z " fill="#375071" transform="translate(498,98)"/>
<path d="M0 0 C1.9375 0.8125 1.9375 0.8125 4 2 C4.33 2.99 4.66 3.98 5 5 C4.34 5 3.68 5 3 5 C3 5.66 3 6.32 3 7 C1.68 6.67 0.36 6.34 -1 6 C-0.67 5.34 -0.34 4.68 0 4 C0.66 4 1.32 4 2 4 C2 3.34 2 2.68 2 2 C1.34 2 0.68 2 0 2 C0 1.34 0 0.68 0 0 Z " fill="#1C3352" transform="translate(387,80)"/>
<path d="M0 0 C2.375 0.3125 2.375 0.3125 5 1 C5.66 1.99 6.32 2.98 7 4 C4.33333333 4 1.66666667 4 -1 4 C-0.67 2.68 -0.34 1.36 0 0 Z " fill="#73B6AE" transform="translate(121,40)"/>
<path d="M0 0 C1.32 0.33 2.64 0.66 4 1 C1.94766315 3.2477975 0.99332739 4.0022242 -2 5 C-2.66 4.67 -3.32 4.34 -4 4 C-4 3.34 -4 2.68 -4 2 C-2.68 2 -1.36 2 0 2 C0 1.34 0 0.68 0 0 Z " fill="#EE9C63" transform="translate(52,144)"/>
<path d="M0 0 C0.99 0 1.98 0 3 0 C3.66 2.97 4.32 5.94 5 9 C4.34 9 3.68 9 3 9 C2.01 6.03 1.02 3.06 0 0 Z " fill="#314A6B" transform="translate(18,110)"/>
<path d="M0 0 C0.66 0 1.32 0 2 0 C2.33 1.65 2.66 3.3 3 5 C-0.63 4.67 -4.26 4.34 -8 4 C-8 3.67 -8 3.34 -8 3 C-5.36 3 -2.72 3 0 3 C0 2.01 0 1.02 0 0 Z " fill="#253C54" transform="translate(196,101)"/>
<path d="M0 0 C0.66 0.33 1.32 0.66 2 1 C2 1.99 2 2.98 2 4 C3.65 3.67 5.3 3.34 7 3 C7 3.66 7 4.32 7 5 C4.6875 5.6875 4.6875 5.6875 2 6 C0.1875 4.5625 0.1875 4.5625 -1 3 C-0.67 2.01 -0.34 1.02 0 0 Z " fill="#63748B" transform="translate(313,101)"/>
<path d="M0 0 C0.598125 0.763125 1.19625 1.52625 1.8125 2.3125 C3.46959332 4.3483575 5.10297674 6.1978279 7 8 C4 8 4 8 1.875 6.1875 C0 4 0 4 -1 1 C-0.67 0.67 -0.34 0.34 0 0 Z " fill="#566C83" transform="translate(492,97)"/>
<path d="M0 0 C0.66 0 1.32 0 2 0 C1.125 4.875 1.125 4.875 0 6 C-2.33297433 6.04092937 -4.66705225 6.04241723 -7 6 C-4.68143083 4.45428722 -2.49361571 3.20381448 0 2 C0 1.34 0 0.68 0 0 Z " fill="#4C647D" transform="translate(385,95)"/>
<path d="M0 0 C0 0.33 0 0.66 0 1 C-3.3 1.33 -6.6 1.66 -10 2 C-10 1.01 -10 0.02 -10 -1 C-6.18510326 -2.46726798 -3.70988378 -1.43336419 0 0 Z " fill="#536B8A" transform="translate(472,83)"/>
<path d="M0 0 C1.98 0 3.96 0 6 0 C7.6415049 3.2830098 6.51888624 6.42545033 6 10 C5.67 10 5.34 10 5 10 C5 7.36 5 4.72 5 2 C3.35 1.67 1.7 1.34 0 1 C0 0.67 0 0.34 0 0 Z " fill="#677990" transform="translate(350,76)"/>
<path d="M0 0 C0 0.99 0 1.98 0 3 C0.66 3 1.32 3 2 3 C2 3.66 2 4.32 2 5 C-0.97 4.505 -0.97 4.505 -4 4 C-4 3.01 -4 2.02 -4 1 C-2 0 -2 0 0 0 Z " fill="#80C4BC" transform="translate(120,41)"/>
<path d="M0 0 C0.66 0.33 1.32 0.66 2 1 C2 1.66 2 2.32 2 3 C0.68 3 -0.64 3 -2 3 C-2 3.66 -2 4.32 -2 5 C-3.32 5 -4.64 5 -6 5 C-6 4.34 -6 3.68 -6 3 C-4.03533587 1.93224776 -2.03144641 0.93446535 0 0 Z " fill="#F19658" transform="translate(74,127)"/>
<path d="M0 0 C0.66 0 1.32 0 2 0 C2 1.32 2 2.64 2 4 C-1 6.25 -1 6.25 -4 8 C-3.67 6.35 -3.34 4.7 -3 3 C-2.01 3 -1.02 3 0 3 C0 2.01 0 1.02 0 0 Z " fill="#29405F" transform="translate(546,93)"/>
<path d="M0 0 C1.485 0.99 1.485 0.99 3 2 C2.33333333 5.33333333 1.66666667 8.66666667 1 12 C0.67 12 0.34 12 0 12 C0 8.04 0 4.08 0 0 Z " fill="#142D51" transform="translate(475,82)"/>
<path d="M0 0 C3.17538332 0.34021964 4.02276865 1.02466604 6.25 3.4375 C8 6 8 6 8 8 C7.34 8 6.68 8 6 8 C4.97388051 6.34928604 3.97691857 4.68029994 3 3 C1.41754725 1.24850835 1.41754725 1.24850835 0 0 Z " fill="#415672" transform="translate(472,78)"/>
<path d="M0 0 C0.99 0.33 1.98 0.66 3 1 C4.03039555 5.53374042 4.17766075 6.64467851 2 11 C1.34 7.37 0.68 3.74 0 0 Z " fill="#3F5972" transform="translate(147,78)"/>
<path d="M0 0 C-0.33 0.99 -0.66 1.98 -1 3 C-1.99 2.67 -2.98 2.34 -4 2 C-4 2.66 -4 3.32 -4 4 C-5.32 3.67 -6.64 3.34 -8 3 C-5.53387212 -0.1151089 -3.89156016 -0.31553191 0 0 Z " fill="#324664" transform="translate(88,147)"/>
<path d="M0 0 C0.99 0 1.98 0 3 0 C3.33 0.99 3.66 1.98 4 3 C3.34 3 2.68 3 2 3 C1.67 3.99 1.34 4.98 1 6 C0.34 5.34 -0.32 4.68 -1 4 C-0.625 1.875 -0.625 1.875 0 0 Z " fill="#1D3451" transform="translate(422,97)"/>
<path d="M0 0 C0.33 0.66 0.66 1.32 1 2 C0.34 2 -0.32 2 -1 2 C-1.33 3.65 -1.66 5.3 -2 7 C-2.66 7 -3.32 7 -4 7 C-4.33 7.66 -4.66 8.32 -5 9 C-4.5206753 4.68607774 -3.2542015 2.83430453 0 0 Z " fill="#294261" transform="translate(32,53)"/>
<path d="M0 0 C0.99 0.33 1.98 0.66 3 1 C2.67 1.66 2.34 2.32 2 3 C-1.96 3 -5.92 3 -10 3 C-10 2.67 -10 2.34 -10 2 C-6.7 2 -3.4 2 0 2 C0 1.34 0 0.68 0 0 Z " fill="#203452" transform="translate(290,102)"/>
<path d="M0 0 C0.33 1.32 0.66 2.64 1 4 C-0.65 4.66 -2.3 5.32 -4 6 C-4.33 5.34 -4.66 4.68 -5 4 C-4.01 4 -3.02 4 -2 4 C-2 3.01 -2 2.02 -2 1 C-1.34 0.67 -0.68 0.34 0 0 Z " fill="#657588" transform="translate(266,101)"/>
<path d="M0 0 C0 0.99 0 1.98 0 3 C-2.31 3.66 -4.62 4.32 -7 5 C-6 2 -6 2 -4.0625 0.8125 C-2 0 -2 0 0 0 Z " fill="#3A516D" transform="translate(98,74)"/>
<path d="M0 0 C0.66 0 1.32 0 2 0 C2.66 2.31 3.32 4.62 4 7 C3.01 7 2.02 7 1 7 C0.67 4.69 0.34 2.38 0 0 Z " fill="#435971" transform="translate(51,69)"/>
<path d="M0 0 C0.99 0.33 1.98 0.66 3 1 C2.34 2.32 1.68 3.64 1 5 C-0.65 5 -2.3 5 -4 5 C-3.01 4.67 -2.02 4.34 -1 4 C-0.26676204 1.98491642 -0.26676204 1.98491642 0 0 Z " fill="#697D8E" transform="translate(103,29)"/>
</svg>
