<?xml version="1.0" encoding="UTF-8"?>
<svg version="1.1" xmlns="http://www.w3.org/2000/svg" width="648" height="182">
<path d="M0 0 C4.27615045 2.64343846 8.59669131 4.94470322 13.125 7.125 C13.125 7.785 13.125 8.445 13.125 9.125 C13.72441406 9.36605469 14.32382813 9.60710938 14.94140625 9.85546875 C17.56741952 11.38222065 18.49548693 12.85474993 20.0625 15.4375 C21.73477226 18.18114446 23.25635127 20.25134741 25.5859375 22.4921875 C28.435825 25.44730162 30.00744626 28.25843541 31.8125 31.9375 C32.39386719 33.09894531 32.97523438 34.26039062 33.57421875 35.45703125 C36.30679144 41.92021956 37.48418745 48.20542035 37.875 55.1875 C37.91592773 55.91775391 37.95685547 56.64800781 37.99902344 57.40039062 C38.43750112 67.86056952 37.24388587 78.43450917 33.125 88.125 C32.78339844 89.01058594 32.44179687 89.89617187 32.08984375 90.80859375 C24.76598963 107.67361562 10.36387787 118.66155992 -6 126 C-21.68823003 132.1066898 -36.79218726 130.3608234 -52.875 127.125 C-52.875 125.805 -52.875 124.485 -52.875 123.125 C-52.07578125 122.82207031 -51.2765625 122.51914063 -50.453125 122.20703125 C-43.99193764 119.74237645 -37.57328276 117.20676116 -31.203125 114.515625 C-28.63699621 113.44339278 -26.06562053 112.39408887 -23.484375 111.359375 C-22.7222168 111.05177246 -21.96005859 110.74416992 -21.17480469 110.42724609 C-19.67210525 109.82138065 -18.16760977 109.21994586 -16.66113281 108.62353516 C-12.97986493 107.13235615 -10.00922107 105.61128114 -6.875 103.125 C-6.215 103.125 -5.555 103.125 -4.875 103.125 C-4.4109375 101.949375 -4.4109375 101.949375 -3.9375 100.75 C-2.875 98.125 -2.875 98.125 -1.875 96.125 C-1.3677035 90.56968752 -1.11239578 85.70669764 -3.5625 80.625 C-7.67010309 76.18434801 -10.84238179 73.3814901 -17.015625 72.859375 C-21.73843881 73.18442696 -25.30058666 74.54182957 -29.625 76.375 C-30.47408936 76.7248999 -31.32317871 77.0747998 -32.19799805 77.43530273 C-45.85373027 83.12062097 -59.43669353 89.08276868 -72.7890625 95.44921875 C-73.48539795 95.78107178 -74.1817334 96.1129248 -74.89916992 96.45483398 C-76.6547332 97.29912619 -78.40387849 98.15672978 -80.15234375 99.015625 C-82.875 100.125 -82.875 100.125 -86.875 100.125 C-90.98153448 92.31695909 -94.86231322 84.77955316 -96.875 76.125 C-97.05804688 75.3721875 -97.24109375 74.619375 -97.4296875 73.84375 C-100.53514533 54.88411273 -95.3342699 37.33064758 -85.1484375 21.4296875 C-73.3847543 5.42884826 -57.49855781 -2.71760347 -38.46875 -6.33203125 C-25.73248066 -8.22730942 -11.01199018 -6.96824296 0 0 Z " fill="#1C375B" transform="translate(148.875,24.875)"/>
<path d="M0 0 C4.27615045 2.64343846 8.59669131 4.94470322 13.125 7.125 C13.125 7.785 13.125 8.445 13.125 9.125 C13.72441406 9.36605469 14.32382813 9.60710938 14.94140625 9.85546875 C17.56741952 11.38222065 18.49548693 12.85474993 20.0625 15.4375 C21.73477226 18.18114446 23.25635127 20.25134741 25.5859375 22.4921875 C28.435825 25.44730162 30.00744626 28.25843541 31.8125 31.9375 C32.39386719 33.09894531 32.97523438 34.26039062 33.57421875 35.45703125 C36.35544154 42.03528867 37.46179838 48.33354405 37.8125 55.4375 C37.87111206 56.54182373 37.87111206 56.54182373 37.9309082 57.66845703 C38.61465333 72.89052001 38.61465333 72.89052001 35.125 78.125 C33.97401381 74.67204144 34.42424576 73.62877118 35.125 70.125 C35.30249379 67.14558774 35.31006403 64.17156339 35.3125 61.1875 C35.32474609 60.40181641 35.33699219 59.61613281 35.34960938 58.80664062 C35.36134653 54.13133897 34.75580752 50.55695925 33.125 46.125 C32.89836014 43.41438725 33.0309132 40.85351708 33.125 38.125 C32.465 38.125 31.805 38.125 31.125 38.125 C29.475 34.165 27.825 30.205 26.125 26.125 C23.815 26.125 21.505 26.125 19.125 26.125 C19.125 26.785 19.125 27.445 19.125 28.125 C14.24258433 30.24778942 9.32524336 32.2401233 4.359375 34.16015625 C1.91081974 35.13822403 1.91081974 35.13822403 -0.875 37.125 C-2.195 37.125 -3.515 37.125 -4.875 37.125 C-4.875 37.785 -4.875 38.445 -4.875 39.125 C-5.98617187 39.50011719 -7.09734375 39.87523437 -8.2421875 40.26171875 C-15.69369383 42.81316816 -22.83172807 45.43903931 -29.828125 49.08984375 C-36.41130099 52.41912169 -43.60885446 53.04564242 -50.875 52.125 C-54.04531522 50.53519383 -56.61277322 48.67989341 -59.125 46.1875 C-59.62515625 45.70410156 -60.1253125 45.22070312 -60.640625 44.72265625 C-63.28365974 41.30176635 -62.9871941 37.54930452 -62.9375 33.375 C-62.92847656 32.39015625 -62.91945313 31.4053125 -62.91015625 30.390625 C-62.89855469 29.64296875 -62.88695313 28.8953125 -62.875 28.125 C-62.215 28.125 -61.555 28.125 -60.875 28.125 C-60.83375 27.42375 -60.7925 26.7225 -60.75 26 C-59.52467434 21.97392998 -57.3167439 19.51528134 -53.875 17.125 C-51.21687378 16.05947031 -48.57310156 15.07484037 -45.875 14.125 C-42.82693075 12.97494834 -39.78906896 11.79860336 -36.75 10.625 C-35.97785156 10.32980469 -35.20570312 10.03460938 -34.41015625 9.73046875 C-30.99643012 8.41033957 -27.72213552 7.04839366 -24.4453125 5.40625 C-21.875 4.125 -21.875 4.125 -19.875 4.125 C-19.875 3.465 -19.875 2.805 -19.875 2.125 C-17.235 1.465 -14.595 0.805 -11.875 0.125 C-11.875 -0.535 -11.875 -1.195 -11.875 -1.875 C-38.50509689 -3.52400843 -38.50509689 -3.52400843 -62.875 5.125 C-63.65101562 5.55683594 -64.42703125 5.98867188 -65.2265625 6.43359375 C-74.08737757 11.37262813 -80.27823389 17.72985083 -85.875 26.125 C-86.205 25.465 -86.535 24.805 -86.875 24.125 C-74.47459167 6.75621614 -59.09937265 -2.4135526 -38.46875 -6.33203125 C-25.73248066 -8.22730942 -11.01199018 -6.96824296 0 0 Z " fill="#F2F4F6" transform="translate(148.875,24.875)"/>
<path d="M0 0 C4.23364665 4.12509161 5.90352637 8.3320594 6.43359375 14.23046875 C6.44682035 21.49187184 4.46023925 26.22669227 -0.5625 31.375 C-1.2225 32.035 -1.8825 32.695 -2.5625 33.375 C0.4075 33.705 3.3775 34.035 6.4375 34.375 C6.9325 37.84 6.9325 37.84 7.4375 41.375 C1.22497339 42.54425104 -2.88312445 42.65156282 -8.5625 39.375 C-10.25066933 37.73011706 -11.91603315 36.06162458 -13.5625 34.375 C-14.90135579 33.55770651 -16.25690458 32.76734503 -17.625 32 C-21.62327563 29.5360343 -24.2749589 26.98261563 -25.5625 22.375 C-26.29405486 15.63965011 -26.6622592 9.08537888 -22.5625 3.375 C-16.90599111 -3.16533841 -7.64183622 -3.48574986 0 0 Z M-14.25 7.1875 C-17.18850872 11.23787688 -17.22243342 13.86949542 -16.984375 18.76953125 C-16.4062513 22.33998042 -15.41239691 24.14129702 -12.5625 26.375 C-10.0625 27.125 -10.0625 27.125 -7.5625 26.375 C-4.92853987 24.69219214 -3.80663441 23.32323221 -3.0234375 20.28125 C-2.39086931 15.86798358 -2.14115896 12.29526645 -4.5625 8.375 C-8.05460499 5.10819211 -10.08663086 4.37964639 -14.25 7.1875 Z " fill="#FFFFFF" transform="translate(479.5625,67.625)"/>
<path d="M0 0 C3.3 0 6.6 0 10 0 C12.97 5.61 15.94 11.22 19 17 C19.33 11.39 19.66 5.78 20 0 C22.64 0 25.28 0 28 0 C28 11.22 28 22.44 28 34 C24.7 34 21.4 34 18 34 C15.03 28.06 12.06 22.12 9 16 C9 21.94 9 27.88 9 34 C6.03 34 3.06 34 0 34 C0 22.78 0 11.56 0 0 Z " fill="#FFFFFF" transform="translate(264,66)"/>
<path d="M0 0 C2.97 0 5.94 0 9 0 C11.97 5.28 14.94 10.56 18 16 C18.33 10.72 18.66 5.44 19 0 C21.64 0 24.28 0 27 0 C27 11.22 27 22.44 27 34 C24.03 34 21.06 34 18 34 C15.03 28.39 12.06 22.78 9 17 C8.67 22.61 8.34 28.22 8 34 C5.36 34 2.72 34 0 34 C0 22.78 0 11.56 0 0 Z M19 19 C20 21 20 21 20 21 Z " fill="#FFFFFF" transform="translate(348,66)"/>
<path d="M0 0 C3.196875 -0.0825 6.39375 -0.165 9.6875 -0.25 C10.68612061 -0.28641602 11.68474121 -0.32283203 12.71362305 -0.36035156 C16.98285395 -0.41369006 19.36670269 -0.38848656 23.08203125 1.890625 C25.89207478 4.98110057 26.17707246 6.77890319 26.25 10.875 C26.27578125 11.73867187 26.3015625 12.60234375 26.328125 13.4921875 C25.93690173 16.48225103 25.07073811 17.83879275 23 20 C22.34 20 21.68 20 21 20 C24.465 26.93 24.465 26.93 28 34 C24.7 34 21.4 34 18 34 C17.60167969 33.21753906 17.20335937 32.43507812 16.79296875 31.62890625 C16.26316406 30.61699219 15.73335937 29.60507813 15.1875 28.5625 C14.40439453 27.04849609 14.40439453 27.04849609 13.60546875 25.50390625 C12.18581516 22.71308782 12.18581516 22.71308782 9 22 C9 25.96 9 29.92 9 34 C6.03 34 3.06 34 0 34 C0 22.78 0 11.56 0 0 Z M9 7 C9 9.64 9 12.28 9 15 C12.41642759 15.25015873 12.41642759 15.25015873 16 15 C18.28600028 12.29667695 18.28600028 12.29667695 17.6875 9.875 C17.15421514 8.01406147 17.15421514 8.01406147 16 7 C13.66702567 6.95907063 11.33294775 6.95758277 9 7 Z " fill="#FFFFFF" transform="translate(555,66)"/>
<path d="M0 0 C17 0 17 0 24 4 C28.17043778 10.14052188 27.78084101 16.84511983 27 24 C25.98517432 26.72112571 25.04277166 27.84049853 23 30 C22.484375 30.598125 21.96875 31.19625 21.4375 31.8125 C15.71209701 36.54218073 6.23952768 34 0 34 C0 22.78 0 11.56 0 0 Z M8 7 C8 13.6 8 20.2 8 27 C14.54021971 26.72892532 14.54021971 26.72892532 16.875 24.3125 C18.85109376 20.2505295 19.28863969 17.22671867 18.25 12.8125 C16.76226461 9.3485153 16.76226461 9.3485153 14 7 C12.02 7 10.04 7 8 7 Z " fill="#FFFFFF" transform="translate(299,66)"/>
<path d="M0 0 C1.03769531 -0.02578125 2.07539063 -0.0515625 3.14453125 -0.078125 C6.54901636 0.28898251 8.41142285 1.3000752 11.1875 3.25 C10.61405063 6.11724686 10.3260485 7.1114515 8.1875 9.25 C5.98046875 9.05078125 5.98046875 9.05078125 3.375 8.5625 C-0.56410521 8.09505191 -1.42956618 8.01258103 -4.9375 10.1875 C-7.47757197 14.33628421 -7.27156616 16.4298053 -6.8125 21.25 C-6.4825 22.57 -6.1525 23.89 -5.8125 25.25 C-2.8425 25.58 0.1275 25.91 3.1875 26.25 C3.5175 24.6 3.8475 22.95 4.1875 21.25 C2.2075 21.25 0.2275 21.25 -1.8125 21.25 C-1.8125 18.94 -1.8125 16.63 -1.8125 14.25 C2.8075 14.25 7.4275 14.25 12.1875 14.25 C12.1875 19.86 12.1875 25.47 12.1875 31.25 C5.31187901 34.6878105 -0.48830131 35.75899749 -8.00390625 33.62890625 C-12.1708763 31.6039208 -14.37289252 28.65142073 -16.15625 24.53125 C-17.70201913 19.15786208 -17.47500248 14.20070174 -15.6875 8.9375 C-11.55985946 3.02121522 -7.23641133 0.1070739 0 0 Z " fill="#FFFFFF" transform="translate(397.8125,65.75)"/>
<path d="M0 0 C2.97 0 5.94 0 9 0 C9.33 8.58 9.66 17.16 10 26 C11.98 26 13.96 26 16 26 C18.60088622 23.39911378 18.29962225 22.17862887 18.4140625 18.5546875 C18.45273437 17.47832031 18.49140625 16.40195313 18.53125 15.29296875 C18.57765625 13.60107422 18.57765625 13.60107422 18.625 11.875 C18.66367187 10.73933594 18.70234375 9.60367188 18.7421875 8.43359375 C18.83667601 5.62256044 18.92223541 2.81153767 19 0 C21.97 0 24.94 0 28 0 C28.08776185 3.68734775 28.14064603 7.37442347 28.1875 11.0625 C28.21263672 12.10083984 28.23777344 13.13917969 28.26367188 14.20898438 C28.33345917 21.53664989 27.73596791 26.55797585 23.0625 32.4375 C18.26816877 34.88358736 13.27579265 34.77874067 8 34 C4.82360382 32.6380278 3.28241517 31.3736947 1.19921875 28.6171875 C-0.61629747 23.14107018 -0.31349672 17.84977421 -0.1875 12.125 C-0.17396484 10.9596875 -0.16042969 9.794375 -0.14648438 8.59375 C-0.11125821 5.72868882 -0.06199715 2.86458623 0 0 Z " fill="#FFFFFF" transform="translate(491,66)"/>
<path d="M0 0 C3.63 0 7.26 0 11 0 C12.42976783 4.35813007 13.85377068 8.71808526 15.27246094 13.07983398 C15.75590503 14.56342333 16.24092125 16.04650134 16.72753906 17.52905273 C17.42666824 19.65996993 18.12012543 21.79266126 18.8125 23.92578125 C19.03123779 24.58838455 19.24997559 25.25098785 19.4753418 25.93367004 C20.38547586 28.75405555 21 31.01399134 21 34 C18.03 34 15.06 34 12 34 C11.34 31.36 10.68 28.72 10 26 C7.03 26.33 4.06 26.66 1 27 C0.34 29.31 -0.32 31.62 -1 34 C-3.97 34 -6.94 34 -10 34 C-8.48020523 26.45701858 -6.26246686 19.24753545 -3.875 11.9375 C-3.50246094 10.78572266 -3.12992188 9.63394531 -2.74609375 8.44726562 C-1.83438653 5.63032408 -0.91770104 2.81499459 0 0 Z M5 9 C3.515 14.445 3.515 14.445 2 20 C3.98 20 5.96 20 8 20 C7.34 16.37 6.68 12.74 6 9 C5.67 9 5.34 9 5 9 Z " fill="#FFFFFF" transform="translate(531,66)"/>
<path d="M0 0 C7.26 0 14.52 0 22 0 C22 2.31 22 4.62 22 7 C17.71 7 13.42 7 9 7 C9 8.98 9 10.96 9 13 C12.63 13 16.26 13 20 13 C20 15.31 20 17.62 20 20 C16.37 20 12.74 20 9 20 C9 22.31 9 24.62 9 27 C13.62 27 18.24 27 23 27 C23 29.31 23 31.62 23 34 C15.41 34 7.82 34 0 34 C0 22.78 0 11.56 0 0 Z " fill="#FFFFFF" transform="translate(587,66)"/>
<path d="M0 0 C2.875 1.52734375 2.875 1.52734375 5 3 C4.60196439 5.88575819 4.20990931 6.82189513 1.9375 8.75 C1.298125 9.1625 0.65875 9.575 0 10 C-0.556875 9.649375 -1.11375 9.29875 -1.6875 8.9375 C-4.53886783 7.78154007 -6.08517222 8.19032562 -9 9 C-6.73206608 11.55869468 -4.6595923 12.73616308 -1.5 14 C1.61808664 15.24723466 3.9418068 16.28575771 6 19 C6.68863568 22.06442875 6.59406659 24.92165492 6 28 C3.81840855 30.75569447 2.12822506 32.43588747 -1 34 C-8.49056481 34.69336032 -13.84974015 34.47291625 -20 30 C-19.03493328 27.58733319 -18.27646516 26.20973219 -16.1875 24.625 C-13.19363845 23.76961099 -11.82331049 24.79000979 -9 26 C-5.79129767 26.16757757 -5.79129767 26.16757757 -3 26 C-3.69116044 22.77894961 -3.69116044 22.77894961 -6.6171875 21.60546875 C-8.78182991 20.66330425 -10.94849316 19.7257686 -13.1171875 18.79296875 C-16.62359837 16.61215223 -17.61833991 14.85175024 -19 11 C-18.45398239 7.04137231 -17.5568097 4.72385261 -15.125 1.5625 C-10.28673025 -0.85663488 -5.30729883 -0.78339118 0 0 Z " fill="#FFFFFF" transform="translate(444,66)"/>
<path d="M0 0 C7.26 0 14.52 0 22 0 C22 2.31 22 4.62 22 7 C17.38 7 12.76 7 8 7 C8 8.98 8 10.96 8 13 C11.96 13 15.92 13 20 13 C20 15.31 20 17.62 20 20 C16.04 20 12.08 20 8 20 C8 22.31 8 24.62 8 27 C12.62 27 17.24 27 22 27 C22 29.31 22 31.62 22 34 C14.74 34 7.48 34 0 34 C0 22.78 0 11.56 0 0 Z " fill="#FFFFFF" transform="translate(236,66)"/>
<path d="M0 0 C2.3125 1.375 2.3125 1.375 4 3 C4 3.99 4 4.98 4 6 C3.01 6.38671875 2.02 6.7734375 1 7.171875 C-7.25500319 10.35544099 -7.25500319 10.35544099 -15.25 14.125 C-19.05481256 16.11760658 -23.00693411 17.50121503 -27.0546875 18.921875 C-31.19692959 20.43813338 -35.22986183 22.18900993 -39.2734375 23.94921875 C-41.85648126 24.94468977 -44.2747042 25.54908742 -47 26 C-47 26.66 -47 27.32 -47 28 C-49.33294775 28.04241723 -51.66702567 28.04092937 -54 28 C-55 27 -55 27 -55.4375 24.1875 C-55 21 -55 21 -52.5625 18.8125 C-47.16810719 16.06798436 -41.69257602 14.37164297 -35.8125 13 C-32.1960118 12.05141293 -29.29586723 10.72640664 -26 9 C-25.34 9 -24.68 9 -24 9 C-24 8.34 -24 7.68 -24 7 C-20.94682321 5.62407798 -17.88125974 4.27826374 -14.8125 2.9375 C-13.94818359 2.54755859 -13.08386719 2.15761719 -12.19335938 1.75585938 C-11.35224609 1.39169922 -10.51113281 1.02753906 -9.64453125 0.65234375 C-8.87471924 0.31195068 -8.10490723 -0.02844238 -7.31176758 -0.37915039 C-4.49925263 -1.134481 -2.77462242 -0.81227409 0 0 Z " fill="#7FC3BC" transform="translate(160,34)"/>
<path d="M0 0 C2.64 0 5.28 0 8 0 C8 8.91 8 17.82 8 27 C12.62 27 17.24 27 22 27 C22 29.31 22 31.62 22 34 C14.74 34 7.48 34 0 34 C0 22.78 0 11.56 0 0 Z " fill="#FFFFFF" transform="translate(209,66)"/>
<path d="M0 0 C2.97 0 5.94 0 9 0 C9 11.22 9 22.44 9 34 C6.03 34 3.06 34 0 34 C0 22.78 0 11.56 0 0 Z " fill="#FFFFFF" transform="translate(332,66)"/>
<path d="M0 0 C0 1.32 0 2.64 0 4 C-3.3 4.99 -6.6 5.98 -10 7 C-10 6.34 -10 5.68 -10 5 C-7.36 4.34 -4.72 3.68 -2 3 C-2 2.34 -2 1.68 -2 1 C-28.63009689 -0.64900843 -28.63009689 -0.64900843 -53 8 C-53.77601562 8.43183594 -54.55203125 8.86367188 -55.3515625 9.30859375 C-64.21237757 14.24762813 -70.40323389 20.60485083 -76 29 C-76.33 28.34 -76.66 27.68 -77 27 C-67.68177731 13.94831722 -54.00704687 1.42209946 -37.60546875 -1.4140625 C-24.9452622 -2.51850701 -12.47406669 -2.69189878 0 0 Z " fill="#5C708A" transform="translate(139,22)"/>
<path d="M0 0 C0.66 0.33 1.32 0.66 2 1 C-1.89195903 3.45362635 -5.36943351 5.21618314 -9.8125 6.4375 C-15.194657 7.93988125 -20.22617867 10.0778427 -25 13 C-25.33 13.66 -25.66 14.32 -26 15 C-20.66859832 15.74294895 -15.45097655 16.19263249 -10.0625 16.1875 C-8.98464233 16.1884668 -8.98464233 16.1884668 -7.88500977 16.18945312 C0.15013183 16.11280354 8.05227037 15.11407474 16 14 C10.96660139 19.03339861 0.53030078 19.202202 -6.3125 19.375 C-14.33242211 19.19633837 -22.15829595 17.57773207 -30 16 C-30 14.68 -30 13.36 -30 12 C-29.20078125 11.69707031 -28.4015625 11.39414063 -27.578125 11.08203125 C-20.89049442 8.53099846 -14.2515222 5.89452928 -7.65625 3.11328125 C-6.7796875 2.74589844 -5.903125 2.37851563 -5 2 C-3.65421875 1.40251953 -3.65421875 1.40251953 -2.28125 0.79296875 C-1.15203125 0.40044922 -1.15203125 0.40044922 0 0 Z " fill="#A0AAB9" transform="translate(126,136)"/>
<path d="M0 0 C0.33 0.66 0.66 1.32 1 2 C0.07421875 4.42578125 0.07421875 4.42578125 -1.3125 7.3125 C-2.21389792 9.20569391 -3.10983195 11.1015 -4 13 C-4.34877197 13.71075684 -4.69754395 14.42151367 -5.05688477 15.15380859 C-6.29323571 18.88494482 -6.35506205 22.47298084 -6.4140625 26.36328125 C-6.43342865 27.15526413 -6.4527948 27.94724701 -6.4727478 28.76322937 C-6.53227232 31.27954519 -6.57881958 33.79590744 -6.625 36.3125 C-6.66320481 38.0241079 -6.70225799 39.73569709 -6.7421875 41.44726562 C-6.8379513 45.63135749 -6.9220818 49.81553931 -7 54 C-12.46620074 43.43524907 -10.81882283 28.67569882 -8.1328125 17.44921875 C-6.11009055 11.29037916 -3.13731897 5.65576955 0 0 Z " fill="#CAD0D8" transform="translate(61,51)"/>
<path d="M0 0 C-0.88042969 0.31453125 -1.76085937 0.6290625 -2.66796875 0.953125 C-3.82941406 1.38109375 -4.99085937 1.8090625 -6.1875 2.25 C-7.33605469 2.66765625 -8.48460937 3.0853125 -9.66796875 3.515625 C-12.98813057 4.99471233 -15.21124733 6.70494996 -18 9 C-18.99 9.49113281 -19.98 9.98226563 -21 10.48828125 C-28.96736794 14.50308775 -35.09398908 21.68086989 -40 29 C-40.33 28.34 -40.66 27.68 -41 27 C-34.08952684 17.32076111 -14.06918585 -5.41122533 0 0 Z " fill="#C6CDD6" transform="translate(103,22)"/>
<path d="M0 0 C0.80695313 0.04125 1.61390625 0.0825 2.4453125 0.125 C6.91674533 0.47006234 8.87269631 0.66941603 12 4 C11.13689209 3.8928064 11.13689209 3.8928064 10.25634766 3.78344727 C3.2763784 2.99262352 -3.60586692 2.88206335 -10.625 2.9375 C-11.72457031 2.94201172 -12.82414062 2.94652344 -13.95703125 2.95117188 C-16.63808003 2.96282861 -19.31900932 2.97918983 -22 3 C-22 2.67 -22 2.34 -22 2 C-14.62937481 0.72409579 -7.48930523 -0.43893364 0 0 Z " fill="#D0D6DD" transform="translate(125,18)"/>
<path d="M0 0 C0.33 0 0.66 0 1 0 C1 9.57 1 19.14 1 29 C-3.35491265 20.29017469 -2.64987048 9.25209016 0 0 Z " fill="#79889D" transform="translate(53,76)"/>
<path d="M0 0 C0.56847656 0.2165625 1.13695313 0.433125 1.72265625 0.65625 C9.14214606 3.33172546 14.48035256 3.71987248 22 1 C23.99369031 0.63079809 25.99279077 0.28674418 28 0 C25.9665663 2.42447865 24.56360035 3.8309199 21.5 4.75 C6.22973614 5.84073313 6.22973614 5.84073313 1 2 C0.67 1.34 0.34 0.68 0 0 Z " fill="#B4BDC9" transform="translate(92,72)"/>
<path d="M0 0 C3 1 3 1 4.53515625 3.58984375 C7.61454588 10.33929876 10.03406606 16.62226321 11 24 C9 23 9 23 7.875 20.1875 C7 17 7 17 7 13 C6.34 13 5.68 13 5 13 C3.35 8.71 1.7 4.42 0 0 Z " fill="#CCD2D9" transform="translate(175,50)"/>
<path d="M0 0 C1.32 0.33 2.64 0.66 4 1 C3.01 1 2.02 1 1 1 C1 1.66 1 2.32 1 3 C-5.28543527 6.43796251 -10.93463111 8.74646681 -18 10 C-17.34 9.01 -16.68 8.02 -16 7 C-14.68 7 -13.36 7 -12 7 C-12 6.34 -12 5.68 -12 5 C-10.75336669 4.49166409 -9.50250613 3.99368855 -8.25 3.5 C-7.55390625 3.2215625 -6.8578125 2.943125 -6.140625 2.65625 C-4 2 -4 2 0 2 C0 1.34 0 0.68 0 0 Z " fill="#CEE7E5" transform="translate(135,40)"/>
<path d="M0 0 C-1.60032137 0.84069415 -3.20541171 1.67231505 -4.8125 2.5 C-6.15248047 3.19609375 -6.15248047 3.19609375 -7.51953125 3.90625 C-10 5 -10 5 -13 5 C-12.67 6.32 -12.34 7.64 -12 9 C-9.03 9.495 -9.03 9.495 -6 10 C-6 10.33 -6 10.66 -6 11 C-8.33294775 11.04241723 -10.66702567 11.04092937 -13 11 C-14 10 -14 10 -14.4375 7.1875 C-14 4 -14 4 -11.25 1.6875 C-6.79663753 -0.62482282 -4.79229794 -1.30247102 0 0 Z " fill="#A3D3CF" transform="translate(119,51)"/>
<path d="M0 0 C-9.79538755 3.13373566 -17.75198522 4.2045587 -28 3 C-28 2.67 -28 2.34 -28 2 C-23.89716917 1.46825886 -19.79259085 0.95147802 -15.6875 0.4375 C-14.52025391 0.28603516 -13.35300781 0.13457031 -12.15039062 -0.02148438 C-11.03212891 -0.16005859 -9.91386719 -0.29863281 -8.76171875 -0.44140625 C-7.73006592 -0.57232666 -6.69841309 -0.70324707 -5.63549805 -0.83813477 C-3 -1 -3 -1 0 0 Z " fill="#5B6B82" transform="translate(142,151)"/>
<path d="M0 0 C2.0625 0.4375 2.0625 0.4375 4 1 C1.25430077 2.34287473 -1.49594266 3.67446996 -4.25 5 C-5.02730469 5.3815625 -5.80460937 5.763125 -6.60546875 6.15625 C-7.35957031 6.5171875 -8.11367187 6.878125 -8.890625 7.25 C-9.58188477 7.58515625 -10.27314453 7.9203125 -10.98535156 8.265625 C-13 9 -13 9 -17 9 C-17 8.34 -17 7.68 -17 7 C-15.85660156 6.57847656 -14.71320313 6.15695313 -13.53515625 5.72265625 C-12.04421741 5.16941479 -10.55333489 4.61602153 -9.0625 4.0625 C-8.30775391 3.78470703 -7.55300781 3.50691406 -6.77539062 3.22070312 C-3.11220861 2.08246549 -3.11220861 2.08246549 0 0 Z " fill="#A1AAB7" transform="translate(79,116)"/>
<path d="M0 0 C2 2 2 2 2.1953125 4.8203125 C2.16050781 6.45613281 2.16050781 6.45613281 2.125 8.125 C2.10695312 9.22070312 2.08890625 10.31640625 2.0703125 11.4453125 C2.04710937 12.28835937 2.02390625 13.13140625 2 14 C1.34 14 0.68 14 0 14 C0 14.66 0 15.32 0 16 C-0.66 16 -1.32 16 -2 16 C-2.33 16.99 -2.66 17.98 -3 19 C-3.33 18.34 -3.66 17.68 -4 17 C-3.53980469 16.26394531 -3.07960937 15.52789062 -2.60546875 14.76953125 C-0.74761708 11.56462411 -0.51435101 9.3611883 -0.3125 5.6875 C-0.21388672 4.08455078 -0.21388672 4.08455078 -0.11328125 2.44921875 C-0.05720703 1.23685547 -0.05720703 1.23685547 0 0 Z " fill="#8493A6" transform="translate(148,109)"/>
<path d="M0 0 C-0.86625 0.4021875 -0.86625 0.4021875 -1.75 0.8125 C-4.01314506 1.90984464 -4.01314506 1.90984464 -5.78125 3.46875 C-8.38953675 5.26883522 -10.68375677 5.92093919 -13.75 6.6875 C-15.22726563 7.06455078 -15.22726563 7.06455078 -16.734375 7.44921875 C-17.48203125 7.63097656 -18.2296875 7.81273437 -19 8 C-16.63090914 4.44636371 -15.08151387 3.91139842 -11.1875 2.3125 C-10.14980469 1.87550781 -9.11210937 1.43851563 -8.04296875 0.98828125 C-5.13477234 0.04377074 -3.02621465 -0.20696847 0 0 Z " fill="#BBC3CE" transform="translate(168,52)"/>
<path d="M0 0 C2.1640625 0.3671875 2.1640625 0.3671875 4 1 C3.07213211 2.00894372 2.13231567 3.00690907 1.1875 4 C0.40439453 4.8353125 0.40439453 4.8353125 -0.39453125 5.6875 C-2 7 -2 7 -5 7 C-5 7.99 -5 8.98 -5 10 C-5.66 10 -6.32 10 -7 10 C-5.61166236 5.58256205 -3.60286648 2.9166062 0 0 Z " fill="#B0B9C6" transform="translate(95,42)"/>
<path d="M0 0 C1.25 3.0625 1.25 3.0625 2 6 C0 5 0 5 -1 2 C-4.96 2.66 -8.92 3.32 -13 4 C-12.67 3.34 -12.34 2.68 -12 2 C-10.68 2 -9.36 2 -8 2 C-8 1.34 -8 0.68 -8 0 C-5.00700971 -0.96203259 -2.87793741 -1.4389687 0 0 Z " fill="#5A6D88" transform="translate(176,51)"/>
<path d="M0 0 C0 0.66 0 1.32 0 2 C-1.72744016 2.65043719 -3.4570369 3.29514844 -5.1875 3.9375 C-6.15042969 4.29714844 -7.11335937 4.65679687 -8.10546875 5.02734375 C-10.7368278 5.91156562 -13.26894908 6.52568586 -16 7 C-13.52097896 4.06719206 -11.030738 3.06128178 -7.4375 1.8125 C-6.46683594 1.46832031 -5.49617187 1.12414063 -4.49609375 0.76953125 C-2 0 -2 0 0 0 Z " fill="#D7EBE9" transform="translate(164,40)"/>
<path d="M0 0 C0.66 0.33 1.32 0.66 2 1 C-0.22392098 4.33588148 -1.25794353 4.81176389 -4.875 6.25 C-5.73867187 6.60578125 -6.60234375 6.9615625 -7.4921875 7.328125 C-10.15398061 8.04125337 -11.44535019 7.92680319 -14 7 C-13.24074219 6.66226563 -12.48148438 6.32453125 -11.69921875 5.9765625 C-10.70535156 5.53054687 -9.71148437 5.08453125 -8.6875 4.625 C-7.70136719 4.18414062 -6.71523437 3.74328125 -5.69921875 3.2890625 C-2.87254793 2.01757242 -2.87254793 2.01757242 0 0 Z " fill="#9DA9B9" transform="translate(142,128)"/>
<path d="M0 0 C1.98 0 3.96 0 6 0 C6 0.66 6 1.32 6 2 C7.32 2.66 8.64 3.32 10 4 C10 5.32 10 6.64 10 8 C9.34 8 8.68 8 8 8 C7.67 7.01 7.34 6.02 7 5 C5.37051936 3.77554716 5.37051936 3.77554716 3.4375 2.8125 C2.303125 2.214375 1.16875 1.61625 0 1 C0 0.67 0 0.34 0 0 Z " fill="#E4F1F0" transform="translate(156,32)"/>
<path d="M0 0 C0.66 0.33 1.32 0.66 2 1 C-1.32307692 5.8 -1.32307692 5.8 -4.75 6.8125 C-5.4925 6.874375 -6.235 6.93625 -7 7 C-4.66666667 4.66666667 -2.33333333 2.33333333 0 0 Z " fill="#425977" transform="translate(80,32)"/>
<path d="M0 0 C-3.44069624 2.29379749 -4.72290301 3 -9 3 C-9 2.34 -9 1.68 -9 1 C-5.57367167 -0.61798838 -3.61944899 -1.34053666 0 0 Z " fill="#99A2AF" transform="translate(71,122)"/>
<path d="M0 0 C0.33 0.99 0.66 1.98 1 3 C-0.375 4.5 -0.375 4.5 -2 6 C-2.66 6 -3.32 6 -4 6 C-4 6.66 -4 7.32 -4 8 C-4.66 7.67 -5.32 7.34 -6 7 C-4.02 4.69 -2.04 2.38 0 0 Z " fill="#4B617D" transform="translate(72,39)"/>
</svg>
