<svg width="14" height="15" viewBox="0 0 14 15" fill="none" xmlns="http://www.w3.org/2000/svg">
<path d="M13.5898 9.92334C13.8086 10.0327 13.9727 10.2788 13.9727 10.5522C13.9727 10.5796 13.9727 10.6343 13.9727 10.689L13.3164 13.5327C13.2344 13.8335 12.9883 14.0249 12.6875 14.0249C5.66016 14.0249 0 8.36475 0 1.3374C0 1.03662 0.191406 0.790527 0.492188 0.708496L3.33594 0.0522461C3.39062 0.0522461 3.44531 0.0249023 3.47266 0.0249023C3.74609 0.0249023 3.99219 0.188965 4.10156 0.435059L5.41406 3.49756C5.44141 3.57959 5.46875 3.66162 5.46875 3.74365C5.46875 3.9624 5.35938 4.15381 5.22266 4.26318L3.55469 5.63037C4.56641 7.76318 6.26172 9.4585 8.39453 10.4702L9.76172 8.80225C9.87109 8.66553 10.0625 8.55615 10.2539 8.55615C10.3633 8.55615 10.4453 8.5835 10.5273 8.61084L13.5898 9.92334Z" fill="#213468"/>
</svg>
