<svg width="55" height="47" viewBox="0 0 55 47" fill="none" xmlns="http://www.w3.org/2000/svg">
<path fill-rule="evenodd" clip-rule="evenodd" d="M26.7447 13.5167H25.2739C25.1122 13.5167 24.9572 13.4525 24.8428 13.3382C24.7285 13.2238 24.6643 13.0688 24.6643 12.9071V10.8059C24.6643 10.6442 24.7285 10.4892 24.8428 10.3748C24.9572 10.2605 25.1122 10.1963 25.2739 10.1963H29.7252C29.8869 10.1963 30.042 10.2605 30.1563 10.3748C30.2706 10.4892 30.3349 10.6442 30.3349 10.8059V12.9071C30.3349 13.0688 30.2706 13.2238 30.1563 13.3382C30.042 13.4525 29.8869 13.5167 29.7252 13.5167H28.2545V16.21C28.0045 16.1968 27.7528 16.19 27.4996 16.19C27.2463 16.19 26.9946 16.1968 26.7447 16.21V13.5167ZM17.5061 16.8376L19.1828 18.9306C18.7776 19.2305 18.3892 19.5519 18.0192 19.8928L16.3129 17.763L12.474 20.7405C12.3145 20.5902 12.1651 20.4261 12.0274 20.2486C10.4012 18.1521 11.0087 14.9547 13.3832 13.1131C15.7576 11.2714 19.0055 11.4783 20.6317 13.5749C20.7694 13.7525 20.891 13.9379 20.997 14.1297L17.5061 16.8376ZM37.4931 16.8376L34.0021 14.1297C34.1081 13.9379 34.2297 13.7525 34.3674 13.5749C35.9936 11.4783 39.2415 11.2714 41.6159 13.1131C43.9904 14.9547 44.5979 18.1521 42.9717 20.2486C42.834 20.4261 42.6846 20.5902 42.5251 20.7405L38.6862 17.763L36.9799 19.8928C36.6099 19.5519 36.2215 19.2305 35.8163 18.9306L37.4931 16.8376ZM20.816 42.4879L17.9974 46.0602C17.4432 46.7627 16.4244 46.8829 15.722 46.3287C15.0195 45.7743 14.8994 44.7557 15.4536 44.0532L18.1655 40.6161C18.9706 41.3373 19.8596 41.9667 20.816 42.4879ZM36.8336 40.6161L39.5455 44.0532C40.0997 44.7557 39.9796 45.7743 39.2771 46.3287C38.5747 46.8829 37.5559 46.7627 37.0017 46.0602L34.1831 42.4879C35.1395 41.9667 36.0285 41.3373 36.8336 40.6161ZM27.4996 17.6998C34.3919 17.6998 39.9877 23.2955 39.9877 30.1879C39.9877 37.0804 34.3919 42.6761 27.4996 42.6761C20.6072 42.6761 15.0114 37.0804 15.0114 30.1879C15.0114 23.2955 20.6072 17.6998 27.4996 17.6998ZM28.3081 31.5264L30.9665 33.0613C31.3273 33.2696 31.7895 33.1458 31.9978 32.785C32.2061 32.4241 32.0822 31.9621 31.7214 31.7538L29.063 30.2188C29.0632 30.2086 29.0633 30.1982 29.0633 30.1879C29.0633 29.5985 28.7365 29.085 28.2545 28.8184V23.8946C28.2545 23.4779 27.9162 23.1397 27.4996 23.1397C27.083 23.1397 26.7447 23.4779 26.7447 23.8946V28.8184C26.2626 29.085 25.9358 29.5985 25.9358 30.1879C25.9358 31.051 26.6365 31.7516 27.4996 31.7516C27.7954 31.7516 28.0721 31.6693 28.3081 31.5264ZM3.87781 38.2207C4.02028 38.6122 3.81807 39.0457 3.42649 39.1882C3.03502 39.3306 2.60149 39.1284 2.45903 38.7368C1.426 35.8976 0.862305 32.8337 0.862305 29.6392C0.862305 26.4447 1.426 23.3808 2.45903 20.5415C2.60149 20.15 3.03502 19.9478 3.42649 20.0902C3.81807 20.2327 4.02028 20.6662 3.87781 21.0578C2.90345 23.7358 2.37211 26.6259 2.37211 29.6392C2.37211 32.6524 2.90345 35.5425 3.87781 38.2207ZM51.1213 21.0578C50.9788 20.6662 51.181 20.2327 51.5726 20.0902C51.9641 19.9478 52.3976 20.15 52.5401 20.5415C53.5731 23.3808 54.1368 26.4447 54.1368 29.6392C54.1368 32.8337 53.5731 35.8976 52.5401 38.7368C52.3976 39.1284 51.9641 39.3306 51.5726 39.1882C51.181 39.0457 50.9788 38.6122 51.1213 38.2207C52.0957 35.5425 52.627 32.6524 52.627 29.6392C52.627 26.6259 52.0957 23.7358 51.1213 21.0578ZM7.70204 22.4491C7.8445 22.0575 8.27803 21.8553 8.66961 21.9977C9.06108 22.1402 9.26329 22.5737 9.12082 22.9652C8.36312 25.048 7.95127 27.2959 7.95127 29.6392C7.95127 31.9826 8.36312 34.2304 9.12082 36.3132C9.26329 36.7047 9.06108 37.1383 8.66961 37.2807C8.27803 37.4232 7.8445 37.221 7.70204 36.8294C6.88567 34.5855 6.44146 32.1639 6.44146 29.6392C6.44146 27.1146 6.88567 24.693 7.70204 22.4491ZM47.2971 36.8294C47.1546 37.221 46.7211 37.4232 46.3295 37.2807C45.938 37.1383 45.7358 36.7047 45.8783 36.3132C46.636 34.2304 47.0479 31.9826 47.0479 29.6392C47.0479 27.2959 46.636 25.048 45.8783 22.9652C45.7358 22.5737 45.938 22.1402 46.3295 21.9977C46.7211 21.8553 47.1546 22.0575 47.2971 22.4491C48.1135 24.693 48.5577 27.1146 48.5577 29.6392C48.5577 32.1639 48.1135 34.5855 47.2971 36.8294ZM26.7447 0.853046C26.7447 0.436448 27.083 0.0981445 27.4996 0.0981445C27.9162 0.0981445 28.2545 0.436448 28.2545 0.853046V4.18637C28.2545 4.60308 27.9162 4.94127 27.4996 4.94127C27.083 4.94127 26.7447 4.60308 26.7447 4.18637V0.853046ZM18.4799 2.13983C18.372 1.73747 18.6112 1.32313 19.0137 1.21529C19.4162 1.10745 19.8304 1.34664 19.9382 1.74912L20.801 4.96888C20.9088 5.37135 20.6696 5.78558 20.2673 5.89342C19.8648 6.00126 19.4505 5.76207 19.3426 5.3596L18.4799 2.13983ZM10.8298 5.5219C10.6216 5.16116 10.7454 4.69906 11.1062 4.4907C11.467 4.28246 11.9291 4.40626 12.1374 4.767L13.804 7.65385C14.0124 8.01459 13.8886 8.47669 13.5277 8.68505C13.1669 8.89329 12.7049 8.76949 12.4965 8.40875L10.8298 5.5219ZM35.0609 1.74912C35.1687 1.34664 35.5829 1.10745 35.9854 1.21529C36.3879 1.32313 36.6271 1.73747 36.5192 2.13983L35.6565 5.3596C35.5486 5.76207 35.1343 6.00126 34.7318 5.89342C34.3295 5.78558 34.0903 5.37135 34.1981 4.96888L35.0609 1.74912ZM42.8617 4.767C43.0701 4.40626 43.5322 4.28246 43.8929 4.4907C44.2537 4.69906 44.3776 5.16116 44.1693 5.5219L42.5026 8.40875C42.2942 8.76949 41.8322 8.89329 41.4714 8.68505C41.1105 8.47669 40.9867 8.01459 41.1951 7.65385L42.8617 4.767Z" fill="#75BFB8"/>
</svg>
