<svg width="24" height="25" viewBox="0 0 24 25" fill="none" xmlns="http://www.w3.org/2000/svg">
<g clip-path="url(#clip0_27279_9073)">
<path d="M12 0.192871C5.37264 0.192871 0 5.56551 0 12.1929C0 17.8204 3.87456 22.5426 9.10128 23.8396V15.8601H6.62688V12.1929H9.10128V10.6127C9.10128 6.52839 10.9498 4.63527 14.9597 4.63527C15.72 4.63527 17.0318 4.78455 17.5685 4.93335V8.25735C17.2853 8.22759 16.7933 8.21271 16.1822 8.21271C14.2147 8.21271 13.4544 8.95815 13.4544 10.8959V12.1929H17.3741L16.7006 15.8601H13.4544V24.105C19.3963 23.3874 24.0005 18.3282 24.0005 12.1929C24 5.56551 18.6274 0.192871 12 0.192871Z" fill="white"/>
</g>
<defs>
<clipPath id="clip0_27279_9073">
<rect width="24" height="24" fill="white" transform="translate(0 0.192871)"/>
</clipPath>
</defs>
</svg>
