<svg width="55" height="53" viewBox="0 0 55 53" fill="none" xmlns="http://www.w3.org/2000/svg">
<path d="M20.3082 10.454H35.0822C35.2408 10.4521 35.3924 10.3882 35.5045 10.2761C35.6167 10.1639 35.6805 10.0124 35.6824 9.8538V5.84986H34.5652V3.38593C34.5627 2.63293 34.2624 1.91151 33.7299 1.37911C33.1974 0.846712 32.4759 0.546568 31.723 0.544189H23.6675C22.9146 0.54671 22.1932 0.846912 21.6608 1.37929C21.1284 1.91167 20.8282 2.63302 20.8256 3.38593V5.84986H19.7085V9.8538C19.7103 10.0124 19.7742 10.164 19.8863 10.2761C19.9985 10.3883 20.15 10.4521 20.3086 10.454H20.3082ZM22.3942 3.38561C22.3958 3.0484 22.5305 2.72546 22.7689 2.48701C23.0073 2.24857 23.3303 2.11392 23.6675 2.11233H31.723C32.0602 2.11392 32.3831 2.24857 32.6215 2.48701C32.86 2.72546 32.9946 3.0484 32.9962 3.38561V5.84986H22.3937L22.3942 3.38561ZM23.1436 20.5474V24.5228H32.2469V20.5478C33.3994 20.4495 34.5552 20.3097 35.6888 20.1191C36.0465 22.0263 36.9234 23.7977 38.2231 25.2386C39.5227 26.6795 41.1946 27.7339 43.0549 28.2858C42.9067 28.6713 42.6456 29.0031 42.3056 29.2377C41.9657 29.4722 41.5628 29.5986 41.1498 29.6003H14.2406C13.7005 29.5986 13.183 29.3833 12.8011 29.0014C12.4192 28.6195 12.2038 28.102 12.2021 27.5619V17.5789C13.3452 18.3309 14.6851 18.8553 15.8567 19.2204C18.1237 19.9223 20.6446 20.3351 23.1436 20.5478V20.5474ZM11.1506 13.391V6.89454C11.147 6.62187 11.2515 6.35888 11.4414 6.1631C11.6312 5.96732 11.8908 5.8547 12.1635 5.84986H18.1395V9.8538C18.1423 10.4281 18.3716 10.9781 18.7778 11.3842C19.1839 11.7904 19.7339 12.0197 20.3082 12.0225H35.0822C35.6566 12.0198 36.2066 11.7904 36.6127 11.3843C37.0188 10.9781 37.2481 10.4281 37.2509 9.8538V5.84986H43.2268C43.4994 5.8547 43.759 5.96732 43.9489 6.1631C44.1387 6.35888 44.2432 6.62187 44.2396 6.89454V7.81225C41.7959 8.23731 39.5806 9.51113 37.9838 11.4093C36.3871 13.3075 35.5115 15.7082 35.5112 18.1887C35.5112 18.3093 35.5143 18.43 35.5206 18.5475C34.4761 18.7253 33.3774 18.865 32.2471 18.9664V13.9943H23.1436V18.9666C16.6376 18.3856 11.1506 16.528 11.1506 13.391ZM30.6812 15.5627V22.9546H24.7085V15.5627H30.6812ZM49.9956 36.7699C50.0846 37.554 49.7607 38.3797 48.8241 38.894L29.6241 49.4483C28.1604 50.0865 27.2716 50.4009 26.3982 50.4357C25.5123 50.4708 24.5279 50.2199 22.8736 49.7309L13.7197 46.6383C13.5685 46.5891 13.4061 46.5858 13.2529 46.6287L10.6426 47.3844L7.15654 36.4841L13.9006 34.1154C13.9137 34.1093 13.9276 34.105 13.9418 34.1027C14.8627 33.7756 15.7358 33.5598 16.5996 33.5247C17.4973 33.4895 18.3914 33.6566 19.2158 34.0137L26.087 36.8778L30.0337 38.4971C30.5808 38.7141 31.0292 39.1242 31.2942 39.6497C31.5586 40.186 31.6336 40.7959 31.507 41.3802C31.5039 41.3897 31.5039 41.3992 31.5006 41.4088C31.4848 41.4659 31.4684 41.5199 31.453 41.5739H31.4499C31.4277 41.6469 31.4086 41.7041 31.3927 41.7422C31.1397 42.3503 30.657 42.8341 30.0494 43.0885C29.4419 43.3429 28.7585 43.3475 28.1476 43.1012L18.4284 39.1158C18.2368 39.0371 18.0218 39.0377 17.8307 39.1175C17.6395 39.1973 17.4879 39.3498 17.4092 39.5413C17.3305 39.7329 17.3311 39.9479 17.4109 40.1391C17.4907 40.3302 17.6431 40.4818 17.8347 40.5606L27.5539 44.5458C28.5478 44.9512 29.6618 44.9463 30.6521 44.5321C31.6424 44.1179 32.4282 43.3282 32.8375 42.3359C32.8697 42.2596 32.8946 42.193 32.9167 42.1359L46.8147 34.8329C47.6814 34.3789 48.5012 34.5631 49.0818 35.0552C49.5928 35.4903 49.9196 36.1031 49.9962 36.7699H49.9956ZM46.0398 9.22828C44.2676 9.22828 42.5352 9.7538 41.0617 10.7384C39.5882 11.723 38.4397 13.1224 37.7615 14.7597C37.0833 16.397 36.9059 18.1986 37.2516 19.9367C37.5973 21.6749 38.4507 23.2715 39.7039 24.5246C40.957 25.7777 42.5536 26.6311 44.2917 26.9769C46.0299 27.3226 47.8315 27.1452 49.4688 26.467C51.1061 25.7888 52.5055 24.6403 53.4901 23.1668C54.4747 21.6933 55.0002 19.9609 55.0002 18.1887C54.9958 15.8136 54.0504 13.537 52.3709 11.8575C50.6915 10.1781 48.4149 9.23265 46.0398 9.22828ZM46.6971 23.0145C46.6971 23.2225 46.6145 23.4219 46.4675 23.569C46.3204 23.716 46.1209 23.7987 45.913 23.7987C45.705 23.7987 45.5055 23.716 45.3585 23.569C45.2114 23.4219 45.1288 23.2225 45.1288 23.0145V23.0018C45.1288 22.7938 45.2114 22.5944 45.3585 22.4473C45.5055 22.3002 45.705 22.2176 45.913 22.2176C46.1209 22.2176 46.3204 22.3002 46.4675 22.4473C46.6145 22.5944 46.6971 22.7938 46.6971 23.0018V23.0145ZM48.5419 18.1819C48.0678 18.7536 47.4201 19.1549 46.6971 19.325V20.5603C46.6971 20.7683 46.6145 20.9678 46.4675 21.1148C46.3204 21.2619 46.1209 21.3445 45.913 21.3445C45.705 21.3445 45.5055 21.2619 45.3585 21.1148C45.2114 20.9678 45.1288 20.7683 45.1288 20.5603V19.1697C45.1283 18.8488 45.242 18.5382 45.4494 18.2934C45.6522 18.0456 45.9373 17.8788 46.2527 17.8235C46.6791 17.7424 47.0641 17.5157 47.3419 17.1821C47.5102 16.9798 47.6336 16.7439 47.7037 16.4902C47.7739 16.2365 47.7892 15.9708 47.7488 15.7107C47.7084 15.4506 47.613 15.2021 47.4691 14.9817C47.3252 14.7613 47.1361 14.574 46.9143 14.4323C46.6924 14.2907 46.443 14.1978 46.1825 14.16C45.922 14.1221 45.6565 14.1401 45.4035 14.2128C45.1505 14.2855 44.9159 14.4112 44.7152 14.5816C44.5145 14.7519 44.3524 14.963 44.2396 15.2008C44.1959 15.2938 44.1342 15.3773 44.0582 15.4464C43.9821 15.5155 43.8932 15.569 43.7965 15.6038C43.6998 15.6386 43.5972 15.654 43.4946 15.6491C43.3919 15.6443 43.2912 15.6192 43.1982 15.5755C43.1053 15.5317 43.0218 15.47 42.9527 15.394C42.8835 15.318 42.83 15.2291 42.7952 15.1324C42.7605 15.0356 42.7451 14.933 42.7499 14.8304C42.7548 14.7277 42.7798 14.627 42.8236 14.5341C43.1008 13.9491 43.5382 13.4549 44.0851 13.1086C44.6319 12.7624 45.2658 12.5785 45.9131 12.5781C46.5626 12.5778 47.1989 12.7626 47.7472 13.1108C48.2955 13.4591 48.7333 13.9564 49.0092 14.5444C49.2851 15.1325 49.3876 15.787 49.3049 16.4313C49.2222 17.0756 48.9576 17.683 48.5421 18.1823L48.5419 18.1819ZM10.0205 50.5755C10.0278 50.5973 10.0307 50.6203 10.0291 50.6431C10.0275 50.666 10.0213 50.6884 10.0111 50.7089C10.0008 50.7293 9.98647 50.7475 9.96901 50.7622C9.95155 50.777 9.93129 50.7881 9.90944 50.7949L9.87453 50.8075L5.44874 52.2237H5.44552C5.42409 52.2304 5.40154 52.2327 5.37919 52.2305C5.35684 52.2284 5.33516 52.2217 5.31543 52.211C5.27526 52.1904 5.24451 52.1552 5.2295 52.1126L5.22627 52.0998L5.21994 52.0745L0.00997453 35.7893C-0.0047343 35.7432 -0.00131499 35.6933 0.0195351 35.6497C0.0397346 35.613 0.0723985 35.5849 0.111596 35.5703L0.187758 35.5417L4.57583 34.1382L4.57906 34.1413C4.60068 34.1333 4.62376 34.13 4.64676 34.1317C4.66976 34.1334 4.69213 34.14 4.71237 34.151C4.73343 34.1608 4.75222 34.1749 4.76753 34.1924C4.78285 34.2099 4.79435 34.2304 4.80131 34.2525C4.80511 34.2689 4.8104 34.2848 4.8171 34.3002L5.42286 36.1951C5.4293 36.2173 5.43564 36.2364 5.44198 36.2554L5.44831 36.2713L9.3792 48.5562V48.5624C9.38554 48.5783 9.38866 48.5946 9.3951 48.6101L10.0237 50.5759L10.0205 50.5755Z" fill="#75BFB8"/>
</svg>
