<svg width="24" height="25" viewBox="0 0 24 25" fill="none" xmlns="http://www.w3.org/2000/svg">
<g clip-path="url(#clip0_27279_9074)">
<path d="M12 2.35381C15.2063 2.35381 15.5859 2.36787 16.8469 2.42412C18.0188 2.47568 18.6516 2.67256 19.0734 2.83662C19.6313 3.05225 20.0344 3.31475 20.4516 3.73193C20.8734 4.15381 21.1313 4.55225 21.3469 5.11006C21.5109 5.53193 21.7078 6.16943 21.7594 7.33662C21.8156 8.60225 21.8297 8.98193 21.8297 12.1835C21.8297 15.3897 21.8156 15.7694 21.7594 17.0304C21.7078 18.2022 21.5109 18.8351 21.3469 19.2569C21.1313 19.8147 20.8688 20.2179 20.4516 20.6351C20.0297 21.0569 19.6313 21.3147 19.0734 21.5304C18.6516 21.6944 18.0141 21.8913 16.8469 21.9429C15.5813 21.9991 15.2016 22.0132 12 22.0132C8.79375 22.0132 8.41406 21.9991 7.15313 21.9429C5.98125 21.8913 5.34844 21.6944 4.92656 21.5304C4.36875 21.3147 3.96563 21.0522 3.54844 20.6351C3.12656 20.2132 2.86875 19.8147 2.65313 19.2569C2.48906 18.8351 2.29219 18.1976 2.24063 17.0304C2.18438 15.7647 2.17031 15.3851 2.17031 12.1835C2.17031 8.97725 2.18438 8.59756 2.24063 7.33662C2.29219 6.16475 2.48906 5.53193 2.65313 5.11006C2.86875 4.55225 3.13125 4.14912 3.54844 3.73193C3.97031 3.31006 4.36875 3.05225 4.92656 2.83662C5.34844 2.67256 5.98594 2.47568 7.15313 2.42412C8.41406 2.36787 8.79375 2.35381 12 2.35381ZM12 0.192871C8.74219 0.192871 8.33438 0.206934 7.05469 0.263184C5.77969 0.319434 4.90313 0.525684 4.14375 0.820996C3.35156 1.13037 2.68125 1.53818 2.01563 2.2085C1.34531 2.87412 0.9375 3.54443 0.628125 4.33193C0.332812 5.096 0.126563 5.96787 0.0703125 7.24287C0.0140625 8.52725 0 8.93506 0 12.1929C0 15.4507 0.0140625 15.8585 0.0703125 17.1382C0.126563 18.4132 0.332812 19.2897 0.628125 20.0491C0.9375 20.8413 1.34531 21.5116 2.01563 22.1772C2.68125 22.8429 3.35156 23.2554 4.13906 23.5601C4.90313 23.8554 5.775 24.0616 7.05 24.1179C8.32969 24.1741 8.7375 24.1882 11.9953 24.1882C15.2531 24.1882 15.6609 24.1741 16.9406 24.1179C18.2156 24.0616 19.0922 23.8554 19.8516 23.5601C20.6391 23.2554 21.3094 22.8429 21.975 22.1772C22.6406 21.5116 23.0531 20.8413 23.3578 20.0538C23.6531 19.2897 23.8594 18.4179 23.9156 17.1429C23.9719 15.8632 23.9859 15.4554 23.9859 12.1976C23.9859 8.93975 23.9719 8.53193 23.9156 7.25225C23.8594 5.97725 23.6531 5.10068 23.3578 4.34131C23.0625 3.54443 22.6547 2.87412 21.9844 2.2085C21.3188 1.54287 20.6484 1.13037 19.8609 0.825684C19.0969 0.530371 18.225 0.324121 16.95 0.267871C15.6656 0.206934 15.2578 0.192871 12 0.192871Z" fill="white"/>
<path d="M12 6.02881C8.59688 6.02881 5.83594 8.78975 5.83594 12.1929C5.83594 15.596 8.59688 18.3569 12 18.3569C15.4031 18.3569 18.1641 15.596 18.1641 12.1929C18.1641 8.78975 15.4031 6.02881 12 6.02881ZM12 16.1913C9.79219 16.1913 8.00156 14.4007 8.00156 12.1929C8.00156 9.98506 9.79219 8.19443 12 8.19443C14.2078 8.19443 15.9984 9.98506 15.9984 12.1929C15.9984 14.4007 14.2078 16.1913 12 16.1913Z" fill="white"/>
<path d="M19.8469 5.78526C19.8469 6.58213 19.2 7.22432 18.4078 7.22432C17.6109 7.22432 16.9688 6.57744 16.9688 5.78526C16.9688 4.98838 17.6156 4.34619 18.4078 4.34619C19.2 4.34619 19.8469 4.99307 19.8469 5.78526Z" fill="white"/>
</g>
<defs>
<clipPath id="clip0_27279_9074">
<rect width="24" height="24" fill="white" transform="translate(0 0.192871)"/>
</clipPath>
</defs>
</svg>
