<svg width="198" height="198" viewBox="0 0 198 198" fill="none" xmlns="http://www.w3.org/2000/svg">
<path d="M99 0C111.443 2.25206e-05 123.349 2.29662 134.319 6.4873L73.5068 30.626C59.5812 36.1534 52.7735 51.923 58.3008 65.8486C63.8282 79.7743 79.5978 86.583 93.5234 81.0557L182.472 45.749C192.301 61.125 198 79.3969 198 99C198 153.676 153.676 198 99 198C86.0349 198 73.6526 195.505 62.3047 190.974L129.594 164.266C143.519 158.738 150.327 142.968 144.8 129.043C139.272 115.118 123.503 108.31 109.578 113.837L14.9795 151.385C5.48632 136.191 3.482e-05 118.236 0 99C0 44.3239 44.3239 0 99 0Z" fill="white"/>
<mask id="mask0_27279_9175" style="mask-type:alpha" maskUnits="userSpaceOnUse" x="0" y="0" width="198" height="198">
<circle cx="98.9998" cy="98.9998" r="98.9998" fill="#183459"/>
</mask>
<g mask="url(#mask0_27279_9175)">
<rect x="118.989" y="132.805" width="16.9024" height="154.536" rx="8.4512" transform="rotate(67.8542 118.989 132.805)" fill="white"/>
<rect x="217.989" y="-7.24365" width="16.9024" height="154.536" rx="8.4512" transform="rotate(67.8542 217.989 -7.24365)" fill="white"/>
</g>
</svg>
