<svg width="1240" height="41" viewBox="0 0 1240 41" fill="none" xmlns="http://www.w3.org/2000/svg">
<path opacity="0.15" d="M818.87 0C835.277 0 850.911 7.17 861.907 19.71L862.294 20.17C873.132 32.783 888.677 40.0008 905.002 40H1240V41H905.002C888.606 41.0012 872.974 33.8419 861.965 21.29L861.578 20.83C850.74 8.21698 835.195 0.999158 818.87 1H432.854C416.965 0.998759 401.842 8.05445 391.337 20.37L390.95 20.83C380.261 33.6296 364.711 40.9919 348.348 41H0V40H348.339C364.228 40.0012 379.351 32.9455 389.856 20.63L390.243 20.17C400.933 7.36779 416.488 0.00523363 432.854 0L818.87 0Z" fill="black"/>
</svg>
