<svg width="1240" height="42" viewBox="0 0 1240 42" fill="none" xmlns="http://www.w3.org/2000/svg">
<path opacity="0.15" d="M818.87 41.7749C835.277 41.7749 850.911 34.6049 861.907 22.0649L862.294 21.6049C873.132 8.99189 888.677 1.77406 905.002 1.7749H1240V0.774902H905.002C888.606 0.773728 872.974 7.93295 861.965 20.4849L861.578 20.9449C850.74 33.5579 835.195 40.7757 818.87 40.7749H432.854C416.965 40.7761 401.842 33.7205 391.337 21.4049L390.95 20.9449C380.261 8.14533 364.711 0.783042 348.348 0.774902H0V1.7749H348.339C364.228 1.77366 379.351 8.82935 389.856 21.1449L390.243 21.6049C400.933 34.4071 416.488 41.7697 432.854 41.7749H818.87Z" fill="black"/>
</svg>
