<svg width="24" height="25" viewBox="0 0 24 25" fill="none" xmlns="http://www.w3.org/2000/svg">
<path d="M22.2234 0.192871H1.77187C0.792187 0.192871 0 0.966309 0 1.92256V22.4585C0 23.4147 0.792187 24.1929 1.77187 24.1929H22.2234C23.2031 24.1929 24 23.4147 24 22.4632V1.92256C24 0.966309 23.2031 0.192871 22.2234 0.192871ZM7.12031 20.6444H3.55781V9.18818H7.12031V20.6444ZM5.33906 7.62725C4.19531 7.62725 3.27188 6.70381 3.27188 5.56475C3.27188 4.42568 4.19531 3.50225 5.33906 3.50225C6.47813 3.50225 7.40156 4.42568 7.40156 5.56475C7.40156 6.69912 6.47813 7.62725 5.33906 7.62725ZM20.4516 20.6444H16.8937V15.0757C16.8937 13.7491 16.8703 12.0382 15.0422 12.0382C13.1906 12.0382 12.9094 13.4866 12.9094 14.9819V20.6444H9.35625V9.18818H12.7687V10.7538H12.8156C13.2891 9.85381 14.4516 8.90225 16.1813 8.90225C19.7859 8.90225 20.4516 11.2741 20.4516 14.3585V20.6444V20.6444Z" fill="white"/>
</svg>
