<svg width="55" height="55" viewBox="0 0 55 55" fill="none" xmlns="http://www.w3.org/2000/svg">
<path d="M13.529 0.42334H27.0554C26.4906 2.50217 25.4904 4.28494 24.1861 5.51546C24.0796 5.61762 23.9831 5.71505 23.8925 5.81151H23.0623C23.322 4.92808 23.5431 3.89145 23.7121 2.75396C23.7768 2.32073 23.4784 1.91704 23.0452 1.85345C22.6132 1.78996 22.2094 2.08709 22.1447 2.52032C21.9553 3.79392 21.7013 4.91787 21.403 5.81151H19.1824C18.883 4.91669 18.6313 3.79166 18.4441 2.5215C18.3795 2.08827 17.978 1.78889 17.5448 1.85237C17.1116 1.91586 16.8122 2.31848 16.8757 2.75171C17.0424 3.88812 17.2624 4.92571 17.5232 5.81151H16.693C16.6012 5.71397 16.5037 5.61644 16.3993 5.51546C16.3971 5.5132 16.3948 5.51213 16.3937 5.50977C15.0942 4.28387 14.0949 2.50217 13.529 0.42334ZM34.5643 39.5497H31.3798L23.7235 45.8973C23.1224 46.3962 22.8593 47.1833 23.0384 47.9488C23.0396 47.9545 23.0407 47.959 23.0419 47.9647V47.9658C23.1145 48.2674 23.2529 48.5431 23.4535 48.7847C23.8006 49.2043 24.2927 49.4628 24.8416 49.515C25.3928 49.5661 25.927 49.405 26.3454 49.0581L31.9614 44.4002C32.2983 44.1213 32.7973 44.1678 33.0763 44.5046C33.3564 44.8414 33.3099 45.3416 32.973 45.6206L27.357 50.2783C26.7026 50.8204 25.8929 51.1096 25.0469 51.1096C24.929 51.1096 24.811 51.1039 24.6931 51.0926C23.7223 51.0008 22.8491 50.5414 22.2344 49.7976C21.9599 49.4686 21.7456 49.0888 21.6038 48.685H21.6026L14.0348 44.9299C13.5471 44.6883 12.9903 44.6521 12.4686 44.8279C11.9469 45.0037 11.5262 45.3689 11.2846 45.8576C11.0419 46.3464 11.0056 46.9033 11.1813 47.4238C11.3571 47.9456 11.7223 48.3663 12.2111 48.6078L22.3521 53.6398C24.2653 54.5857 26.2863 54.5891 28.1973 53.6478L36.4195 49.6059V39.5497H34.6446H34.5643ZM19.1837 5.81603C19.1837 5.81484 19.1825 5.81259 19.1825 5.81151H19.1066C19.1326 5.81151 19.1587 5.81259 19.1837 5.81603ZM25.5391 21.2386H21.411C20.5774 21.2386 19.8993 21.9179 19.8993 22.7515C19.8993 23.5873 20.5774 24.2678 21.411 24.2678H25.5391C25.8193 24.2678 26.0835 24.1906 26.3092 24.0557L26.3104 24.0545C26.3116 24.0535 26.3127 24.0535 26.3138 24.0523C26.3365 24.0353 26.3592 24.0206 26.3842 24.008C26.3865 24.007 26.3876 24.0058 26.3899 24.0035C26.7891 23.7313 27.0523 23.2708 27.0523 22.7515C27.0521 21.9179 26.3727 21.2386 25.5391 21.2386ZM25.5391 16.6262H21.411C20.5774 16.6262 19.8993 17.3044 19.8993 18.138C19.8993 18.9738 20.5774 19.6542 21.411 19.6542H25.5391C26.3727 19.6542 27.0521 18.9738 27.0521 18.138C27.0521 17.3045 26.3727 16.6262 25.5391 16.6262ZM25.5391 7.39577H21.9871H21.9338H19.8993V10.425H25.5391C26.3727 10.425 27.0521 9.74563 27.0521 8.91214C27.0521 8.07629 26.3727 7.39577 25.5391 7.39577ZM25.5391 12.0093H19.8993V13.5256C19.8993 14.3613 20.5774 15.0408 21.411 15.0408H25.5391C26.3727 15.0408 27.0521 14.3614 27.0521 13.5256C27.0521 12.6898 26.3727 12.0093 25.5391 12.0093ZM4.52547 9.81373H0.0537109V23.5862H4.52547V9.81373ZM9.05953 22.4193L10.5214 23.6351C10.7426 23.4831 10.9694 23.33 11.2018 23.1769C13.3646 21.7525 14.5361 19.5307 14.501 16.9212L14.4863 15.9459C13.9759 15.3982 13.6981 14.6655 13.6981 13.8501V9.62209C13.6981 9.18424 14.052 8.8305 14.4897 8.8305C14.9275 8.8305 15.2825 9.18435 15.2825 9.62209V13.85C15.2825 15.0204 16.2465 15.3322 16.8158 15.3322C17.2184 15.3322 17.6029 15.1985 17.8682 14.9648C18.1642 14.704 18.3139 14.3286 18.3139 13.85V7.39577H13.0573L9.08123 10.9614C8.9361 11.0918 8.74779 11.1643 8.55271 11.1643C8.55153 11.1643 8.55046 11.1643 8.55046 11.1643L6.11102 11.1564V22.2433L8.55046 22.2354C8.73641 22.2401 8.91666 22.3001 9.05953 22.4193ZM38.004 51.3455H43.5566V37.5084H38.004V51.3455ZM11.9617 43.3263C11.0386 43.637 10.2947 44.2858 9.86477 45.1534C9.75702 45.3711 9.67194 45.5956 9.61071 45.8248C5.74567 43.7018 3.33577 40.5433 3.09869 37.2159C2.81854 33.2953 5.44736 29.2431 10.7187 25.4348H10.7198C10.8718 25.3248 11.0249 25.216 11.1814 25.1071C11.4718 24.9041 11.7689 24.7011 12.074 24.5003C14.704 22.7686 16.1284 20.0694 16.0864 16.8984L16.0852 16.8394C16.3211 16.8917 16.5661 16.9176 16.8156 16.9176C17.7478 16.9176 18.6869 16.5275 19.2777 15.77C19.2993 15.7915 19.322 15.8118 19.3446 15.8334C18.7118 16.4005 18.3137 17.2238 18.3137 18.1379C18.3137 19.0542 18.7129 19.8787 19.3457 20.4457C18.7129 21.0128 18.3137 21.8361 18.3137 22.7513C18.3137 24.4615 19.703 25.8519 21.4109 25.8519H25.539C25.9484 25.8519 26.3397 25.7725 26.6969 25.6262C32.1576 29.6432 34.6572 33.8893 33.9665 37.9652H31.0938C30.9089 37.9652 30.7309 38.0299 30.5879 38.1479L22.7117 44.678C22.0335 45.2405 21.598 46.0083 21.4517 46.8396L14.739 43.5099C13.8716 43.0802 12.8849 43.0144 11.9617 43.3263ZM15.0102 31.0406C15.0102 32.2632 15.8483 33.5005 17.4474 33.5005H19.7076C20.5185 33.5005 20.5594 34.2298 20.5594 34.3761C20.5594 34.5224 20.5185 35.2527 19.7076 35.2527H15.8052C15.3675 35.2527 15.0124 35.6066 15.0124 36.0443C15.0124 36.4821 15.3673 36.837 15.8052 36.837H17.7865V37.9223C17.7865 38.3601 18.1414 38.714 18.5793 38.714C19.017 38.714 19.372 38.3601 19.372 37.9223V36.837H19.7077C21.3079 36.837 22.1449 35.5985 22.1449 34.3761C22.1449 33.1535 21.308 31.915 19.7077 31.915H17.4475C16.6365 31.915 16.5957 31.1869 16.5957 31.0406C16.5957 30.8943 16.6365 30.1662 17.4475 30.1662H21.3499C21.7876 30.1662 22.1427 29.8113 22.1427 29.3734C22.1427 28.9357 21.7877 28.5818 21.3499 28.5818H19.372V27.4966C19.372 27.0588 19.017 26.7038 18.5793 26.7038C18.1415 26.7038 17.7865 27.0588 17.7865 27.4966V28.5818H17.4474C15.8483 28.5819 15.0102 29.8192 15.0102 31.0406ZM54.9463 17.4757C54.9463 24.0161 49.6262 29.3372 43.0882 29.3372C36.5478 29.3372 31.2279 24.0161 31.2279 17.4757C31.2279 10.9365 36.5479 5.61525 43.0882 5.61525C49.6262 5.61536 54.9463 10.9365 54.9463 17.4757ZM53.0523 17.4757C53.0523 11.9798 48.5828 7.50921 43.0881 7.50921C37.5923 7.50921 33.1205 11.9798 33.1205 17.4757C33.1205 22.9726 37.5923 27.4433 43.0881 27.4433C48.5828 27.4433 53.0523 22.9727 53.0523 17.4757ZM51.468 17.4757C51.468 22.0983 47.7084 25.8589 43.0881 25.8589C38.4667 25.8589 34.706 22.0982 34.706 17.4757C34.706 12.8543 38.4666 9.09357 43.0881 9.09357C47.7085 9.09357 51.468 12.8543 51.468 17.4757ZM46.7423 18.5781L43.7041 17.9951V12.7794C43.7041 12.3417 43.349 11.9867 42.9113 11.9867C42.4735 11.9867 42.1197 12.3417 42.1197 12.7794V18.6495C42.1197 19.0295 42.3885 19.356 42.7627 19.4276L46.4429 20.1353C46.4939 20.1444 46.5439 20.1489 46.5937 20.1489C46.9657 20.1489 47.298 19.8858 47.3706 19.5059C47.4533 19.0759 47.1721 18.6608 46.7423 18.5781Z" fill="#75BFB8"/>
</svg>
