<svg width="55" height="56" viewBox="0 0 55 56" fill="none" xmlns="http://www.w3.org/2000/svg">
<path d="M25.9417 7.53685C26.188 7.37268 26.5984 7.29059 27.091 7.2085V9.17865C26.4342 9.01447 26.0238 8.93238 25.8596 8.7682C25.6133 8.60402 25.5312 8.43984 25.5312 8.19357C25.5312 7.9473 25.6133 7.70103 25.9417 7.53685Z" fill="#75BFB8"/>
<path d="M29.8811 11.8875C29.8811 12.1337 29.7169 12.38 29.3886 12.5442C29.0602 12.7084 28.6498 12.7905 28.1572 12.8726V10.8203C28.8139 10.9845 29.3065 11.1487 29.4707 11.2308C29.7169 11.3949 29.8811 11.6412 29.8811 11.8875Z" fill="#75BFB8"/>
<path d="M27.4188 2.9397C21.4263 2.9397 16.583 6.22328 16.583 10.1636C16.583 14.186 21.4263 17.3875 27.4188 17.3875C33.4114 17.3875 38.2546 14.1039 38.2546 10.1636C38.3367 6.22328 33.4114 2.9397 27.4188 2.9397ZM30.8666 13.3651C30.2099 13.7755 29.3069 14.0218 28.1576 14.0218V14.8427H27.0905V14.0218C25.6129 13.9397 24.2173 13.5293 22.986 12.7904L24.2173 11.8054C25.1203 12.38 26.1054 12.7084 27.0905 12.7904V10.574C25.8591 10.3278 24.9561 10.0815 24.3815 9.75313C23.8069 9.42477 23.4785 8.93223 23.4785 8.27552C23.4785 7.6188 23.8069 7.12626 24.4636 6.63373C25.1203 6.14119 26.0233 5.97701 27.0905 5.97701V5.48447H28.1576V6.0591C29.389 6.14119 30.5382 6.38746 31.6054 6.88L30.5382 7.94716C29.7994 7.6188 28.9785 7.37253 28.1576 7.29044V9.42477H28.2397C29.4711 9.67104 30.4561 9.91731 31.0308 10.2457C31.6054 10.574 31.9338 11.0666 31.9338 11.7233C31.8517 12.4621 31.5233 12.9546 30.8666 13.3651Z" fill="#75BFB8"/>
<path d="M38.3367 14.5964V17.6337C38.3367 20.9173 33.3292 23.6263 27.5009 23.6263C21.5904 23.6263 16.665 20.8352 16.665 17.6337V14.5964C18.7994 17.3054 22.9038 19.1114 27.5009 19.1114C32.0979 19.0293 36.1203 17.2233 38.3367 14.5964Z" fill="#75BFB8"/>
<path d="M27.4188 25.186C32.0979 25.186 36.1203 23.6263 38.2546 21.4099V23.9547C38.2546 27.2383 33.2472 29.9472 27.4188 29.9472C21.5084 29.9472 16.583 27.2383 16.583 23.9547V21.4099C18.7173 23.7084 22.7397 25.186 27.4188 25.186Z" fill="#75BFB8"/>
<path d="M27.4188 31.5889C32.0979 31.5889 36.1203 30.0292 38.2546 27.8127V30.1113C38.2546 33.3948 33.2472 36.1038 27.4188 36.1038C21.5084 36.1038 16.583 33.3948 16.583 30.1113V27.8127C18.7173 30.0292 22.7397 31.5889 27.4188 31.5889Z" fill="#75BFB8"/>
<path d="M47.9413 41.3576V43.9024H46.2995V42.1785H28.2398V43.9024H26.598V42.1785H8.53828V43.9024H6.89648V41.3576C6.89648 40.8651 7.30693 40.5367 7.71738 40.5367H26.598V37.6636H27.4189H28.2398V40.5367H47.1204C47.6129 40.5367 47.9413 40.9472 47.9413 41.3576Z" fill="#75BFB8"/>
<path d="M12.0676 46.4471V53.0143C12.0676 53.4247 11.7393 53.8352 11.2468 53.8352H4.26914C3.85869 53.8352 3.44824 53.4247 3.44824 53.0143V46.4471C3.44824 45.9546 3.85869 45.6262 4.26914 45.6262H11.2468C11.6572 45.6262 12.0676 45.9546 12.0676 46.4471Z" fill="#75BFB8"/>
<path d="M31.7688 46.4471V53.0143C31.7688 53.4247 31.4405 53.8352 30.9479 53.8352H23.9703C23.5599 53.8352 23.1494 53.4247 23.1494 53.0143V46.4471C23.1494 45.9546 23.5599 45.6262 23.9703 45.6262H30.9479C31.4405 45.6262 31.7688 45.9546 31.7688 46.4471Z" fill="#75BFB8"/>
<path d="M51.553 46.4471V53.0143C51.553 53.4247 51.1425 53.8352 50.7321 53.8352H43.7545C43.262 53.8352 42.9336 53.4247 42.9336 53.0143V46.4471C42.9336 45.9546 43.262 45.6262 43.7545 45.6262H50.7321C51.2246 45.6262 51.553 45.9546 51.553 46.4471Z" fill="#75BFB8"/>
</svg>
