<svg width="24" height="25" viewBox="0 0 24 25" fill="none" xmlns="http://www.w3.org/2000/svg">
<path d="M11.9633 0.192871C5.35629 0.192871 0 5.54901 0 12.156C0 18.7633 5.35629 24.119 11.9633 24.119C18.571 24.119 23.9267 18.7633 23.9267 12.156C23.9267 5.54944 18.571 0.193443 11.9631 0.193443L11.9633 0.192871ZM17.4496 17.4472C17.2353 17.7986 16.7753 17.91 16.4239 17.6943C13.615 15.9786 10.079 15.59 5.91471 16.5414C5.51343 16.6329 5.11343 16.3814 5.022 15.98C4.93014 15.5786 5.18057 15.1786 5.58286 15.0872C10.14 14.0456 14.049 14.4943 17.2024 16.4214C17.5539 16.6372 17.6653 17.0957 17.4496 17.4472ZM18.9139 14.1893C18.6439 14.6286 18.0696 14.7672 17.631 14.4972C14.4153 12.5202 9.51343 11.9477 5.70986 13.1023C5.21657 13.2513 4.69557 12.9733 4.54586 12.4809C4.39729 11.9876 4.67543 11.4676 5.16786 11.3176C9.51257 9.9993 14.9139 10.6379 18.6067 12.9072C19.0453 13.1772 19.1839 13.7513 18.9139 14.1893ZM19.0396 10.7973C15.1839 8.50716 8.82243 8.29659 5.14114 9.41387C4.55 9.59316 3.92486 9.25944 3.74571 8.6683C3.56657 8.07687 3.9 7.45216 4.49157 7.27244C8.71743 5.98959 15.7424 6.23744 20.1816 8.87273C20.7144 9.1883 20.8887 9.87501 20.573 10.406C20.2587 10.9377 19.5701 11.113 19.0401 10.7973H19.0396Z" fill="white"/>
</svg>
