<svg width="55" height="56" viewBox="0 0 55 56" fill="none" xmlns="http://www.w3.org/2000/svg">
<path d="M39.6491 50.8802V53.8354C39.6491 54.2459 39.2386 54.6563 38.8282 54.6563H16.1715C15.6789 54.6563 15.3506 54.2459 15.3506 53.8354V50.8802C15.3506 49.6488 16.4177 48.5817 17.6491 48.5817H20.6864V45.2981H34.3133V48.5817H37.3506C38.664 48.5817 39.6491 49.5668 39.6491 50.8802Z" fill="#75BFB8"/>
<path d="M33.6572 28.9622H48.105V31.0144H33.6572V28.9622Z" fill="#75BFB8"/>
<path d="M17.5674 9.09644C11.4928 9.09644 6.48535 14.1039 6.48535 20.1785C6.48535 26.3352 11.4928 31.2606 17.5674 31.2606C23.7242 31.2606 28.7316 26.3352 28.7316 20.1785C28.7316 14.1039 23.7242 9.09644 17.5674 9.09644ZM21.0152 12.7084L21.754 11.477C22.0003 11.0666 22.4928 10.9845 22.9033 11.1487C23.3137 11.3949 23.3958 11.8875 23.2316 12.2979L22.4928 13.5293C22.2465 13.9397 21.754 14.0218 21.3436 13.8576C20.9331 13.6114 20.7689 13.1188 21.0152 12.7084ZM16.7465 10.574C16.7465 10.0815 17.0749 9.75315 17.5674 9.75315C18.06 9.75315 18.3883 10.0815 18.3883 10.574V12.0517C18.3883 12.5442 18.06 12.8726 17.5674 12.8726C17.0749 12.8726 16.7465 12.5442 16.7465 12.0517V10.574ZM7.14207 20.1785C7.14207 19.686 7.47043 19.3576 7.96296 19.3576H9.44058C9.93311 19.3576 10.2615 19.686 10.2615 20.1785C10.2615 20.6711 9.93311 20.9994 9.44058 20.9994H7.96296C7.47043 20.9994 7.14207 20.6711 7.14207 20.1785ZM10.9182 25.0218L9.68684 25.7606C9.2764 26.0069 8.78386 25.8427 8.53759 25.4323C8.29132 25.0218 8.4555 24.5293 8.86595 24.283L10.0973 23.5442C10.5077 23.2979 11.0003 23.4621 11.2465 23.8726C11.4928 24.283 11.3286 24.7755 10.9182 25.0218ZM11.2465 16.4845C11.0003 16.8949 10.5077 16.977 10.0973 16.8129L8.86595 16.074C8.4555 15.8278 8.37341 15.3352 8.53759 14.9248C8.78386 14.5143 9.2764 14.4323 9.68684 14.5964L10.9182 15.3352C11.3286 15.6636 11.4928 16.1561 11.2465 16.4845ZM14.2018 27.7308L13.463 28.9621C13.2167 29.3726 12.7242 29.4546 12.3137 29.2905C11.9033 29.0442 11.8212 28.5517 11.9854 28.1412L12.7242 26.9099C12.9704 26.4994 13.463 26.4173 13.8734 26.5815C14.2839 26.7457 14.448 27.3203 14.2018 27.7308ZM13.9555 13.8576C13.5451 14.1039 13.0525 13.9397 12.8062 13.5293L12.0674 12.2979C11.8212 11.8875 11.9854 11.3949 12.3958 11.1487C12.8062 10.9024 13.2988 11.0666 13.5451 11.477L14.2839 12.7084C14.448 13.1188 14.2839 13.6114 13.9555 13.8576ZM18.3883 29.8651C18.3883 30.3576 18.06 30.686 17.5674 30.686C17.0749 30.686 16.7465 30.3576 16.7465 29.8651V28.3875C16.7465 27.8949 17.0749 27.5666 17.5674 27.5666C18.06 27.5666 18.3883 27.8949 18.3883 28.3875V29.8651ZM22.8212 29.2905C22.4107 29.5367 21.9182 29.3726 21.6719 28.9621L20.9331 27.7308C20.6868 27.3203 20.851 26.8278 21.2615 26.5815C21.6719 26.3352 22.1645 26.4994 22.4107 26.9099L23.1495 28.1412C23.3958 28.5517 23.2316 29.0442 22.8212 29.2905ZM23.1495 20.9994H20.0301C19.7018 21.9845 18.7167 22.7233 17.5674 22.7233C16.1719 22.7233 15.0227 21.574 15.0227 20.1785C15.0227 19.0293 15.7615 18.1263 16.7465 17.7158V14.5964C16.7465 14.1039 17.0749 13.7755 17.5674 13.7755C18.06 13.7755 18.3883 14.1039 18.3883 14.5964V17.7158C19.1271 17.9621 19.7018 18.5367 20.0301 19.3576H23.1495C23.6421 19.3576 23.9704 19.686 23.9704 20.1785C23.9704 20.6711 23.6421 20.9994 23.1495 20.9994ZM26.6794 25.4323C26.4331 25.8427 25.9406 25.9248 25.5301 25.7606L24.2988 25.0218C23.8883 24.7755 23.8062 24.283 23.9704 23.8726C24.1346 23.4621 24.7092 23.38 25.1197 23.5442L26.351 24.283C26.7615 24.5293 26.9256 25.0218 26.6794 25.4323ZM28.0749 20.1785C28.0749 20.6711 27.7465 20.9994 27.254 20.9994H25.7764C25.2839 20.9994 24.9555 20.6711 24.9555 20.1785C24.9555 19.686 25.2839 19.3576 25.7764 19.3576H27.254C27.7465 19.3576 28.0749 19.7681 28.0749 20.1785ZM26.6794 15.0069C26.9256 15.4173 26.7615 15.9099 26.351 16.1561L25.1197 16.8949C24.7092 17.1412 24.2167 16.977 23.9704 16.5666C23.7242 16.1561 23.8883 15.6636 24.2988 15.4173L25.5301 14.6785C25.9406 14.4323 26.4331 14.5964 26.6794 15.0069Z" fill="#75BFB8"/>
<path d="M17.567 21.0816C18.0658 21.0816 18.47 20.6773 18.47 20.1786C18.47 19.6799 18.0658 19.2756 17.567 19.2756C17.0683 19.2756 16.6641 19.6799 16.6641 20.1786C16.6641 20.6773 17.0683 21.0816 17.567 21.0816Z" fill="#75BFB8"/>
<path d="M51.1418 2.1189H3.94034C2.46273 2.1189 1.31348 3.26815 1.31348 4.74576V35.3652H53.7687V4.74576C53.6866 3.26815 52.5374 2.1189 51.1418 2.1189ZM33.8209 8.02934C33.9851 7.86516 34.2314 7.78307 34.4777 7.78307L42.2762 8.85024C42.9329 8.93233 43.1791 9.75322 42.7687 10.2458L41.2911 11.7234L44.4105 14.8428C44.7388 15.1711 44.7388 15.6637 44.4105 15.992L41.7836 18.6189C41.4553 18.9473 40.9627 18.9473 40.6344 18.6189L37.515 15.4995L36.1194 16.9771C35.6269 17.4696 34.806 17.1413 34.7239 16.4846L33.6568 8.68606C33.5747 8.43979 33.6568 8.19352 33.8209 8.02934ZM17.5672 32.9025C10.5896 32.9025 4.84333 27.1562 4.84333 20.1786C4.84333 13.201 10.5896 7.45472 17.5672 7.45472C24.5448 7.45472 30.3732 13.201 30.3732 20.1786C30.3732 27.1562 24.6269 32.9025 17.5672 32.9025ZM49.7463 31.8353C49.7463 32.3278 49.418 32.6562 48.9254 32.6562H32.8359C32.3433 32.6562 32.015 32.3278 32.015 31.8353V28.1413C32.015 27.6487 32.3433 27.3204 32.8359 27.3204H48.9254C49.418 27.3204 49.7463 27.6487 49.7463 28.1413V31.8353ZM49.7463 24.7756C49.7463 25.2681 49.418 25.5965 48.9254 25.5965H37.1045C36.612 25.5965 36.2836 25.2681 36.2836 24.7756V21.0816C36.2836 19.5219 38.3359 20.589 48.8433 20.2607C49.3359 20.2607 49.6642 20.589 49.6642 21.0816V24.7756H49.7463Z" fill="#75BFB8"/>
<path d="M36.9406 13.7757C37.1048 13.6115 37.269 13.5294 37.5152 13.5294C37.7615 13.5294 37.9257 13.6115 38.0899 13.7757L41.2093 16.8951L42.6869 15.4175L39.5675 12.2981C39.4033 12.1339 39.3212 11.9697 39.3212 11.7234C39.3212 11.4772 39.4033 11.313 39.5675 11.1488L40.3884 10.3279L35.2988 9.58911L36.0376 14.6787L36.9406 13.7757Z" fill="#75BFB8"/>
<path d="M37.9258 21.9023H48.0228V23.9546H37.9258V21.9023Z" fill="#75BFB8"/>
<path d="M1.31348 37.0068V40.9471C1.31348 42.4247 2.46273 43.574 3.94034 43.574H51.1418C52.6194 43.574 53.7687 42.4247 53.7687 40.9471V37.0068H1.31348ZM30.209 41.1934H24.7911C24.2986 41.1934 23.9702 40.865 23.9702 40.3725C23.9702 39.88 24.2986 39.5516 24.7911 39.5516H30.209C30.7015 39.5516 31.0299 39.88 31.0299 40.3725C31.0299 40.865 30.6194 41.1934 30.209 41.1934Z" fill="#75BFB8"/>
</svg>
