<svg width="24" height="18" viewBox="0 0 24 18" fill="none" xmlns="http://www.w3.org/2000/svg">
<path d="M23.7609 4.39268C23.7609 4.39268 23.5266 2.73799 22.8047 2.01143C21.8906 1.05518 20.8688 1.05049 20.4 0.994238C17.0438 0.750488 12.0047 0.750488 12.0047 0.750488H11.9953C11.9953 0.750488 6.95625 0.750488 3.6 0.994238C3.13125 1.05049 2.10938 1.05518 1.19531 2.01143C0.473438 2.73799 0.24375 4.39268 0.24375 4.39268C0.24375 4.39268 0 6.33799 0 8.27861V10.0974C0 12.038 0.239062 13.9833 0.239062 13.9833C0.239062 13.9833 0.473437 15.638 1.19062 16.3646C2.10469 17.3208 3.30469 17.288 3.83906 17.3911C5.76094 17.5739 12 17.6302 12 17.6302C12 17.6302 17.0438 17.6208 20.4 17.3817C20.8688 17.3255 21.8906 17.3208 22.8047 16.3646C23.5266 15.638 23.7609 13.9833 23.7609 13.9833C23.7609 13.9833 24 12.0427 24 10.0974V8.27861C24 6.33799 23.7609 4.39268 23.7609 4.39268ZM9.52031 12.3052V5.55986L16.0031 8.94424L9.52031 12.3052Z" fill="white"/>
</svg>
